<?xml version="1.0" encoding="utf-8" standalone="no"?>
<!DOCTYPE svg PUBLIC "-//W3C//DTD SVG 1.1//EN"
  "http://www.w3.org/Graphics/SVG/1.1/DTD/svg11.dtd">
<svg xmlns:xlink="http://www.w3.org/1999/xlink" width="691.2pt" height="557.28pt" viewBox="0 0 691.2 557.28" xmlns="http://www.w3.org/2000/svg" version="1.1">
 <metadata>
  <rdf:RDF xmlns:dc="http://purl.org/dc/elements/1.1/" xmlns:cc="http://creativecommons.org/ns#" xmlns:rdf="http://www.w3.org/1999/02/22-rdf-syntax-ns#">
   <cc:Work>
    <dc:type rdf:resource="http://purl.org/dc/dcmitype/StillImage"/>
    <dc:date>2025-04-03T11:22:37.909686</dc:date>
    <dc:format>image/svg+xml</dc:format>
    <dc:creator>
     <cc:Agent>
      <dc:title>Matplotlib v3.6.3, https://matplotlib.org/</dc:title>
     </cc:Agent>
    </dc:creator>
   </cc:Work>
  </rdf:RDF>
 </metadata>
 <defs>
  <style type="text/css">*{stroke-linejoin: round; stroke-linecap: butt}</style>
 </defs>
 <g id="figure_1">
  <g id="patch_1">
   <path d="M -0 557.28 
L 691.2 557.28 
L 691.2 0 
L -0 0 
L -0 557.28 
z
" style="fill: none"/>
  </g>
  <g id="axes_1">
   <g id="patch_2">
    <path d="M 77.318394 248.082817 
L 684 248.082817 
L 684 82.585802 
L 77.318394 82.585802 
L 77.318394 248.082817 
z
" style="fill: none"/>
   </g>
   <g id="matplotlib.axis_1">
    <g id="xtick_1">
     <g id="line2d_1">
      <defs>
       <path id="m066404ccb2" d="M 0 0 
L 0 3.5 
" style="stroke: #000000; stroke-width: 0.8"/>
      </defs>
      <g>
       <use xlink:href="#m066404ccb2" x="104.894831" y="248.082817" style="stroke: #000000; stroke-width: 0.8"/>
      </g>
     </g>
     <g id="text_1">
      <!-- $\mathdefault{0}$ -->
      <g transform="translate(100.325783 268.919814) scale(0.2 -0.2)">
       <defs>
        <path id="CMR17-30" d="M 2688 2038 
C 2688 2430 2682 3099 2413 3613 
C 2176 4063 1798 4224 1466 4224 
C 1158 4224 768 4082 525 3620 
C 269 3137 243 2539 243 2038 
C 243 1671 250 1112 448 623 
C 723 -39 1216 -128 1466 -128 
C 1760 -128 2208 -7 2470 604 
C 2662 1048 2688 1568 2688 2038 
z
M 1466 -26 
C 1056 -26 813 328 723 816 
C 653 1196 653 1749 653 2109 
C 653 2604 653 3015 736 3407 
C 858 3954 1216 4121 1466 4121 
C 1728 4121 2067 3947 2189 3420 
C 2272 3054 2278 2623 2278 2109 
C 2278 1691 2278 1176 2202 797 
C 2067 96 1690 -26 1466 -26 
z
" transform="scale(0.015625)"/>
       </defs>
       <use xlink:href="#CMR17-30" transform="scale(0.996264)"/>
      </g>
     </g>
    </g>
    <g id="xtick_2">
     <g id="line2d_2">
      <g>
       <use xlink:href="#m066404ccb2" x="215.200577" y="248.082817" style="stroke: #000000; stroke-width: 0.8"/>
      </g>
     </g>
     <g id="text_2">
      <!-- $\mathdefault{5}$ -->
      <g transform="translate(210.631529 268.919814) scale(0.2 -0.2)">
       <defs>
        <path id="CMR17-35" d="M 730 3750 
C 794 3724 1056 3641 1325 3641 
C 1920 3641 2246 3961 2432 4140 
C 2432 4191 2432 4224 2394 4224 
C 2387 4224 2374 4224 2323 4198 
C 2099 4102 1837 4032 1517 4032 
C 1325 4032 1037 4055 723 4191 
C 653 4224 640 4224 634 4224 
C 602 4224 595 4217 595 4090 
L 595 2231 
C 595 2113 595 2080 659 2080 
C 691 2080 704 2093 736 2139 
C 941 2435 1222 2560 1542 2560 
C 1766 2560 2246 2415 2246 1293 
C 2246 1087 2246 716 2054 422 
C 1894 159 1645 25 1370 25 
C 947 25 518 319 403 812 
C 429 806 480 793 506 793 
C 589 793 749 838 749 1036 
C 749 1209 627 1280 506 1280 
C 358 1280 262 1190 262 1011 
C 262 454 704 -128 1382 -128 
C 2042 -128 2669 441 2669 1267 
C 2669 2054 2170 2662 1549 2662 
C 1222 2662 947 2540 730 2304 
L 730 3750 
z
" transform="scale(0.015625)"/>
       </defs>
       <use xlink:href="#CMR17-35" transform="scale(0.996264)"/>
      </g>
     </g>
    </g>
    <g id="xtick_3">
     <g id="line2d_3">
      <g>
       <use xlink:href="#m066404ccb2" x="325.506324" y="248.082817" style="stroke: #000000; stroke-width: 0.8"/>
      </g>
     </g>
     <g id="text_3">
      <!-- $\mathdefault{10}$ -->
      <g transform="translate(316.368228 268.919814) scale(0.2 -0.2)">
       <defs>
        <path id="CMR17-31" d="M 1702 4083 
C 1702 4217 1696 4224 1606 4224 
C 1357 3927 979 3833 621 3820 
C 602 3820 570 3820 563 3808 
C 557 3795 557 3782 557 3648 
C 755 3648 1088 3686 1344 3839 
L 1344 467 
C 1344 243 1331 166 781 166 
L 589 166 
L 589 0 
C 896 6 1216 12 1523 12 
C 1830 12 2150 6 2458 0 
L 2458 166 
L 2266 166 
C 1715 166 1702 236 1702 467 
L 1702 4083 
z
" transform="scale(0.015625)"/>
       </defs>
       <use xlink:href="#CMR17-31" transform="scale(0.996264)"/>
       <use xlink:href="#CMR17-30" transform="translate(45.690477 0) scale(0.996264)"/>
      </g>
     </g>
    </g>
    <g id="xtick_4">
     <g id="line2d_4">
      <g>
       <use xlink:href="#m066404ccb2" x="435.81207" y="248.082817" style="stroke: #000000; stroke-width: 0.8"/>
      </g>
     </g>
     <g id="text_4">
      <!-- $\mathdefault{15}$ -->
      <g transform="translate(426.673975 268.919814) scale(0.2 -0.2)">
       <use xlink:href="#CMR17-31" transform="scale(0.996264)"/>
       <use xlink:href="#CMR17-35" transform="translate(45.690477 0) scale(0.996264)"/>
      </g>
     </g>
    </g>
    <g id="xtick_5">
     <g id="line2d_5">
      <g>
       <use xlink:href="#m066404ccb2" x="546.117817" y="248.082817" style="stroke: #000000; stroke-width: 0.8"/>
      </g>
     </g>
     <g id="text_5">
      <!-- $\mathdefault{20}$ -->
      <g transform="translate(536.979721 268.919814) scale(0.2 -0.2)">
       <defs>
        <path id="CMR17-32" d="M 2669 990 
L 2554 990 
C 2490 537 2438 460 2413 422 
C 2381 371 1920 371 1830 371 
L 602 371 
C 832 620 1280 1073 1824 1596 
C 2214 1966 2669 2400 2669 3033 
C 2669 3788 2067 4224 1395 4224 
C 691 4224 262 3603 262 3027 
C 262 2777 448 2745 525 2745 
C 589 2745 781 2783 781 3007 
C 781 3206 614 3264 525 3264 
C 486 3264 448 3257 422 3244 
C 544 3788 915 4057 1306 4057 
C 1862 4057 2227 3616 2227 3033 
C 2227 2477 1901 1998 1536 1583 
L 262 147 
L 262 0 
L 2515 0 
L 2669 990 
z
" transform="scale(0.015625)"/>
       </defs>
       <use xlink:href="#CMR17-32" transform="scale(0.996264)"/>
       <use xlink:href="#CMR17-30" transform="translate(45.690477 0) scale(0.996264)"/>
      </g>
     </g>
    </g>
    <g id="xtick_6">
     <g id="line2d_6">
      <g>
       <use xlink:href="#m066404ccb2" x="656.423563" y="248.082817" style="stroke: #000000; stroke-width: 0.8"/>
      </g>
     </g>
     <g id="text_6">
      <!-- $\mathdefault{25}$ -->
      <g transform="translate(647.285468 268.919814) scale(0.2 -0.2)">
       <use xlink:href="#CMR17-32" transform="scale(0.996264)"/>
       <use xlink:href="#CMR17-35" transform="translate(45.690477 0) scale(0.996264)"/>
      </g>
     </g>
    </g>
    <g id="text_7">
     <!-- $\omega / \tilde{\omega}_{\text{c}}$ -->
     <g transform="translate(360.240634 291.739407) scale(0.2 -0.2)">
      <defs>
       <path id="CMMI12-21" d="M 3802 2406 
C 3802 2592 3750 2828 3526 2828 
C 3398 2828 3251 2668 3251 2540 
C 3251 2483 3277 2444 3328 2387 
C 3424 2278 3546 2105 3546 1804 
C 3546 1574 3405 1209 3302 1011 
C 3123 659 2829 358 2496 358 
C 2093 358 1939 614 1869 972 
C 1939 1139 2086 1555 2086 1721 
C 2086 1792 2061 1849 1978 1849 
C 1933 1849 1882 1824 1850 1772 
C 1760 1632 1677 1126 1683 992 
C 1562 755 1216 358 806 358 
C 378 358 262 736 262 1100 
C 262 1766 678 2348 794 2508 
C 858 2604 902 2668 902 2681 
C 902 2726 877 2796 819 2796 
C 717 2796 685 2713 634 2636 
C 307 2131 77 1420 77 806 
C 77 409 224 -64 704 -64 
C 1235 -64 1568 390 1702 633 
C 1754 275 1946 -64 2413 -64 
C 2899 -64 3206 364 3437 883 
C 3603 1254 3802 2054 3802 2406 
z
" transform="scale(0.015625)"/>
       <path id="CMMI12-3d" d="M 2746 4563 
C 2746 4569 2784 4665 2784 4678 
C 2784 4755 2720 4800 2669 4800 
C 2637 4800 2579 4800 2528 4659 
L 384 -1364 
C 384 -1370 346 -1466 346 -1479 
C 346 -1556 410 -1600 461 -1600 
C 499 -1600 557 -1594 602 -1460 
L 2746 4563 
z
" transform="scale(0.015625)"/>
       <path id="CMR17-7e" d="M 2400 4198 
C 2182 3987 2061 3865 1862 3865 
C 1722 3865 1626 3936 1491 4032 
C 1363 4121 1261 4198 1120 4198 
C 890 4198 730 4012 461 3718 
L 531 3648 
C 749 3859 870 3980 1069 3980 
C 1210 3980 1306 3910 1440 3814 
C 1568 3724 1670 3648 1811 3648 
C 2042 3648 2202 3833 2470 4128 
L 2400 4198 
z
" transform="scale(0.015625)"/>
       <path id="CMR17-63" d="M 2234 2240 
C 2112 2240 1933 2240 1933 2015 
C 1933 1836 2080 1785 2163 1785 
C 2208 1785 2394 1804 2394 2028 
C 2394 2476 1958 2816 1466 2816 
C 787 2816 211 2201 211 1379 
C 211 521 813 -64 1466 -64 
C 2259 -64 2458 676 2458 747 
C 2458 773 2451 792 2406 792 
C 2362 792 2355 786 2330 702 
C 2163 180 1798 51 1523 51 
C 1114 51 621 431 621 1385 
C 621 2358 1094 2700 1472 2700 
C 1722 2700 2093 2582 2234 2240 
z
" transform="scale(0.015625)"/>
      </defs>
      <use xlink:href="#CMMI12-21" transform="scale(0.996264)"/>
      <use xlink:href="#CMMI12-3d" transform="translate(64.318346 0) scale(0.996264)"/>
      <use xlink:href="#CMR17-7e" transform="translate(122.407199 0.006461) scale(0.996264)"/>
      <use xlink:href="#CMMI12-21" transform="translate(113.093265 0) scale(0.996264)"/>
      <use xlink:href="#CMR17-63" transform="translate(173.837018 -14.943915) scale(0.697382)"/>
     </g>
    </g>
   </g>
   <g id="matplotlib.axis_2">
    <g id="ytick_1">
     <g id="line2d_7">
      <defs>
       <path id="m3e10cb5064" d="M 0 0 
L -3.5 0 
" style="stroke: #000000; stroke-width: 0.8"/>
      </defs>
      <g>
       <use xlink:href="#m3e10cb5064" x="77.318394" y="240.560225" style="stroke: #000000; stroke-width: 0.8"/>
      </g>
     </g>
     <g id="text_8">
      <!-- $\mathdefault{0.0}$ -->
      <g transform="translate(46.622768 247.478724) scale(0.2 -0.2)">
       <defs>
        <path id="CMMI12-3a" d="M 1178 307 
C 1178 492 1024 620 870 620 
C 685 620 557 467 557 313 
C 557 128 710 0 864 0 
C 1050 0 1178 153 1178 307 
z
" transform="scale(0.015625)"/>
       </defs>
       <use xlink:href="#CMR17-30" transform="scale(0.996264)"/>
       <use xlink:href="#CMMI12-3a" transform="translate(45.690477 0) scale(0.996264)"/>
       <use xlink:href="#CMR17-30" transform="translate(72.787654 0) scale(0.996264)"/>
      </g>
     </g>
    </g>
    <g id="ytick_2">
     <g id="line2d_8">
      <g>
       <use xlink:href="#m3e10cb5064" x="77.318394" y="165.334309" style="stroke: #000000; stroke-width: 0.8"/>
      </g>
     </g>
     <g id="text_9">
      <!-- $\mathdefault{0.5}$ -->
      <g transform="translate(46.622768 172.252808) scale(0.2 -0.2)">
       <use xlink:href="#CMR17-30" transform="scale(0.996264)"/>
       <use xlink:href="#CMMI12-3a" transform="translate(45.690477 0) scale(0.996264)"/>
       <use xlink:href="#CMR17-35" transform="translate(72.787654 0) scale(0.996264)"/>
      </g>
     </g>
    </g>
    <g id="ytick_3">
     <g id="line2d_9">
      <g>
       <use xlink:href="#m3e10cb5064" x="77.318394" y="90.108393" style="stroke: #000000; stroke-width: 0.8"/>
      </g>
     </g>
     <g id="text_10">
      <!-- $\mathdefault{1.0}$ -->
      <g transform="translate(46.622768 97.026892) scale(0.2 -0.2)">
       <use xlink:href="#CMR17-31" transform="scale(0.996264)"/>
       <use xlink:href="#CMMI12-3a" transform="translate(45.690477 0) scale(0.996264)"/>
       <use xlink:href="#CMR17-30" transform="translate(72.787654 0) scale(0.996264)"/>
      </g>
     </g>
    </g>
    <g id="text_11">
     <!-- $f / f(\tilde{\omega}_{\text{c}})$ -->
     <g transform="translate(37.641448 198.370321) rotate(-90) scale(0.2 -0.2)">
      <defs>
       <path id="CMMI12-66" d="M 2854 2566 
C 2982 2566 3034 2566 3034 2687 
C 3034 2752 2982 2752 2867 2752 
L 2349 2752 
C 2470 3398 2560 3846 2611 4051 
C 2650 4204 2784 4351 2950 4351 
C 3085 4351 3219 4294 3283 4236 
C 3034 4211 2957 4025 2957 3916 
C 2957 3788 3053 3712 3174 3712 
C 3302 3712 3494 3820 3494 4064 
C 3494 4332 3226 4480 2944 4480 
C 2669 4480 2400 4275 2272 4025 
C 2157 3801 2093 3573 1946 2752 
L 1517 2752 
C 1395 2752 1331 2752 1331 2636 
C 1331 2566 1370 2566 1498 2566 
L 1907 2566 
C 1792 1977 1530 545 1382 -132 
C 1274 -685 1178 -1152 858 -1152 
C 838 -1152 653 -1152 538 -1031 
C 864 -1005 864 -724 864 -717 
C 864 -589 768 -512 646 -512 
C 518 -512 326 -621 326 -865 
C 326 -1140 608 -1280 858 -1280 
C 1510 -1280 1779 -113 1850 203 
C 1965 691 2278 2376 2310 2566 
L 2854 2566 
z
" transform="scale(0.015625)"/>
       <path id="CMR17-28" d="M 1958 -1562 
C 1958 -1556 1958 -1543 1939 -1524 
C 1645 -1223 858 -403 858 1596 
C 858 3595 1632 4408 1946 4729 
C 1946 4735 1958 4748 1958 4767 
C 1958 4787 1939 4800 1914 4800 
C 1843 4800 1299 4325 986 3620 
C 666 2909 576 2218 576 1603 
C 576 1141 621 360 1005 -467 
C 1312 -1133 1837 -1600 1914 -1600 
C 1946 -1600 1958 -1588 1958 -1562 
z
" transform="scale(0.015625)"/>
       <path id="CMR17-29" d="M 1683 1596 
C 1683 2057 1638 2839 1254 3665 
C 947 4332 422 4800 346 4800 
C 326 4800 301 4793 301 4761 
C 301 4748 307 4742 314 4729 
C 621 4408 1402 3595 1402 1603 
C 1402 -396 627 -1210 314 -1530 
C 307 -1543 301 -1549 301 -1562 
C 301 -1594 326 -1600 346 -1600 
C 416 -1600 960 -1127 1274 -422 
C 1594 289 1683 981 1683 1596 
z
" transform="scale(0.015625)"/>
      </defs>
      <use xlink:href="#CMMI12-66" transform="scale(0.996264)"/>
      <use xlink:href="#CMMI12-3d" transform="translate(58.720305 0) scale(0.996264)"/>
      <use xlink:href="#CMMI12-66" transform="translate(107.495224 0) scale(0.996264)"/>
      <use xlink:href="#CMR17-28" transform="translate(166.215528 0) scale(0.996264)"/>
      <use xlink:href="#CMR17-7e" transform="translate(210.810231 0.006461) scale(0.996264)"/>
      <use xlink:href="#CMMI12-21" transform="translate(201.496296 0) scale(0.996264)"/>
      <use xlink:href="#CMR17-63" transform="translate(262.24005 -14.943915) scale(0.697382)"/>
      <use xlink:href="#CMR17-29" transform="translate(291.078013 0) scale(0.996264)"/>
     </g>
    </g>
   </g>
   <g id="line2d_10">
    <path d="M 104.894831 240.560225 
L 106.551073 212.077388 
L 108.207315 187.714658 
L 109.863558 167.02505 
L 111.5198 149.60468 
L 113.176043 135.088876 
L 114.832285 123.148611 
L 115.936447 116.471567 
L 117.040608 110.726262 
L 118.14477 105.837638 
L 119.248932 101.735744 
L 120.353093 98.355416 
L 121.457255 95.63598 
L 122.561417 93.520965 
L 123.665578 91.957838 
L 124.76974 90.897755 
L 125.873901 90.295326 
L 126.978063 90.108393 
L 128.082225 90.297826 
L 129.186386 90.827322 
L 130.290548 91.663228 
L 131.39471 92.774365 
L 133.050952 94.894582 
L 134.707194 97.481183 
L 136.363437 100.455614 
L 138.57176 104.905637 
L 141.332164 111.048992 
L 145.19673 120.331359 
L 158.99875 154.221385 
L 162.863316 162.9191 
L 166.727882 171.050922 
L 170.040367 177.537448 
L 173.352851 183.566397 
L 176.665336 189.139273 
L 179.977821 194.266056 
L 183.290306 198.96281 
L 186.602791 203.249788 
L 189.915276 207.149957 
L 193.227761 210.687844 
L 196.540246 213.888656 
L 199.85273 216.777614 
L 203.165215 219.379457 
L 206.4777 221.718088 
L 209.790185 223.816328 
L 213.654751 225.989151 
L 217.519317 227.896021 
L 221.383882 229.566305 
L 225.800529 231.219763 
L 230.217175 232.635134 
L 235.185903 233.98249 
L 240.15463 235.108721 
L 245.675438 236.142404 
L 251.748327 237.060781 
L 258.925378 237.909073 
L 266.654509 238.598931 
L 276.039883 239.204171 
L 287.081499 239.685111 
L 300.883519 240.05664 
L 319.654267 240.324571 
L 348.362469 240.487512 
L 407.987197 240.554158 
L 656.423563 240.560225 
L 656.423563 240.560225 
" clip-path="url(#pb4bf63185f)" style="fill: none; stroke: #2ca02c; stroke-width: 1.5; stroke-linecap: square"/>
   </g>
   <g id="line2d_11">
    <path d="M 104.894831 90.108393 
L 108.759396 102.901569 
L 112.623962 114.92802 
L 116.488528 126.194754 
L 120.353093 136.713281 
L 123.665578 145.145492 
L 126.978063 153.051761 
L 130.290548 160.446269 
L 133.603033 167.34493 
L 136.915518 173.765168 
L 140.228003 179.725682 
L 143.540488 185.246209 
L 146.852972 190.347279 
L 150.165457 195.049985 
L 153.477942 199.375757 
L 156.790427 203.346148 
L 160.102912 206.982641 
L 163.415397 210.306472 
L 166.727882 213.338471 
L 170.040367 216.098931 
L 173.352851 218.607489 
L 177.217417 221.240919 
L 181.081983 223.585734 
L 184.946549 225.668874 
L 188.811114 227.515568 
L 193.227761 229.366597 
L 197.644407 230.971681 
L 202.613135 232.519838 
L 207.581862 233.831277 
L 213.10267 235.051069 
L 219.175559 236.149913 
L 225.800529 237.109683 
L 232.977579 237.923045 
L 241.258792 238.633077 
L 250.644165 239.215138 
L 262.237862 239.702164 
L 276.591964 240.071917 
L 295.914792 240.334013 
L 325.727156 240.49253 
L 389.21645 240.555322 
L 656.423563 240.560225 
L 656.423563 240.560225 
" clip-path="url(#pb4bf63185f)" style="fill: none; stroke-dasharray: 5.55,2.4; stroke-dashoffset: 0; stroke: #d62728; stroke-width: 1.5"/>
   </g>
   <g id="line2d_12">
    <path d="M 104.894831 240.560225 
L 106.551073 212.077388 
L 108.207315 187.714658 
L 109.863558 167.02505 
L 111.5198 149.60468 
L 113.176043 135.088876 
L 114.832285 123.148611 
L 115.936447 116.471567 
L 117.040608 110.726262 
L 118.14477 105.837638 
L 119.248932 101.735744 
L 120.353093 98.355416 
L 121.457255 95.63598 
L 122.561417 93.520965 
L 123.665578 91.957838 
L 124.76974 90.897755 
L 125.873901 90.295326 
L 126.978063 90.108393 
L 128.082225 90.297826 
L 129.186386 90.827322 
L 130.290548 91.663228 
L 131.39471 92.774365 
L 133.050952 94.894582 
L 134.707194 97.481183 
L 136.363437 100.455614 
L 138.57176 104.905637 
L 141.332164 111.048992 
L 145.19673 120.331359 
L 158.99875 154.221385 
L 162.863316 162.9191 
L 166.727882 171.050922 
L 170.040367 177.537448 
L 173.352851 183.566397 
L 176.665336 189.139273 
L 179.977821 194.266056 
L 183.290306 198.96281 
L 186.602791 203.249788 
L 189.915276 207.149957 
L 193.227761 210.687844 
L 196.540246 213.888656 
L 199.85273 216.777614 
L 203.165215 219.379457 
L 206.4777 221.718088 
L 209.790185 223.816328 
L 213.654751 225.989151 
L 217.519317 227.896021 
L 221.383882 229.566305 
L 225.800529 231.219763 
L 230.217175 232.635134 
L 235.185903 233.98249 
L 240.15463 235.108721 
L 245.675438 236.142404 
L 251.748327 237.060781 
L 258.925378 237.909073 
L 266.654509 238.598931 
L 276.039883 239.204171 
L 287.081499 239.685111 
L 300.883519 240.05664 
L 319.654267 240.324571 
L 348.362469 240.487512 
L 407.987197 240.554158 
L 656.423563 240.560225 
L 656.423563 240.560225 
" clip-path="url(#pb4bf63185f)" style="fill: none; stroke: #1f77b4; stroke-width: 1.5; stroke-linecap: square"/>
   </g>
   <g id="line2d_13">
    <path d="M 104.894831 90.108393 
L 108.759396 102.901568 
L 112.623962 114.92802 
L 116.488528 126.194754 
L 120.353093 136.713281 
L 123.665578 145.145492 
L 126.978063 153.051761 
L 130.290548 160.446269 
L 133.603033 167.34493 
L 136.915518 173.765168 
L 140.228003 179.725682 
L 143.540488 185.246209 
L 146.852972 190.347279 
L 150.165457 195.049985 
L 153.477942 199.375757 
L 156.790427 203.346148 
L 160.102912 206.982641 
L 163.415397 210.306472 
L 166.727882 213.338471 
L 170.040367 216.098931 
L 173.352851 218.607489 
L 177.217417 221.240919 
L 181.081983 223.585734 
L 184.946549 225.668874 
L 188.811114 227.515568 
L 193.227761 229.366597 
L 197.644407 230.971681 
L 202.613135 232.519838 
L 207.581862 233.831277 
L 213.10267 235.051069 
L 219.175559 236.149913 
L 225.800529 237.109683 
L 232.977579 237.923045 
L 241.258792 238.633077 
L 250.644165 239.215138 
L 262.237862 239.702164 
L 276.591964 240.071917 
L 295.914792 240.334013 
L 325.727156 240.49253 
L 389.21645 240.555322 
L 656.423563 240.560225 
L 656.423563 240.560225 
" clip-path="url(#pb4bf63185f)" style="fill: none; stroke-dasharray: 5.55,2.4; stroke-dashoffset: 0; stroke: #ff7f0e; stroke-width: 1.5"/>
   </g>
   <g id="patch_3">
    <path d="M 77.318394 248.082817 
L 77.318394 82.585802 
" style="fill: none; stroke: #000000; stroke-width: 0.8; stroke-linejoin: miter; stroke-linecap: square"/>
   </g>
   <g id="patch_4">
    <path d="M 684 248.082817 
L 684 82.585802 
" style="fill: none; stroke: #000000; stroke-width: 0.8; stroke-linejoin: miter; stroke-linecap: square"/>
   </g>
   <g id="patch_5">
    <path d="M 77.318394 248.082817 
L 684 248.082817 
" style="fill: none; stroke: #000000; stroke-width: 0.8; stroke-linejoin: miter; stroke-linecap: square"/>
   </g>
   <g id="patch_6">
    <path d="M 77.318394 82.585802 
L 684 82.585802 
" style="fill: none; stroke: #000000; stroke-width: 0.8; stroke-linejoin: miter; stroke-linecap: square"/>
   </g>
   <g id="text_12">
    <!-- Spectral Density $ J $ and Power Spectrum $ S $ -->
    <g transform="translate(209.91264 76.585802) scale(0.2 -0.2)">
     <defs>
      <path id="CMR17-53" d="M 2803 4351 
C 2803 4467 2797 4473 2758 4473 
C 2720 4473 2707 4447 2682 4390 
L 2490 3965 
C 2246 4320 1875 4480 1472 4480 
C 819 4480 294 3958 294 3301 
C 294 3101 339 2817 557 2546 
C 794 2250 1018 2198 1530 2063 
C 1722 2011 2042 1927 2106 1901 
C 2470 1747 2662 1360 2662 999 
C 2662 534 2336 38 1779 38 
C 1094 38 454 425 410 1328 
C 403 1431 397 1437 352 1437 
C 301 1437 294 1431 294 1302 
L 294 0 
C 294 -116 301 -122 339 -122 
C 384 -122 397 -90 486 109 
C 493 128 493 141 614 386 
C 934 -39 1472 -128 1779 -128 
C 2477 -128 2970 457 2970 1141 
C 2970 1476 2848 1734 2778 1850 
C 2509 2263 2221 2340 1914 2417 
C 1869 2437 1856 2437 1498 2527 
C 1152 2617 1005 2662 845 2836 
C 666 3036 602 3243 602 3449 
C 602 3868 934 4326 1478 4326 
C 2157 4326 2579 3842 2675 3036 
C 2694 2920 2701 2914 2746 2914 
C 2803 2914 2803 2933 2803 3043 
L 2803 4351 
z
" transform="scale(0.015625)"/>
      <path id="CMR17-70" d="M 1408 -1114 
C 998 -1114 973 -1088 973 -834 
L 973 380 
C 1158 109 1427 -64 1766 -64 
C 2406 -64 3053 503 3053 1382 
C 3053 2196 2496 2816 1837 2816 
C 1453 2816 1139 2603 960 2345 
L 960 2816 
L 198 2745 
L 198 2577 
C 576 2577 634 2539 634 2228 
L 634 -834 
C 634 -1081 608 -1114 198 -1114 
L 198 -1280 
C 352 -1268 634 -1268 800 -1268 
C 966 -1268 1254 -1268 1408 -1280 
L 1408 -1114 
z
M 973 2015 
C 973 2106 973 2241 1222 2481 
C 1254 2506 1472 2700 1792 2700 
C 2259 2700 2643 2112 2643 1376 
C 2643 639 2234 38 1728 38 
C 1498 38 1248 148 1056 451 
C 973 594 973 632 973 736 
L 973 2015 
z
" transform="scale(0.015625)"/>
      <path id="CMR17-65" d="M 2438 1503 
C 2464 1529 2464 1542 2464 1606 
C 2464 2251 2118 2816 1389 2816 
C 710 2816 173 2175 173 1394 
C 173 554 781 -64 1459 -64 
C 2176 -64 2458 619 2458 755 
C 2458 800 2419 800 2406 800 
C 2362 800 2355 787 2330 709 
C 2189 270 1837 51 1504 51 
C 1229 51 954 206 781 490 
C 582 819 582 1200 582 1503 
L 2438 1503 
z
M 589 1600 
C 634 2511 1126 2713 1382 2713 
C 1818 2713 2112 2308 2118 1600 
L 589 1600 
z
" transform="scale(0.015625)"/>
      <path id="CMR17-74" d="M 966 2585 
L 1862 2585 
L 1862 2752 
L 966 2752 
L 966 3968 
L 851 3968 
C 838 3292 614 2700 70 2687 
L 70 2585 
L 627 2585 
L 627 778 
C 627 655 627 -64 1370 -64 
C 1747 -64 1965 308 1965 784 
L 1965 1151 
L 1850 1151 
L 1850 790 
C 1850 347 1677 51 1408 51 
C 1222 51 966 179 966 765 
L 966 2585 
z
" transform="scale(0.015625)"/>
      <path id="CMR17-72" d="M 960 1517 
C 960 2134 1222 2713 1702 2713 
C 1747 2713 1792 2707 1837 2687 
C 1837 2687 1696 2642 1696 2475 
C 1696 2321 1818 2257 1914 2257 
C 1990 2257 2131 2302 2131 2482 
C 2131 2687 1926 2816 1709 2816 
C 1222 2816 1011 2340 947 2115 
L 941 2115 
L 941 2816 
L 198 2745 
L 198 2578 
C 576 2578 634 2540 634 2231 
L 634 443 
C 634 198 608 166 198 166 
L 198 0 
C 352 12 646 12 813 12 
C 998 12 1325 12 1498 0 
L 1498 166 
C 1037 166 960 166 960 455 
L 960 1517 
z
" transform="scale(0.015625)"/>
      <path id="CMR17-61" d="M 2304 1656 
C 2304 2048 2304 2275 2035 2534 
C 1798 2751 1523 2816 1306 2816 
C 800 2816 435 2408 435 1977 
C 435 1740 627 1728 666 1728 
C 749 1728 896 1779 896 1958 
C 896 2118 774 2188 666 2188 
C 640 2188 608 2182 589 2176 
C 723 2594 1069 2713 1293 2713 
C 1613 2713 1965 2421 1965 1875 
L 1965 1632 
C 1587 1619 1133 1568 774 1373 
C 371 1147 256 822 256 576 
C 256 77 832 -64 1171 -64 
C 1523 -64 1850 135 1990 505 
C 2003 219 2182 -39 2464 -39 
C 2598 -39 2938 51 2938 563 
L 2938 926 
L 2822 926 
L 2822 557 
C 2822 161 2650 109 2566 109 
C 2304 109 2304 446 2304 732 
L 2304 1656 
z
M 1965 887 
C 1965 323 1568 38 1216 38 
C 896 38 646 278 646 576 
C 646 771 730 1114 1101 1322 
C 1408 1497 1760 1523 1965 1536 
L 1965 887 
z
" transform="scale(0.015625)"/>
      <path id="CMR17-6c" d="M 979 4416 
L 218 4345 
L 218 4179 
C 595 4179 653 4141 653 3835 
L 653 439 
C 653 198 627 166 218 166 
L 218 0 
C 371 12 653 12 813 12 
C 979 12 1261 12 1414 0 
L 1414 166 
C 1005 166 979 191 979 439 
L 979 4416 
z
" transform="scale(0.015625)"/>
      <path id="CMR17-44" d="M 333 4352 
L 333 4185 
C 774 4185 845 4185 845 3898 
L 845 453 
C 845 166 774 166 333 166 
L 333 0 
L 2368 0 
C 3398 0 4224 943 4224 2140 
C 4224 3344 3411 4352 2368 4352 
L 333 4352 
z
M 1523 166 
C 1267 166 1254 198 1254 414 
L 1254 3936 
C 1254 4153 1267 4185 1523 4185 
L 2240 4185 
C 2771 4185 3750 3873 3750 2140 
C 3750 1242 3488 879 3366 707 
C 3213 510 2848 166 2240 166 
L 1523 166 
z
" transform="scale(0.015625)"/>
      <path id="CMR17-6e" d="M 2656 1954 
C 2656 2282 2592 2816 1837 2816 
C 1331 2816 1069 2424 973 2166 
L 966 2166 
L 966 2816 
L 211 2745 
L 211 2578 
C 589 2578 646 2540 646 2231 
L 646 443 
C 646 198 621 166 211 166 
L 211 0 
C 365 12 646 12 813 12 
C 979 12 1267 12 1421 0 
L 1421 166 
C 1011 166 986 192 986 443 
L 986 1678 
C 986 2269 1344 2713 1792 2713 
C 2266 2713 2317 2289 2317 1980 
L 2317 443 
C 2317 198 2291 166 1882 166 
L 1882 0 
C 2035 12 2317 12 2483 12 
C 2650 12 2938 12 3091 0 
L 3091 166 
C 2682 166 2656 192 2656 443 
L 2656 1954 
z
" transform="scale(0.015625)"/>
      <path id="CMR17-73" d="M 1978 2688 
C 1978 2803 1971 2809 1933 2809 
C 1907 2809 1901 2803 1824 2707 
C 1805 2681 1747 2617 1728 2592 
C 1523 2809 1235 2816 1126 2816 
C 416 2816 160 2444 160 2073 
C 160 1497 813 1363 998 1324 
C 1402 1241 1542 1216 1677 1100 
C 1760 1024 1901 883 1901 652 
C 1901 384 1747 38 1158 38 
C 602 38 403 460 288 1024 
C 269 1113 269 1120 218 1120 
C 166 1120 160 1113 160 985 
L 160 64 
C 160 -52 166 -58 205 -58 
C 237 -58 243 -52 275 0 
C 314 57 410 211 448 275 
C 576 102 800 -64 1158 -64 
C 1792 -64 2131 281 2131 780 
C 2131 1107 1958 1280 1875 1356 
C 1683 1555 1459 1600 1190 1651 
C 838 1728 390 1817 390 2208 
C 390 2374 480 2726 1126 2726 
C 1811 2726 1850 2086 1862 1881 
C 1869 1849 1901 1843 1920 1843 
C 1978 1843 1978 1862 1978 1971 
L 1978 2688 
z
" transform="scale(0.015625)"/>
      <path id="CMR17-69" d="M 992 3961 
C 992 4102 877 4224 730 4224 
C 589 4224 467 4108 467 3961 
C 467 3820 582 3699 730 3699 
C 870 3699 992 3814 992 3961 
z
M 243 2745 
L 243 2579 
C 602 2579 653 2540 653 2231 
L 653 443 
C 653 198 627 166 218 166 
L 218 0 
C 371 12 646 12 806 12 
C 960 12 1222 12 1370 0 
L 1370 166 
C 992 166 979 205 979 436 
L 979 2816 
L 243 2745 
z
" transform="scale(0.015625)"/>
      <path id="CMR17-79" d="M 2496 2183 
C 2656 2579 2944 2585 3034 2585 
L 3034 2752 
C 2912 2745 2752 2739 2630 2739 
C 2496 2739 2285 2739 2157 2752 
L 2157 2585 
C 2400 2566 2406 2384 2406 2332 
C 2406 2268 2394 2235 2362 2158 
L 1664 409 
L 902 2300 
C 870 2378 870 2423 870 2430 
C 870 2572 1018 2585 1171 2585 
L 1171 2752 
C 1018 2739 742 2739 582 2739 
C 410 2739 205 2739 64 2752 
L 64 2585 
C 410 2585 448 2553 531 2345 
L 1485 -31 
C 1197 -795 1030 -1242 627 -1242 
C 557 -1242 397 -1223 282 -1106 
C 429 -1093 493 -1002 493 -892 
C 493 -782 416 -685 288 -685 
C 147 -685 77 -782 77 -899 
C 77 -1158 339 -1344 627 -1344 
C 998 -1344 1229 -983 1357 -659 
L 2496 2183 
z
" transform="scale(0.015625)"/>
      <path id="CMMI12-4a" d="M 3418 3911 
C 3469 4102 3482 4166 3795 4166 
C 3898 4166 3962 4166 3962 4281 
C 3962 4352 3904 4352 3878 4352 
C 3770 4352 3648 4339 3533 4339 
L 3181 4339 
C 2912 4339 2630 4352 2362 4352 
C 2304 4352 2227 4352 2227 4236 
C 2227 4172 2278 4172 2278 4166 
L 2438 4166 
C 2950 4166 2950 4115 2950 4019 
C 2950 4013 2950 3968 2925 3866 
L 2189 953 
C 2022 304 1594 0 1286 0 
C 1069 0 762 99 685 428 
C 710 422 742 415 768 415 
C 979 415 1146 601 1146 787 
C 1146 889 1082 1024 890 1024 
C 774 1024 506 959 506 543 
C 506 149 838 -128 1299 -128 
C 1882 -128 2509 304 2662 908 
L 3418 3911 
z
" transform="scale(0.015625)"/>
      <path id="CMR17-64" d="M 1869 4345 
L 1869 4179 
C 2246 4179 2304 4141 2304 3843 
L 2304 2371 
C 2278 2403 2016 2816 1498 2816 
C 845 2816 211 2228 211 1376 
C 211 529 806 -64 1434 -64 
C 1978 -64 2259 361 2291 406 
L 2291 -64 
L 3066 -13 
L 3066 154 
C 2688 154 2630 193 2630 503 
L 2630 4416 
L 1869 4345 
z
M 2291 762 
C 2291 568 2176 393 2029 264 
C 1811 70 1594 38 1472 38 
C 1286 38 621 135 621 1369 
C 621 2636 1363 2713 1530 2713 
C 1824 2713 2061 2545 2208 2313 
C 2291 2177 2291 2157 2291 2041 
L 2291 762 
z
" transform="scale(0.015625)"/>
      <path id="CMR17-50" d="M 1267 2048 
L 2291 2048 
C 3117 2048 3718 2583 3718 3187 
C 3718 3791 3130 4352 2291 4352 
L 333 4352 
L 333 4185 
C 774 4185 845 4185 845 3899 
L 845 453 
C 845 166 774 166 333 166 
L 333 0 
C 518 12 858 12 1056 12 
C 1254 12 1594 12 1779 0 
L 1779 166 
C 1338 166 1267 166 1267 453 
L 1267 2048 
z
M 1254 2182 
L 1254 3937 
C 1254 4153 1267 4185 1523 4185 
L 2170 4185 
C 2995 4185 3232 3715 3232 3187 
C 3232 2608 2950 2182 2170 2182 
L 1254 2182 
z
" transform="scale(0.015625)"/>
      <path id="CMR17-6f" d="M 2758 1356 
C 2758 2176 2163 2816 1466 2816 
C 768 2816 173 2176 173 1356 
C 173 550 768 -64 1466 -64 
C 2163 -64 2758 550 2758 1356 
z
M 1466 51 
C 1165 51 909 230 762 480 
C 602 768 582 1126 582 1408 
C 582 1676 595 2009 762 2297 
C 890 2508 1139 2713 1466 2713 
C 1754 2713 1997 2553 2150 2329 
C 2349 2028 2349 1606 2349 1408 
C 2349 1158 2336 774 2163 467 
C 1984 172 1709 51 1466 51 
z
" transform="scale(0.015625)"/>
      <path id="CMR17-77" d="M 3725 2186 
C 3853 2566 4109 2579 4205 2585 
L 4205 2752 
C 4077 2745 3949 2739 3821 2739 
C 3699 2739 3424 2739 3315 2752 
L 3315 2585 
C 3514 2572 3622 2456 3622 2296 
C 3622 2251 3610 2193 3597 2148 
L 2995 398 
L 2342 2296 
C 2330 2341 2310 2392 2310 2418 
C 2310 2585 2528 2585 2630 2585 
L 2630 2752 
C 2483 2739 2214 2739 2061 2739 
C 1901 2739 1734 2739 1587 2752 
L 1587 2585 
C 1939 2585 1939 2572 2074 2167 
L 1485 443 
L 851 2302 
C 819 2386 819 2399 819 2418 
C 819 2585 1037 2585 1139 2585 
L 1139 2752 
C 986 2739 717 2739 557 2739 
C 416 2739 198 2739 64 2752 
L 64 2585 
C 346 2585 416 2566 486 2353 
L 1274 38 
C 1299 -45 1318 -64 1370 -64 
C 1414 -64 1440 -52 1472 44 
L 2131 1987 
L 2797 44 
C 2829 -52 2854 -64 2899 -64 
C 2950 -64 2970 -45 2995 38 
L 3725 2186 
z
" transform="scale(0.015625)"/>
      <path id="CMR17-75" d="M 1882 2745 
L 1882 2579 
C 2259 2579 2317 2540 2317 2229 
L 2317 1053 
C 2317 510 2029 38 1555 38 
C 1030 38 986 355 986 691 
L 986 2816 
L 211 2745 
L 211 2579 
C 467 2579 640 2579 646 2320 
L 646 1079 
C 646 646 646 368 813 187 
C 896 103 1056 -64 1517 -64 
C 2061 -64 2272 400 2323 536 
L 2330 536 
L 2330 -64 
L 3091 -13 
L 3091 154 
C 2714 154 2656 193 2656 503 
L 2656 2816 
L 1882 2745 
z
" transform="scale(0.015625)"/>
      <path id="CMR17-6d" d="M 4326 1954 
C 4326 2276 4269 2816 3507 2816 
C 3072 2816 2771 2520 2656 2173 
L 2650 2173 
C 2573 2700 2195 2816 1837 2816 
C 1331 2816 1069 2424 973 2166 
L 966 2166 
L 966 2816 
L 211 2745 
L 211 2578 
C 589 2578 646 2540 646 2231 
L 646 443 
C 646 198 621 166 211 166 
L 211 0 
C 365 12 646 12 813 12 
C 979 12 1267 12 1421 0 
L 1421 166 
C 1011 166 986 192 986 443 
L 986 1678 
C 986 2269 1344 2713 1792 2713 
C 2266 2713 2317 2289 2317 1980 
L 2317 443 
C 2317 198 2291 166 1882 166 
L 1882 0 
C 2035 12 2317 12 2483 12 
C 2650 12 2938 12 3091 0 
L 3091 166 
C 2682 166 2656 192 2656 443 
L 2656 1678 
C 2656 2269 3014 2713 3462 2713 
C 3936 2713 3987 2289 3987 1980 
L 3987 443 
C 3987 198 3962 166 3552 166 
L 3552 0 
C 3706 12 3987 12 4154 12 
C 4320 12 4608 12 4762 0 
L 4762 166 
C 4352 166 4326 192 4326 443 
L 4326 1954 
z
" transform="scale(0.015625)"/>
      <path id="CMMI12-53" d="M 4064 4422 
C 4064 4480 4019 4480 4006 4480 
C 3981 4480 3974 4473 3898 4377 
C 3859 4332 3597 4002 3590 3996 
C 3379 4409 2957 4480 2688 4480 
C 1875 4480 1139 3742 1139 3024 
C 1139 2547 1427 2268 1741 2160 
C 1811 2134 2189 2033 2381 1988 
C 2707 1899 2790 1874 2925 1734 
C 2950 1702 3078 1556 3078 1258 
C 3078 667 2528 57 1888 57 
C 1363 57 781 279 781 991 
C 781 1112 806 1264 826 1328 
C 826 1347 832 1378 832 1391 
C 832 1417 819 1448 768 1448 
C 710 1448 704 1436 678 1328 
L 352 25 
C 352 19 326 -64 326 -71 
C 326 -128 378 -128 390 -128 
C 416 -128 422 -122 499 -26 
L 794 356 
C 947 127 1280 -128 1875 -128 
C 2701 -128 3456 667 3456 1461 
C 3456 1728 3392 1963 3149 2198 
C 3014 2331 2899 2363 2310 2516 
C 1882 2630 1824 2649 1709 2751 
C 1600 2859 1517 3011 1517 3227 
C 1517 3761 2061 4307 2669 4307 
C 3296 4307 3590 3926 3590 3322 
C 3590 3157 3558 2986 3558 2960 
C 3558 2903 3610 2903 3629 2903 
C 3686 2903 3693 2922 3718 3024 
L 4064 4422 
z
" transform="scale(0.015625)"/>
     </defs>
     <use xlink:href="#CMR17-53" transform="scale(0.996264)"/>
     <use xlink:href="#CMR17-70" transform="translate(50.89537 0) scale(0.996264)"/>
     <use xlink:href="#CMR17-65" transform="translate(104.393178 0) scale(0.996264)"/>
     <use xlink:href="#CMR17-63" transform="translate(144.878839 0) scale(0.996264)"/>
     <use xlink:href="#CMR17-74" transform="translate(185.364499 0) scale(0.996264)"/>
     <use xlink:href="#CMR17-72" transform="translate(220.645267 0) scale(0.996264)"/>
     <use xlink:href="#CMR17-61" transform="translate(255.926035 0) scale(0.996264)"/>
     <use xlink:href="#CMR17-6c" transform="translate(301.616512 0) scale(0.996264)"/>
     <use xlink:href="#CMR17-44" transform="translate(356.563537 0) scale(0.996264)"/>
     <use xlink:href="#CMR17-65" transform="translate(426.957093 0) scale(0.996264)"/>
     <use xlink:href="#CMR17-6e" transform="translate(467.442753 0) scale(0.996264)"/>
     <use xlink:href="#CMR17-73" transform="translate(518.338123 0) scale(0.996264)"/>
     <use xlink:href="#CMR17-69" transform="translate(554.139461 0) scale(0.996264)"/>
     <use xlink:href="#CMR17-74" transform="translate(579.010519 0) scale(0.996264)"/>
     <use xlink:href="#CMR17-79" transform="translate(611.688833 0) scale(0.996264)"/>
     <use xlink:href="#CMMI12-4a" transform="translate(690.057715 0) scale(0.996264)"/>
     <use xlink:href="#CMR17-61" transform="translate(783.276352 0) scale(0.996264)"/>
     <use xlink:href="#CMR17-6e" transform="translate(828.966829 0) scale(0.996264)"/>
     <use xlink:href="#CMR17-64" transform="translate(879.862199 0) scale(0.996264)"/>
     <use xlink:href="#CMR17-50" transform="translate(960.833535 0) scale(0.996264)"/>
     <use xlink:href="#CMR17-6f" transform="translate(1020.817382 0) scale(0.996264)"/>
     <use xlink:href="#CMR17-77" transform="translate(1063.905405 0) scale(0.996264)"/>
     <use xlink:href="#CMR17-65" transform="translate(1127.812831 0) scale(0.996264)"/>
     <use xlink:href="#CMR17-72" transform="translate(1168.298492 0) scale(0.996264)"/>
     <use xlink:href="#CMR17-53" transform="translate(1233.655226 0) scale(0.996264)"/>
     <use xlink:href="#CMR17-70" transform="translate(1284.550596 0) scale(0.996264)"/>
     <use xlink:href="#CMR17-65" transform="translate(1338.048404 0) scale(0.996264)"/>
     <use xlink:href="#CMR17-63" transform="translate(1378.534065 0) scale(0.996264)"/>
     <use xlink:href="#CMR17-74" transform="translate(1419.019725 0) scale(0.996264)"/>
     <use xlink:href="#CMR17-72" transform="translate(1454.300493 0) scale(0.996264)"/>
     <use xlink:href="#CMR17-75" transform="translate(1489.581261 0) scale(0.996264)"/>
     <use xlink:href="#CMR17-6d" transform="translate(1540.476631 0) scale(0.996264)"/>
     <use xlink:href="#CMMI12-53" transform="translate(1647.472187 0) scale(0.996264)"/>
    </g>
   </g>
   <g id="legend_1">
    <g id="patch_7">
     <path d="M 549.670905 218.148465 
L 670 218.148465 
Q 674 218.148465 674 214.148465 
L 674 96.585802 
Q 674 92.585802 670 92.585802 
L 549.670905 92.585802 
Q 545.670905 92.585802 545.670905 96.585802 
L 545.670905 214.148465 
Q 545.670905 218.148465 549.670905 218.148465 
L 549.670905 218.148465 
z
" style="fill: none; opacity: 0.8; stroke: #cccccc; stroke-linejoin: miter"/>
    </g>
    <g id="line2d_14">
     <path d="M 553.670905 108.511824 
L 573.670905 108.511824 
L 593.670905 108.511824 
" style="fill: none; stroke: #2ca02c; stroke-width: 1.5; stroke-linecap: square"/>
    </g>
    <g id="text_13">
     <!-- $J(\omega)$ p -->
     <g transform="translate(609.670905 115.511824) scale(0.2 -0.2)">
      <use xlink:href="#CMMI12-4a" transform="scale(0.996264)"/>
      <use xlink:href="#CMR17-28" transform="translate(63.142671 0) scale(0.996264)"/>
      <use xlink:href="#CMMI12-21" transform="translate(98.423438 0) scale(0.996264)"/>
      <use xlink:href="#CMR17-29" transform="translate(162.741784 0) scale(0.996264)"/>
      <use xlink:href="#CMR17-70" transform="translate(228.098518 0) scale(0.996264)"/>
     </g>
    </g>
    <g id="line2d_15">
     <path d="M 553.670905 138.40249 
L 573.670905 138.40249 
L 593.670905 138.40249 
" style="fill: none; stroke-dasharray: 5.55,2.4; stroke-dashoffset: 0; stroke: #d62728; stroke-width: 1.5"/>
    </g>
    <g id="text_14">
     <!-- $S(\omega)$ p -->
     <g transform="translate(609.670905 145.40249) scale(0.2 -0.2)">
      <use xlink:href="#CMMI12-53" transform="scale(0.996264)"/>
      <use xlink:href="#CMR17-28" transform="translate(65.794439 0) scale(0.996264)"/>
      <use xlink:href="#CMMI12-21" transform="translate(101.075207 0) scale(0.996264)"/>
      <use xlink:href="#CMR17-29" transform="translate(165.393553 0) scale(0.996264)"/>
      <use xlink:href="#CMR17-70" transform="translate(230.750287 0) scale(0.996264)"/>
     </g>
    </g>
    <g id="line2d_16">
     <path d="M 553.670905 168.293155 
L 573.670905 168.293155 
L 593.670905 168.293155 
" style="fill: none; stroke: #1f77b4; stroke-width: 1.5; stroke-linecap: square"/>
    </g>
    <g id="text_15">
     <!-- $J(\omega)$ q -->
     <g transform="translate(609.670905 175.293155) scale(0.2 -0.2)">
      <defs>
       <path id="CMR17-71" d="M 2630 2816 
L 2528 2816 
L 2336 2177 
C 2189 2519 1920 2816 1491 2816 
C 838 2816 211 2228 211 1376 
C 211 529 800 -64 1440 -64 
C 1933 -64 2208 316 2291 458 
L 2291 -834 
C 2291 -1081 2266 -1114 1856 -1114 
L 1856 -1280 
C 2010 -1268 2291 -1268 2458 -1268 
C 2624 -1268 2912 -1268 3066 -1280 
L 3066 -1114 
C 2656 -1114 2630 -1088 2630 -834 
L 2630 2816 
z
M 2304 871 
C 2304 594 2074 335 2054 316 
C 1856 90 1626 38 1472 38 
C 992 38 621 652 621 1369 
C 621 2125 1043 2700 1536 2700 
C 2048 2700 2304 2112 2304 1776 
L 2304 871 
z
" transform="scale(0.015625)"/>
      </defs>
      <use xlink:href="#CMMI12-4a" transform="scale(0.996264)"/>
      <use xlink:href="#CMR17-28" transform="translate(63.142671 0) scale(0.996264)"/>
      <use xlink:href="#CMMI12-21" transform="translate(98.423438 0) scale(0.996264)"/>
      <use xlink:href="#CMR17-29" transform="translate(162.741784 0) scale(0.996264)"/>
      <use xlink:href="#CMR17-71" transform="translate(228.098518 0) scale(0.996264)"/>
     </g>
    </g>
    <g id="line2d_17">
     <path d="M 553.670905 198.183821 
L 573.670905 198.183821 
L 593.670905 198.183821 
" style="fill: none; stroke-dasharray: 5.55,2.4; stroke-dashoffset: 0; stroke: #ff7f0e; stroke-width: 1.5"/>
    </g>
    <g id="text_16">
     <!-- $S(\omega)$ q -->
     <g transform="translate(609.670905 205.183821) scale(0.2 -0.2)">
      <use xlink:href="#CMMI12-53" transform="scale(0.996264)"/>
      <use xlink:href="#CMR17-28" transform="translate(65.794439 0) scale(0.996264)"/>
      <use xlink:href="#CMMI12-21" transform="translate(101.075207 0) scale(0.996264)"/>
      <use xlink:href="#CMR17-29" transform="translate(165.393553 0) scale(0.996264)"/>
      <use xlink:href="#CMR17-71" transform="translate(230.750287 0) scale(0.996264)"/>
     </g>
    </g>
   </g>
  </g>
  <g id="axes_2">
   <g id="patch_8">
    <path d="M 77.318394 503.654739 
L 684 503.654739 
L 684 338.157724 
L 77.318394 338.157724 
L 77.318394 503.654739 
z
" style="fill: none"/>
   </g>
   <g id="matplotlib.axis_3">
    <g id="xtick_7">
     <g id="line2d_18">
      <g>
       <use xlink:href="#m066404ccb2" x="158.619328" y="503.654739" style="stroke: #000000; stroke-width: 0.8"/>
      </g>
     </g>
     <g id="text_17">
      <!-- $\mathdefault{−20}$ -->
      <g transform="translate(141.732489 524.491736) scale(0.2 -0.2)">
       <defs>
        <path id="CMSY10-0" d="M 4218 1472 
C 4326 1472 4442 1472 4442 1600 
C 4442 1728 4326 1728 4218 1728 
L 755 1728 
C 646 1728 531 1728 531 1600 
C 531 1472 646 1472 755 1472 
L 4218 1472 
z
" transform="scale(0.015625)"/>
       </defs>
       <use xlink:href="#CMSY10-0" transform="scale(0.996264)"/>
       <use xlink:href="#CMR17-32" transform="translate(77.487468 0) scale(0.996264)"/>
       <use xlink:href="#CMR17-30" transform="translate(123.177945 0) scale(0.996264)"/>
      </g>
     </g>
    </g>
    <g id="xtick_8">
     <g id="line2d_19">
      <g>
       <use xlink:href="#m066404ccb2" x="269.242492" y="503.654739" style="stroke: #000000; stroke-width: 0.8"/>
      </g>
     </g>
     <g id="text_18">
      <!-- $\mathdefault{−10}$ -->
      <g transform="translate(252.355652 524.491736) scale(0.2 -0.2)">
       <use xlink:href="#CMSY10-0" transform="scale(0.996264)"/>
       <use xlink:href="#CMR17-31" transform="translate(77.487468 0) scale(0.996264)"/>
       <use xlink:href="#CMR17-30" transform="translate(123.177945 0) scale(0.996264)"/>
      </g>
     </g>
    </g>
    <g id="xtick_9">
     <g id="line2d_20">
      <g>
       <use xlink:href="#m066404ccb2" x="379.865655" y="503.654739" style="stroke: #000000; stroke-width: 0.8"/>
      </g>
     </g>
     <g id="text_19">
      <!-- $\mathdefault{0}$ -->
      <g transform="translate(375.296607 524.491736) scale(0.2 -0.2)">
       <use xlink:href="#CMR17-30" transform="scale(0.996264)"/>
      </g>
     </g>
    </g>
    <g id="xtick_10">
     <g id="line2d_21">
      <g>
       <use xlink:href="#m066404ccb2" x="490.488818" y="503.654739" style="stroke: #000000; stroke-width: 0.8"/>
      </g>
     </g>
     <g id="text_20">
      <!-- $\mathdefault{10}$ -->
      <g transform="translate(481.350723 524.491736) scale(0.2 -0.2)">
       <use xlink:href="#CMR17-31" transform="scale(0.996264)"/>
       <use xlink:href="#CMR17-30" transform="translate(45.690477 0) scale(0.996264)"/>
      </g>
     </g>
    </g>
    <g id="xtick_11">
     <g id="line2d_22">
      <g>
       <use xlink:href="#m066404ccb2" x="601.111982" y="503.654739" style="stroke: #000000; stroke-width: 0.8"/>
      </g>
     </g>
     <g id="text_21">
      <!-- $\mathdefault{20}$ -->
      <g transform="translate(591.973886 524.491736) scale(0.2 -0.2)">
       <use xlink:href="#CMR17-32" transform="scale(0.996264)"/>
       <use xlink:href="#CMR17-30" transform="translate(45.690477 0) scale(0.996264)"/>
      </g>
     </g>
    </g>
    <g id="text_22">
     <!-- Time $t \tilde{\omega}_{\text{c}}$ -->
     <g transform="translate(344.141118 546.204366) scale(0.2 -0.2)">
      <defs>
       <path id="CMR17-54" d="M 3981 4332 
L 288 4332 
L 179 2924 
L 294 2924 
C 378 3981 467 4166 1453 4166 
C 1568 4166 1754 4166 1805 4159 
C 1926 4140 1926 4064 1926 3917 
L 1926 465 
C 1926 236 1907 166 1376 166 
L 1197 166 
L 1197 0 
C 1504 6 1824 12 2138 12 
C 2451 12 2771 6 3078 0 
L 3078 166 
L 2899 166 
C 2368 166 2349 236 2349 465 
L 2349 3917 
C 2349 4057 2349 4134 2464 4159 
C 2515 4166 2701 4166 2816 4166 
C 3795 4166 3891 3981 3974 2924 
L 4090 2924 
L 3981 4332 
z
" transform="scale(0.015625)"/>
       <path id="CMMI12-74" d="M 1286 2566 
L 1875 2566 
C 1997 2566 2061 2566 2061 2681 
C 2061 2752 2022 2752 1894 2752 
L 1331 2752 
L 1568 3664 
C 1594 3752 1594 3764 1594 3808 
C 1594 3910 1510 3968 1427 3968 
C 1376 3968 1229 3948 1178 3746 
L 928 2752 
L 326 2752 
C 198 2752 141 2752 141 2630 
C 141 2566 186 2566 307 2566 
L 877 2566 
L 454 881 
C 403 657 384 593 384 510 
C 384 210 595 -64 954 -64 
C 1600 -64 1946 868 1946 913 
C 1946 951 1920 970 1882 970 
C 1869 970 1843 970 1830 944 
C 1824 938 1818 932 1773 830 
C 1638 510 1344 64 973 64 
C 781 64 768 223 768 364 
C 768 370 768 491 787 568 
L 1286 2566 
z
" transform="scale(0.015625)"/>
      </defs>
      <use xlink:href="#CMR17-54" transform="scale(0.996264)"/>
      <use xlink:href="#CMR17-69" transform="translate(66.509881 0) scale(0.996264)"/>
      <use xlink:href="#CMR17-6d" transform="translate(91.380939 0) scale(0.996264)"/>
      <use xlink:href="#CMR17-65" transform="translate(168.300529 0) scale(0.996264)"/>
      <use xlink:href="#CMMI12-74" transform="translate(238.862156 0) scale(0.996264)"/>
      <use xlink:href="#CMR17-7e" transform="translate(283.40242 0.006461) scale(0.996264)"/>
      <use xlink:href="#CMMI12-21" transform="translate(274.088486 0) scale(0.996264)"/>
      <use xlink:href="#CMR17-63" transform="translate(334.832239 -14.943915) scale(0.697382)"/>
     </g>
    </g>
   </g>
   <g id="matplotlib.axis_4">
    <g id="ytick_4">
     <g id="line2d_23">
      <g>
       <use xlink:href="#m3e10cb5064" x="77.318394" y="493.985561" style="stroke: #000000; stroke-width: 0.8"/>
      </g>
     </g>
     <g id="text_23">
      <!-- $\mathdefault{−0.5}$ -->
      <g transform="translate(31.12528 500.90406) scale(0.2 -0.2)">
       <use xlink:href="#CMSY10-0" transform="scale(0.996264)"/>
       <use xlink:href="#CMR17-30" transform="translate(77.487468 0) scale(0.996264)"/>
       <use xlink:href="#CMMI12-3a" transform="translate(123.177945 0) scale(0.996264)"/>
       <use xlink:href="#CMR17-35" transform="translate(150.275122 0) scale(0.996264)"/>
      </g>
     </g>
    </g>
    <g id="ytick_5">
     <g id="line2d_24">
      <g>
       <use xlink:href="#m3e10cb5064" x="77.318394" y="444.550479" style="stroke: #000000; stroke-width: 0.8"/>
      </g>
     </g>
     <g id="text_24">
      <!-- $\mathdefault{0.0}$ -->
      <g transform="translate(46.622768 451.468978) scale(0.2 -0.2)">
       <use xlink:href="#CMR17-30" transform="scale(0.996264)"/>
       <use xlink:href="#CMMI12-3a" transform="translate(45.690477 0) scale(0.996264)"/>
       <use xlink:href="#CMR17-30" transform="translate(72.787654 0) scale(0.996264)"/>
      </g>
     </g>
    </g>
    <g id="ytick_6">
     <g id="line2d_25">
      <g>
       <use xlink:href="#m3e10cb5064" x="77.318394" y="395.115398" style="stroke: #000000; stroke-width: 0.8"/>
      </g>
     </g>
     <g id="text_25">
      <!-- $\mathdefault{0.5}$ -->
      <g transform="translate(46.622768 402.033896) scale(0.2 -0.2)">
       <use xlink:href="#CMR17-30" transform="scale(0.996264)"/>
       <use xlink:href="#CMMI12-3a" transform="translate(45.690477 0) scale(0.996264)"/>
       <use xlink:href="#CMR17-35" transform="translate(72.787654 0) scale(0.996264)"/>
      </g>
     </g>
    </g>
    <g id="ytick_7">
     <g id="line2d_26">
      <g>
       <use xlink:href="#m3e10cb5064" x="77.318394" y="345.680316" style="stroke: #000000; stroke-width: 0.8"/>
      </g>
     </g>
     <g id="text_26">
      <!-- $\mathdefault{1.0}$ -->
      <g transform="translate(46.622768 352.598814) scale(0.2 -0.2)">
       <use xlink:href="#CMR17-31" transform="scale(0.996264)"/>
       <use xlink:href="#CMMI12-3a" transform="translate(45.690477 0) scale(0.996264)"/>
       <use xlink:href="#CMR17-30" transform="translate(72.787654 0) scale(0.996264)"/>
      </g>
     </g>
    </g>
    <g id="text_27">
     <!-- $f / \text{max}|C|$ -->
     <g transform="translate(22.14396 461.975542) rotate(-90) scale(0.2 -0.2)">
      <defs>
       <path id="CMR17-78" d="M 1664 1491 
C 1856 1740 2074 2022 2253 2233 
C 2464 2476 2707 2579 2989 2585 
L 2989 2752 
C 2880 2745 2656 2739 2541 2739 
C 2368 2739 2170 2739 2022 2752 
L 2022 2585 
C 2112 2572 2163 2508 2163 2419 
C 2163 2304 2099 2233 2067 2188 
L 1594 1587 
L 1030 2323 
C 973 2393 973 2406 973 2438 
C 973 2515 1037 2579 1146 2585 
L 1146 2752 
C 992 2739 717 2739 557 2739 
C 384 2739 179 2739 38 2752 
L 38 2585 
C 384 2585 461 2560 614 2368 
L 1350 1414 
C 1363 1401 1395 1363 1395 1344 
C 1395 1318 838 633 768 544 
C 480 198 179 172 6 166 
L 6 0 
C 115 6 339 12 454 12 
C 582 12 864 12 979 0 
L 979 166 
C 941 172 838 185 838 332 
C 838 448 890 518 947 595 
L 1478 1248 
L 2035 524 
C 2086 454 2163 358 2163 313 
C 2163 224 2086 172 1984 166 
L 1984 0 
C 2138 12 2413 12 2573 12 
C 2746 12 2950 12 3091 0 
L 3091 166 
C 2771 166 2675 179 2522 377 
L 1664 1491 
z
" transform="scale(0.015625)"/>
       <path id="CMSY10-6a" d="M 1018 4569 
C 1018 4684 1018 4800 890 4800 
C 762 4800 762 4684 762 4569 
L 762 -1370 
C 762 -1485 762 -1600 890 -1600 
C 1018 -1600 1018 -1485 1018 -1370 
L 1018 4569 
z
" transform="scale(0.015625)"/>
       <path id="CMMI12-43" d="M 4781 4422 
C 4781 4480 4736 4480 4723 4480 
C 4710 4480 4685 4480 4634 4415 
L 4192 3881 
C 3968 4262 3616 4480 3136 4480 
C 1754 4480 320 3087 320 1594 
C 320 533 1069 -128 2003 -128 
C 2515 -128 2963 89 3334 400 
C 3891 864 4058 1480 4058 1531 
C 4058 1588 4006 1588 3987 1588 
C 3930 1588 3923 1550 3910 1524 
C 3616 533 2752 57 2112 57 
C 1434 57 845 489 845 1391 
C 845 1594 909 2699 1632 3531 
C 1984 3938 2586 4294 3194 4294 
C 3898 4294 4211 3716 4211 3068 
C 4211 2903 4192 2763 4192 2737 
C 4192 2680 4256 2680 4275 2680 
C 4346 2680 4352 2687 4378 2801 
L 4781 4422 
z
" transform="scale(0.015625)"/>
      </defs>
      <use xlink:href="#CMMI12-66" transform="scale(0.996264)"/>
      <use xlink:href="#CMMI12-3d" transform="translate(58.720305 0) scale(0.996264)"/>
      <use xlink:href="#CMR17-6d" transform="translate(107.495224 0) scale(0.996264)"/>
      <use xlink:href="#CMR17-61" transform="translate(184.414813 0) scale(0.996264)"/>
      <use xlink:href="#CMR17-78" transform="translate(230.105291 0) scale(0.996264)"/>
      <use xlink:href="#CMSY10-6a" transform="translate(278.398206 0) scale(0.996264)"/>
      <use xlink:href="#CMMI12-43" transform="translate(306.072291 0) scale(0.996264)"/>
      <use xlink:href="#CMSY10-6a" transform="translate(383.019138 0) scale(0.996264)"/>
     </g>
    </g>
   </g>
   <g id="line2d_27">
    <path d="M 104.894831 443.754233 
L 246.546467 443.597179 
L 288.208713 443.368073 
L 310.428578 443.045531 
L 324.315993 442.619717 
L 332.648443 442.165417 
L 338.203409 441.699748 
L 343.758375 441.002967 
L 346.535858 440.516936 
L 349.313341 439.892426 
L 352.090824 439.071428 
L 354.868307 437.96226 
L 357.64579 436.41381 
L 360.423273 434.165714 
L 363.200757 430.751364 
L 365.97824 425.319671 
L 368.755723 416.380051 
L 371.533206 401.782876 
L 374.310689 380.290705 
L 377.088172 356.78144 
L 379.865655 345.680316 
L 382.643138 356.78144 
L 385.420621 380.290705 
L 388.198104 401.782876 
L 390.975587 416.380051 
L 393.75307 425.319671 
L 396.530553 430.751364 
L 399.308036 434.165714 
L 402.08552 436.41381 
L 404.863003 437.96226 
L 407.640486 439.071428 
L 410.417969 439.892426 
L 413.195452 440.516936 
L 418.750418 441.388621 
L 424.305384 441.954382 
L 432.637833 442.491933 
L 443.747766 442.908154 
L 460.412664 443.239957 
L 485.410012 443.474882 
L 532.627224 443.646122 
L 638.171581 443.747807 
L 654.836479 443.754233 
L 654.836479 443.754233 
" clip-path="url(#p51c69df13c)" style="fill: none; stroke-dasharray: 1.5,2.475; stroke-dashoffset: 0; stroke: #1f77b4; stroke-width: 1.5"/>
   </g>
   <g id="line2d_28">
    <path d="M 104.894831 446.871767 
L 157.667009 447.456233 
L 196.551772 448.096285 
L 227.104086 448.823298 
L 249.32395 449.562568 
L 265.988849 450.30395 
L 279.876264 451.108321 
L 290.986197 451.930659 
L 302.096129 452.984923 
L 310.428578 453.993803 
L 318.761027 455.273073 
L 324.315993 456.334785 
L 329.87096 457.626608 
L 335.425926 459.2315 
L 338.203409 460.188667 
L 340.980892 461.276816 
L 343.758375 462.52416 
L 346.535858 463.967318 
L 349.313341 465.654455 
L 352.090824 467.649697 
L 354.868307 470.039029 
L 357.64579 472.937041 
L 360.423273 476.48998 
L 363.200757 480.856656 
L 365.97824 486.103629 
L 368.755723 491.829501 
L 371.533206 496.132148 
L 374.310689 493.835397 
L 377.088172 476.972265 
L 382.643138 412.128694 
L 385.420621 395.265561 
L 388.198104 392.968811 
L 390.975587 397.271458 
L 393.75307 402.99733 
L 396.530553 408.244303 
L 399.308036 412.610979 
L 402.08552 416.163918 
L 404.863003 419.061929 
L 407.640486 421.451262 
L 410.417969 423.446503 
L 413.195452 425.133641 
L 415.972935 426.576799 
L 418.750418 427.824143 
L 421.527901 428.912291 
L 427.082867 430.717672 
L 432.637833 432.153428 
L 438.1928 433.321796 
L 443.747766 434.290753 
L 452.080215 435.46895 
L 460.412664 436.406529 
L 471.522596 437.394367 
L 485.410012 438.339524 
L 502.07491 439.192709 
L 521.517292 439.93668 
L 546.514639 440.640698 
L 577.066953 441.261689 
L 615.951716 441.823175 
L 654.836479 442.229192 
L 654.836479 442.229192 
" clip-path="url(#p51c69df13c)" style="fill: none; stroke-dasharray: 5.55,2.4; stroke-dashoffset: 0; stroke: #ff7f0e; stroke-width: 1.5"/>
   </g>
   <g id="line2d_29">
    <path d="M 104.894831 442.096425 
L 157.667009 441.530727 
L 196.551772 440.902678 
L 224.326603 440.260176 
L 246.546467 439.552362 
L 265.988849 438.705645 
L 279.876264 437.898857 
L 290.986197 437.071768 
L 302.096129 436.008455 
L 310.428578 434.987989 
L 318.761027 433.689941 
L 324.315993 432.609052 
L 329.87096 431.289207 
L 335.425926 429.641687 
L 338.203409 428.654581 
L 340.980892 427.527915 
L 343.758375 426.230052 
L 346.535858 424.719113 
L 349.313341 422.938555 
L 352.090824 420.810347 
L 354.868307 418.224241 
L 357.64579 415.020795 
L 360.423273 410.96514 
L 363.200757 405.710371 
L 365.97824 398.763055 
L 368.755723 389.515227 
L 371.533206 377.544984 
L 374.310689 363.567013 
L 377.088172 350.984586 
L 379.865655 345.680316 
L 382.643138 350.984586 
L 385.420621 363.567013 
L 388.198104 377.544984 
L 390.975587 389.515227 
L 393.75307 398.763055 
L 396.530553 405.710371 
L 399.308036 410.96514 
L 402.08552 415.020795 
L 404.863003 418.224241 
L 407.640486 420.810347 
L 410.417969 422.938555 
L 413.195452 424.719113 
L 415.972935 426.230052 
L 418.750418 427.527915 
L 421.527901 428.654581 
L 427.082867 430.513561 
L 432.637833 431.983678 
L 438.1928 433.175128 
L 443.747766 434.160137 
L 452.080215 435.354262 
L 460.412664 436.301759 
L 471.522596 437.29734 
L 482.632529 438.077676 
L 496.519944 438.843922 
L 513.184843 439.552362 
L 535.404707 440.260176 
L 563.179538 440.902678 
L 599.286818 441.493313 
L 646.50403 442.022196 
L 654.836479 442.096425 
L 654.836479 442.096425 
" clip-path="url(#p51c69df13c)" style="fill: none; stroke: #8c564b; stroke-width: 1.5; stroke-linecap: square"/>
   </g>
   <g id="line2d_30">
    <path d="M 379.865655 345.680316 
L 380.14249 345.784547 
L 380.419324 346.089573 
L 380.972994 347.255988 
L 381.526663 349.087526 
L 382.357168 352.880614 
L 383.464507 359.407039 
L 385.125515 370.925986 
L 387.340193 386.200383 
L 388.724367 394.242301 
L 390.10854 401.05647 
L 391.492714 406.750314 
L 392.876888 411.478104 
L 394.261062 415.410454 
L 395.645235 418.699844 
L 397.029409 421.473403 
L 398.690417 424.282192 
L 400.351426 426.631369 
L 402.012434 428.607713 
L 403.950278 430.539562 
L 405.888121 432.162668 
L 408.102799 433.710909 
L 410.317477 434.992643 
L 413.085824 436.314656 
L 415.854172 437.389737 
L 419.176188 438.429067 
L 422.77504 439.328154 
L 427.204396 440.191146 
L 432.187421 440.932846 
L 438.277786 441.612763 
L 446.029159 442.235652 
L 455.718375 442.773798 
L 468.175938 443.229681 
L 484.786023 443.609712 
L 509.424315 443.931079 
L 546.52017 444.176085 
L 611.85317 444.358391 
L 656.423563 444.416367 
L 656.423563 444.416367 
" clip-path="url(#p51c69df13c)" style="fill: none; stroke-dasharray: 1.5,2.475; stroke-dashoffset: 0; stroke: #2ca02c; stroke-width: 1.5"/>
   </g>
   <g id="line2d_31">
    <path d="M 379.865655 444.550479 
L 381.803498 458.575009 
L 382.910837 465.040875 
L 383.741341 468.586386 
L 384.295011 470.260606 
L 384.84868 471.440237 
L 385.40235 472.179195 
L 385.956019 472.531397 
L 386.509689 472.550759 
L 387.063358 472.29094 
L 387.617028 471.798636 
L 388.447532 470.709646 
L 389.554871 468.806484 
L 394.537896 459.591128 
L 396.198905 457.168569 
L 397.859913 455.127785 
L 399.520922 453.4283 
L 401.18193 452.035599 
L 403.119773 450.737373 
L 405.334451 449.563885 
L 407.549129 448.641908 
L 410.040642 447.860476 
L 413.362659 447.077632 
L 416.684676 446.522478 
L 421.667701 445.943753 
L 427.758066 445.506636 
L 435.232604 445.183874 
L 446.305993 444.930824 
L 462.916078 444.745101 
L 494.475239 444.628585 
L 568.390115 444.567238 
L 656.423563 444.555552 
L 656.423563 444.555552 
" clip-path="url(#p51c69df13c)" style="fill: none; stroke-dasharray: 5.55,2.4; stroke-dashoffset: 0; stroke: #d62728; stroke-width: 1.5"/>
   </g>
   <g id="line2d_32">
    <path d="M 379.865655 345.680316 
L 380.14249 345.762281 
L 380.696159 346.385037 
L 381.249829 347.551063 
L 382.080333 350.161467 
L 382.910837 353.633219 
L 384.018176 359.364857 
L 385.679185 369.546317 
L 388.170697 384.933869 
L 389.831706 393.885267 
L 391.215879 400.363961 
L 392.600053 405.938965 
L 393.984227 410.692323 
L 395.368401 414.714939 
L 396.752574 418.124174 
L 398.413583 421.570703 
L 400.074591 424.438448 
L 401.7356 426.824692 
L 403.396608 428.823268 
L 405.334451 430.781369 
L 407.272295 432.417173 
L 409.210138 433.780578 
L 411.424816 435.080652 
L 413.916328 436.298582 
L 416.684676 437.394545 
L 420.006693 438.452698 
L 423.605544 439.358111 
L 428.0349 440.226641 
L 433.017926 440.966073 
L 438.831455 441.615574 
L 446.305993 442.222913 
L 455.718375 442.755667 
L 467.899103 443.211002 
L 483.955518 443.589727 
L 507.486472 443.909695 
L 544.859162 444.167556 
L 605.209136 444.346403 
L 656.423563 444.416271 
L 656.423563 444.416271 
" clip-path="url(#p51c69df13c)" style="fill: none; stroke: #9467bd; stroke-width: 1.5; stroke-linecap: square"/>
   </g>
   <g id="patch_9">
    <path d="M 77.318394 503.654739 
L 77.318394 338.157724 
" style="fill: none; stroke: #000000; stroke-width: 0.8; stroke-linejoin: miter; stroke-linecap: square"/>
   </g>
   <g id="patch_10">
    <path d="M 684 503.654739 
L 684 338.157724 
" style="fill: none; stroke: #000000; stroke-width: 0.8; stroke-linejoin: miter; stroke-linecap: square"/>
   </g>
   <g id="patch_11">
    <path d="M 77.318394 503.654739 
L 684 503.654739 
" style="fill: none; stroke: #000000; stroke-width: 0.8; stroke-linejoin: miter; stroke-linecap: square"/>
   </g>
   <g id="patch_12">
    <path d="M 77.318394 338.157724 
L 684 338.157724 
" style="fill: none; stroke: #000000; stroke-width: 0.8; stroke-linejoin: miter; stroke-linecap: square"/>
   </g>
   <g id="text_28">
    <!-- Correlation Function $ C $ -->
    <g transform="translate(287.491106 332.157724) scale(0.2 -0.2)">
     <defs>
      <path id="CMR17-43" d="M 3974 4351 
C 3974 4467 3968 4473 3930 4473 
C 3904 4473 3898 4467 3853 4390 
L 3571 3849 
C 3258 4249 2874 4480 2381 4480 
C 1286 4480 294 3507 294 2179 
C 294 837 1286 -128 2387 -128 
C 3366 -128 3974 741 3974 1482 
C 3974 1547 3974 1573 3917 1573 
C 3866 1573 3866 1553 3859 1495 
C 3808 592 3168 38 2477 38 
C 1824 38 781 502 781 2179 
C 781 3862 1843 4313 2464 4313 
C 3187 4313 3712 3681 3834 2785 
C 3846 2707 3846 2695 3904 2695 
C 3974 2695 3974 2707 3974 2824 
L 3974 4351 
z
" transform="scale(0.015625)"/>
      <path id="CMR17-46" d="M 3482 4339 
L 326 4339 
L 326 4172 
C 768 4172 838 4172 838 3883 
L 838 450 
C 838 166 768 166 326 166 
L 326 0 
C 512 12 870 12 1069 12 
C 1331 12 1638 12 1901 0 
L 1901 166 
L 1760 166 
C 1274 166 1261 229 1261 456 
L 1261 2073 
L 1837 2073 
C 2432 2073 2490 1865 2490 1334 
L 2605 1334 
L 2605 2991 
L 2490 2991 
C 2490 2451 2432 2240 1837 2240 
L 1261 2240 
L 1261 3922 
C 1261 4140 1274 4172 1530 4172 
L 2355 4172 
C 3322 4172 3430 3774 3520 2920 
L 3635 2920 
L 3482 4339 
z
" transform="scale(0.015625)"/>
     </defs>
     <use xlink:href="#CMR17-43" transform="scale(0.996264)"/>
     <use xlink:href="#CMR17-6f" transform="translate(66.509881 0) scale(0.996264)"/>
     <use xlink:href="#CMR17-72" transform="translate(112.200358 0) scale(0.996264)"/>
     <use xlink:href="#CMR17-72" transform="translate(147.481125 0) scale(0.996264)"/>
     <use xlink:href="#CMR17-65" transform="translate(182.761893 0) scale(0.996264)"/>
     <use xlink:href="#CMR17-6c" transform="translate(223.247554 0) scale(0.996264)"/>
     <use xlink:href="#CMR17-61" transform="translate(248.118612 0) scale(0.996264)"/>
     <use xlink:href="#CMR17-74" transform="translate(293.809089 0) scale(0.996264)"/>
     <use xlink:href="#CMR17-69" transform="translate(329.089857 0) scale(0.996264)"/>
     <use xlink:href="#CMR17-6f" transform="translate(353.960916 0) scale(0.996264)"/>
     <use xlink:href="#CMR17-6e" transform="translate(399.651393 0) scale(0.996264)"/>
     <use xlink:href="#CMR17-46" transform="translate(480.622729 0) scale(0.996264)"/>
     <use xlink:href="#CMR17-75" transform="translate(532.79932 0) scale(0.996264)"/>
     <use xlink:href="#CMR17-6e" transform="translate(583.69469 0) scale(0.996264)"/>
     <use xlink:href="#CMR17-63" transform="translate(634.59006 0) scale(0.996264)"/>
     <use xlink:href="#CMR17-74" transform="translate(675.07572 0) scale(0.996264)"/>
     <use xlink:href="#CMR17-69" transform="translate(710.356488 0) scale(0.996264)"/>
     <use xlink:href="#CMR17-6f" transform="translate(735.227546 0) scale(0.996264)"/>
     <use xlink:href="#CMR17-6e" transform="translate(780.918023 0) scale(0.996264)"/>
     <use xlink:href="#CMMI12-43" transform="translate(861.88936 0) scale(0.996264)"/>
    </g>
   </g>
   <g id="legend_2">
    <g id="patch_13">
     <path d="M 521.398813 533.570948 
L 670 533.570948 
Q 674 533.570948 674 529.570948 
L 674 352.157724 
Q 674 348.157724 670 348.157724 
L 521.398813 348.157724 
Q 517.398813 348.157724 517.398813 352.157724 
L 517.398813 529.570948 
Q 517.398813 533.570948 521.398813 533.570948 
L 521.398813 533.570948 
z
" style="fill: none; opacity: 0.8; stroke: #cccccc; stroke-linejoin: miter"/>
    </g>
    <g id="line2d_33">
     <path d="M 525.398813 364.083746 
L 545.398813 364.083746 
L 565.398813 364.083746 
" style="fill: none; stroke-dasharray: 1.5,2.475; stroke-dashoffset: 0; stroke: #1f77b4; stroke-width: 1.5"/>
    </g>
    <g id="text_29">
     <!-- $\mathrm{Re}[C(t)]$ p -->
     <g transform="translate(581.398813 371.083746) scale(0.2 -0.2)">
      <defs>
       <path id="CMR17-52" d="M 2509 2156 
C 3117 2278 3629 2689 3629 3203 
C 3629 3806 2950 4352 2054 4352 
L 333 4352 
L 333 4185 
C 774 4185 845 4185 845 3896 
L 845 428 
C 845 140 774 140 333 140 
L 333 -26 
C 518 -13 851 -13 1050 -13 
C 1248 -13 1581 -13 1766 -26 
L 1766 140 
C 1325 140 1254 140 1254 428 
L 1254 2112 
L 2003 2112 
C 2368 2112 2573 1964 2662 1881 
C 2918 1632 2918 1459 2918 1024 
C 2918 595 2918 377 3110 160 
C 3354 -103 3680 -128 3821 -128 
C 4294 -128 4365 403 4365 512 
C 4365 550 4365 595 4307 595 
C 4256 595 4250 556 4250 531 
C 4218 115 4032 -26 3834 -26 
C 3482 -26 3443 377 3405 768 
C 3386 902 3373 998 3360 1139 
C 3322 1459 3270 1926 2509 2156 
z
M 1984 2214 
L 1254 2214 
L 1254 3935 
C 1254 4153 1267 4185 1523 4185 
L 1990 4185 
C 2522 4185 3142 3999 3142 3203 
C 3142 2374 2464 2214 1984 2214 
z
" transform="scale(0.015625)"/>
       <path id="CMR17-5b" d="M 1504 -1600 
L 1504 -1376 
L 902 -1376 
L 902 4575 
L 1504 4575 
L 1504 4800 
L 678 4800 
L 678 -1600 
L 1504 -1600 
z
" transform="scale(0.015625)"/>
       <path id="CMR17-5d" d="M 915 4800 
L 90 4800 
L 90 4575 
L 691 4575 
L 691 -1376 
L 90 -1376 
L 90 -1600 
L 915 -1600 
L 915 4800 
z
" transform="scale(0.015625)"/>
      </defs>
      <use xlink:href="#CMR17-52" transform="scale(0.996264)"/>
      <use xlink:href="#CMR17-65" transform="translate(67.791102 0) scale(0.996264)"/>
      <use xlink:href="#CMR17-5b" transform="translate(108.276762 0) scale(0.996264)"/>
      <use xlink:href="#CMMI12-43" transform="translate(133.147821 0) scale(0.996264)"/>
      <use xlink:href="#CMR17-28" transform="translate(210.094668 0) scale(0.996264)"/>
      <use xlink:href="#CMMI12-74" transform="translate(245.375435 0) scale(0.996264)"/>
      <use xlink:href="#CMR17-29" transform="translate(280.601766 0) scale(0.996264)"/>
      <use xlink:href="#CMR17-5d" transform="translate(315.882533 0) scale(0.996264)"/>
      <use xlink:href="#CMR17-70" transform="translate(370.829558 0) scale(0.996264)"/>
     </g>
    </g>
    <g id="line2d_34">
     <path d="M 525.398813 393.974412 
L 545.398813 393.974412 
L 565.398813 393.974412 
" style="fill: none; stroke-dasharray: 5.55,2.4; stroke-dashoffset: 0; stroke: #ff7f0e; stroke-width: 1.5"/>
    </g>
    <g id="text_30">
     <!-- $\mathrm{Im}[C(t)]$ p -->
     <g transform="translate(581.398813 400.974412) scale(0.2 -0.2)">
      <defs>
       <path id="CMR17-49" d="M 1261 3898 
C 1261 4185 1338 4185 1798 4185 
L 1798 4352 
C 1594 4339 1267 4339 1050 4339 
C 832 4339 506 4339 301 4352 
L 301 4185 
C 762 4185 838 4185 838 3898 
L 838 453 
C 838 166 762 166 301 166 
L 301 0 
C 506 12 832 12 1050 12 
C 1267 12 1594 12 1798 0 
L 1798 166 
C 1338 166 1261 166 1261 453 
L 1261 3898 
z
" transform="scale(0.015625)"/>
      </defs>
      <use xlink:href="#CMR17-49" transform="scale(0.996264)"/>
      <use xlink:href="#CMR17-6d" transform="translate(32.638409 0) scale(0.996264)"/>
      <use xlink:href="#CMR17-5b" transform="translate(109.557999 0) scale(0.996264)"/>
      <use xlink:href="#CMMI12-43" transform="translate(134.429058 0) scale(0.996264)"/>
      <use xlink:href="#CMR17-28" transform="translate(211.375904 0) scale(0.996264)"/>
      <use xlink:href="#CMMI12-74" transform="translate(246.656672 0) scale(0.996264)"/>
      <use xlink:href="#CMR17-29" transform="translate(281.883002 0) scale(0.996264)"/>
      <use xlink:href="#CMR17-5d" transform="translate(317.16377 0) scale(0.996264)"/>
      <use xlink:href="#CMR17-70" transform="translate(372.110795 0) scale(0.996264)"/>
     </g>
    </g>
    <g id="line2d_35">
     <path d="M 525.398813 423.883016 
L 545.398813 423.883016 
L 565.398813 423.883016 
" style="fill: none; stroke: #8c564b; stroke-width: 1.5; stroke-linecap: square"/>
    </g>
    <g id="text_31">
     <!-- $|C(t)|$ p -->
     <g transform="translate(581.398813 430.883016) scale(0.2 -0.2)">
      <use xlink:href="#CMSY10-6a" transform="scale(0.996264)"/>
      <use xlink:href="#CMMI12-43" transform="translate(27.674085 0) scale(0.996264)"/>
      <use xlink:href="#CMR17-28" transform="translate(104.620931 0) scale(0.996264)"/>
      <use xlink:href="#CMMI12-74" transform="translate(139.901699 0) scale(0.996264)"/>
      <use xlink:href="#CMR17-29" transform="translate(175.128029 0) scale(0.996264)"/>
      <use xlink:href="#CMSY10-6a" transform="translate(210.408797 0) scale(0.996264)"/>
      <use xlink:href="#CMR17-70" transform="translate(268.158848 0) scale(0.996264)"/>
     </g>
    </g>
    <g id="line2d_36">
     <path d="M 525.398813 453.790358 
L 545.398813 453.790358 
L 565.398813 453.790358 
" style="fill: none; stroke-dasharray: 1.5,2.475; stroke-dashoffset: 0; stroke: #2ca02c; stroke-width: 1.5"/>
    </g>
    <g id="text_32">
     <!-- $\mathrm{Re}[C(t)]$ q -->
     <g transform="translate(581.398813 460.790358) scale(0.2 -0.2)">
      <use xlink:href="#CMR17-52" transform="scale(0.996264)"/>
      <use xlink:href="#CMR17-65" transform="translate(67.791102 0) scale(0.996264)"/>
      <use xlink:href="#CMR17-5b" transform="translate(108.276762 0) scale(0.996264)"/>
      <use xlink:href="#CMMI12-43" transform="translate(133.147821 0) scale(0.996264)"/>
      <use xlink:href="#CMR17-28" transform="translate(210.094668 0) scale(0.996264)"/>
      <use xlink:href="#CMMI12-74" transform="translate(245.375435 0) scale(0.996264)"/>
      <use xlink:href="#CMR17-29" transform="translate(280.601766 0) scale(0.996264)"/>
      <use xlink:href="#CMR17-5d" transform="translate(315.882533 0) scale(0.996264)"/>
      <use xlink:href="#CMR17-71" transform="translate(370.829558 0) scale(0.996264)"/>
     </g>
    </g>
    <g id="line2d_37">
     <path d="M 525.398813 483.681024 
L 545.398813 483.681024 
L 565.398813 483.681024 
" style="fill: none; stroke-dasharray: 5.55,2.4; stroke-dashoffset: 0; stroke: #d62728; stroke-width: 1.5"/>
    </g>
    <g id="text_33">
     <!-- $\mathrm{Im}[C(t)]$ q -->
     <g transform="translate(581.398813 490.681024) scale(0.2 -0.2)">
      <use xlink:href="#CMR17-49" transform="scale(0.996264)"/>
      <use xlink:href="#CMR17-6d" transform="translate(32.638409 0) scale(0.996264)"/>
      <use xlink:href="#CMR17-5b" transform="translate(109.557999 0) scale(0.996264)"/>
      <use xlink:href="#CMMI12-43" transform="translate(134.429058 0) scale(0.996264)"/>
      <use xlink:href="#CMR17-28" transform="translate(211.375904 0) scale(0.996264)"/>
      <use xlink:href="#CMMI12-74" transform="translate(246.656672 0) scale(0.996264)"/>
      <use xlink:href="#CMR17-29" transform="translate(281.883002 0) scale(0.996264)"/>
      <use xlink:href="#CMR17-5d" transform="translate(317.16377 0) scale(0.996264)"/>
      <use xlink:href="#CMR17-71" transform="translate(372.110795 0) scale(0.996264)"/>
     </g>
    </g>
    <g id="line2d_38">
     <path d="M 525.398813 513.589627 
L 545.398813 513.589627 
L 565.398813 513.589627 
" style="fill: none; stroke: #9467bd; stroke-width: 1.5; stroke-linecap: square"/>
    </g>
    <g id="text_34">
     <!-- $|C(t)|$ q -->
     <g transform="translate(581.398813 520.589627) scale(0.2 -0.2)">
      <use xlink:href="#CMSY10-6a" transform="scale(0.996264)"/>
      <use xlink:href="#CMMI12-43" transform="translate(27.674085 0) scale(0.996264)"/>
      <use xlink:href="#CMR17-28" transform="translate(104.620931 0) scale(0.996264)"/>
      <use xlink:href="#CMMI12-74" transform="translate(139.901699 0) scale(0.996264)"/>
      <use xlink:href="#CMR17-29" transform="translate(175.128029 0) scale(0.996264)"/>
      <use xlink:href="#CMSY10-6a" transform="translate(210.408797 0) scale(0.996264)"/>
      <use xlink:href="#CMR17-71" transform="translate(268.158848 0) scale(0.996264)"/>
     </g>
    </g>
   </g>
  </g>
  <g id="text_35">
   <!-- Bath at $\beta$ = 1.00 with QuTiP from $J(\omega)$ -->
   <g transform="translate(147.551194 25.111226) scale(0.24 -0.24)">
    <defs>
     <path id="CMR17-42" d="M 333 4352 
L 333 4185 
C 774 4185 845 4185 845 3897 
L 845 451 
C 845 166 774 166 333 166 
L 333 0 
L 2534 0 
C 3354 0 3885 578 3885 1155 
C 3885 1726 3360 2214 2675 2259 
C 3290 2380 3718 2790 3718 3276 
C 3718 3808 3194 4352 2368 4352 
L 333 4352 
z
M 1248 2304 
L 1248 3936 
C 1248 4153 1261 4185 1517 4185 
L 2336 4185 
C 2970 4185 3251 3673 3251 3276 
C 3251 2790 2861 2304 2170 2304 
L 1248 2304 
z
M 1517 166 
C 1261 166 1248 198 1248 413 
L 1248 2201 
L 2432 2201 
C 3091 2201 3411 1624 3411 1161 
C 3411 698 3046 166 2349 166 
L 1517 166 
z
" transform="scale(0.015625)"/>
     <path id="CMR17-68" d="M 2656 1954 
C 2656 2282 2592 2816 1837 2816 
C 1312 2816 1056 2392 979 2179 
L 973 2179 
L 973 4416 
L 211 4345 
L 211 4179 
C 589 4179 646 4141 646 3843 
L 646 443 
C 646 198 621 166 211 166 
L 211 0 
C 365 12 646 12 813 12 
C 979 12 1267 12 1421 0 
L 1421 166 
C 1011 166 986 192 986 443 
L 986 1678 
C 986 2269 1344 2713 1792 2713 
C 2266 2713 2317 2289 2317 1980 
L 2317 443 
C 2317 198 2291 166 1882 166 
L 1882 0 
C 2035 12 2317 12 2483 12 
C 2650 12 2938 12 3091 0 
L 3091 166 
C 2682 166 2656 192 2656 443 
L 2656 1954 
z
" transform="scale(0.015625)"/>
     <path id="CMMI12-c" d="M 3622 3739 
C 3622 4131 3296 4544 2714 4544 
C 1888 4544 1363 3510 1197 2830 
L 186 -1152 
C 173 -1204 211 -1216 243 -1216 
C 288 -1216 320 -1210 326 -1178 
L 774 592 
C 838 231 1190 -64 1568 -64 
C 2483 -64 3347 657 3347 1618 
C 3347 1863 3290 2108 3155 2314 
C 3078 2437 2982 2527 2880 2599 
C 3341 2823 3622 3222 3622 3739 
z
M 2509 2605 
C 2406 2571 2304 2560 2182 2560 
C 2093 2560 2010 2553 1894 2588 
C 1958 2627 2054 2639 2189 2639 
C 2304 2639 2419 2627 2509 2605 
z
M 3290 3798 
C 3290 3438 3117 2915 2701 2684 
C 2579 2723 2413 2752 2272 2752 
C 2138 2752 1754 2765 1754 2582 
C 1754 2411 2106 2430 2214 2430 
C 2381 2430 2528 2469 2682 2514 
C 2886 2347 2976 2127 2976 1805 
C 2976 1431 2874 1128 2752 850 
C 2541 373 2042 64 1600 64 
C 1133 64 890 438 890 876 
C 890 934 890 1018 915 1115 
L 1331 2784 
C 1542 3641 2080 4413 2701 4413 
C 3162 4413 3290 4086 3290 3798 
z
" transform="scale(0.015625)"/>
     <path id="CMR17-3d" d="M 4115 2048 
C 4211 2048 4307 2048 4307 2156 
C 4307 2272 4198 2272 4090 2272 
L 512 2272 
C 403 2272 294 2272 294 2156 
C 294 2048 390 2048 486 2048 
L 4115 2048 
z
M 4090 927 
C 4198 927 4307 927 4307 1043 
C 4307 1152 4211 1152 4115 1152 
L 486 1152 
C 390 1152 294 1152 294 1043 
C 294 927 403 927 512 927 
L 4090 927 
z
" transform="scale(0.015625)"/>
     <path id="CMR17-2e" d="M 1062 262 
C 1062 422 934 524 800 524 
C 672 524 538 422 538 262 
C 538 102 666 0 800 0 
C 928 0 1062 102 1062 262 
z
" transform="scale(0.015625)"/>
     <path id="CMR17-51" d="M 3027 31 
C 3789 355 4307 1187 4307 2157 
C 4307 3484 3366 4480 2304 4480 
C 1216 4480 294 3471 294 2157 
C 294 863 1216 -128 2304 -128 
C 2451 -128 2656 -109 2899 -26 
C 3008 -813 3078 -1280 3629 -1280 
C 4307 -1280 4339 -277 4339 -96 
C 4339 -32 4339 12 4294 12 
C 4262 12 4256 -32 4256 -45 
C 4211 -665 3866 -794 3661 -794 
C 3283 -794 3149 -452 3027 31 
z
M 1958 38 
C 1293 247 768 954 768 2157 
C 768 3698 1606 4364 2298 4364 
C 3014 4364 3834 3672 3834 2157 
C 3834 1064 3405 463 2976 190 
C 2880 514 2726 896 2310 896 
C 2003 896 1830 628 1830 387 
C 1830 241 1888 120 1958 38 
z
M 2874 133 
C 2618 -1 2413 -13 2304 -13 
C 2016 -13 1933 247 1933 387 
C 1933 584 2067 793 2310 793 
C 2720 793 2822 431 2874 133 
z
" transform="scale(0.015625)"/>
     <path id="CMR17-66" d="M 979 2585 
L 1709 2585 
L 1709 2752 
L 966 2752 
L 966 3539 
C 966 4076 1235 4377 1510 4377 
C 1594 4377 1690 4363 1754 4339 
C 1702 4326 1568 4281 1568 4121 
C 1568 3955 1696 3904 1786 3904 
C 1875 3904 2003 3955 2003 4121 
C 2003 4353 1773 4480 1517 4480 
C 1152 4480 653 4211 653 3526 
L 653 2752 
L 141 2752 
L 141 2585 
L 653 2585 
L 653 441 
C 653 198 627 166 218 166 
L 218 0 
C 371 12 666 12 832 12 
C 1018 12 1344 12 1517 0 
L 1517 166 
C 1056 166 979 166 979 454 
L 979 2585 
z
" transform="scale(0.015625)"/>
    </defs>
    <use xlink:href="#CMR17-42" transform="scale(0.996264)"/>
    <use xlink:href="#CMR17-61" transform="translate(65.188754 0) scale(0.996264)"/>
    <use xlink:href="#CMR17-74" transform="translate(110.879232 0) scale(0.996264)"/>
    <use xlink:href="#CMR17-68" transform="translate(146.159999 0) scale(0.996264)"/>
    <use xlink:href="#CMR17-61" transform="translate(227.131335 0) scale(0.996264)"/>
    <use xlink:href="#CMR17-74" transform="translate(272.821813 0) scale(0.996264)"/>
    <use xlink:href="#CMMI12-c" transform="translate(338.178547 0) scale(0.996264)"/>
    <use xlink:href="#CMR17-3d" transform="translate(428.848529 0) scale(0.996264)"/>
    <use xlink:href="#CMR17-31" transform="translate(530.639284 0) scale(0.996264)"/>
    <use xlink:href="#CMR17-2e" transform="translate(576.329761 0) scale(0.996264)"/>
    <use xlink:href="#CMR17-30" transform="translate(601.200819 0) scale(0.996264)"/>
    <use xlink:href="#CMR17-30" transform="translate(646.891296 0) scale(0.996264)"/>
    <use xlink:href="#CMR17-77" transform="translate(722.65774 0) scale(0.996264)"/>
    <use xlink:href="#CMR17-69" transform="translate(789.16762 0) scale(0.996264)"/>
    <use xlink:href="#CMR17-74" transform="translate(814.038679 0) scale(0.996264)"/>
    <use xlink:href="#CMR17-68" transform="translate(849.319447 0) scale(0.996264)"/>
    <use xlink:href="#CMR17-51" transform="translate(930.290783 0) scale(0.996264)"/>
    <use xlink:href="#CMR17-75" transform="translate(1002.005571 0) scale(0.996264)"/>
    <use xlink:href="#CMR17-54" transform="translate(1052.900941 0) scale(0.996264)"/>
    <use xlink:href="#CMR17-69" transform="translate(1119.410821 0) scale(0.996264)"/>
    <use xlink:href="#CMR17-50" transform="translate(1144.28188 0) scale(0.996264)"/>
    <use xlink:href="#CMR17-66" transform="translate(1236.944147 0) scale(0.996264)"/>
    <use xlink:href="#CMR17-72" transform="translate(1264.417659 0) scale(0.996264)"/>
    <use xlink:href="#CMR17-6f" transform="translate(1299.698427 0) scale(0.996264)"/>
    <use xlink:href="#CMR17-6d" transform="translate(1345.388904 0) scale(0.996264)"/>
    <use xlink:href="#CMMI12-4a" transform="translate(1452.38446 0) scale(0.996264)"/>
    <use xlink:href="#CMR17-28" transform="translate(1515.527131 0) scale(0.996264)"/>
    <use xlink:href="#CMMI12-21" transform="translate(1550.807899 0) scale(0.996264)"/>
    <use xlink:href="#CMR17-29" transform="translate(1615.126245 0) scale(0.996264)"/>
   </g>
  </g>
 </g>
 <defs>
  <clipPath id="pb4bf63185f">
   <rect x="77.318394" y="82.585802" width="606.681606" height="165.497015"/>
  </clipPath>
  <clipPath id="p51c69df13c">
   <rect x="77.318394" y="338.157724" width="606.681606" height="165.497015"/>
  </clipPath>
 </defs>
</svg>
