<?xml version="1.0" encoding="utf-8" standalone="no"?>
<!DOCTYPE svg PUBLIC "-//W3C//DTD SVG 1.1//EN"
  "http://www.w3.org/Graphics/SVG/1.1/DTD/svg11.dtd">
<svg xmlns:xlink="http://www.w3.org/1999/xlink" width="691.2pt" height="557.28pt" viewBox="0 0 691.2 557.28" xmlns="http://www.w3.org/2000/svg" version="1.1">
 <metadata>
  <rdf:RDF xmlns:dc="http://purl.org/dc/elements/1.1/" xmlns:cc="http://creativecommons.org/ns#" xmlns:rdf="http://www.w3.org/1999/02/22-rdf-syntax-ns#">
   <cc:Work>
    <dc:type rdf:resource="http://purl.org/dc/dcmitype/StillImage"/>
    <dc:date>2025-04-03T11:24:05.648589</dc:date>
    <dc:format>image/svg+xml</dc:format>
    <dc:creator>
     <cc:Agent>
      <dc:title>Matplotlib v3.6.3, https://matplotlib.org/</dc:title>
     </cc:Agent>
    </dc:creator>
   </cc:Work>
  </rdf:RDF>
 </metadata>
 <defs>
  <style type="text/css">*{stroke-linejoin: round; stroke-linecap: butt}</style>
 </defs>
 <g id="figure_1">
  <g id="patch_1">
   <path d="M 0 557.28 
L 691.2 557.28 
L 691.2 0 
L 0 0 
L 0 557.28 
z
" style="fill: none"/>
  </g>
  <g id="axes_1">
   <g id="patch_2">
    <path d="M 62.760863 248.082817 
L 684 248.082817 
L 684 82.585802 
L 62.760863 82.585802 
L 62.760863 248.082817 
z
" style="fill: none"/>
   </g>
   <g id="matplotlib.axis_1">
    <g id="xtick_1">
     <g id="line2d_1">
      <defs>
       <path id="mf2d98da86b" d="M 0 0 
L 0 3.5 
" style="stroke: #000000; stroke-width: 0.8"/>
      </defs>
      <g>
       <use xlink:href="#mf2d98da86b" x="147.475291" y="248.082817" style="stroke: #000000; stroke-width: 0.8"/>
      </g>
     </g>
     <g id="text_1">
      <!-- $\mathdefault{−20}$ -->
      <g transform="translate(130.588452 268.919814) scale(0.2 -0.2)">
       <defs>
        <path id="CMSY10-0" d="M 4218 1472 
C 4326 1472 4442 1472 4442 1600 
C 4442 1728 4326 1728 4218 1728 
L 755 1728 
C 646 1728 531 1728 531 1600 
C 531 1472 646 1472 755 1472 
L 4218 1472 
z
" transform="scale(0.015625)"/>
        <path id="CMR17-32" d="M 2669 990 
L 2554 990 
C 2490 537 2438 460 2413 422 
C 2381 371 1920 371 1830 371 
L 602 371 
C 832 620 1280 1073 1824 1596 
C 2214 1966 2669 2400 2669 3033 
C 2669 3788 2067 4224 1395 4224 
C 691 4224 262 3603 262 3027 
C 262 2777 448 2745 525 2745 
C 589 2745 781 2783 781 3007 
C 781 3206 614 3264 525 3264 
C 486 3264 448 3257 422 3244 
C 544 3788 915 4057 1306 4057 
C 1862 4057 2227 3616 2227 3033 
C 2227 2477 1901 1998 1536 1583 
L 262 147 
L 262 0 
L 2515 0 
L 2669 990 
z
" transform="scale(0.015625)"/>
        <path id="CMR17-30" d="M 2688 2038 
C 2688 2430 2682 3099 2413 3613 
C 2176 4063 1798 4224 1466 4224 
C 1158 4224 768 4082 525 3620 
C 269 3137 243 2539 243 2038 
C 243 1671 250 1112 448 623 
C 723 -39 1216 -128 1466 -128 
C 1760 -128 2208 -7 2470 604 
C 2662 1048 2688 1568 2688 2038 
z
M 1466 -26 
C 1056 -26 813 328 723 816 
C 653 1196 653 1749 653 2109 
C 653 2604 653 3015 736 3407 
C 858 3954 1216 4121 1466 4121 
C 1728 4121 2067 3947 2189 3420 
C 2272 3054 2278 2623 2278 2109 
C 2278 1691 2278 1176 2202 797 
C 2067 96 1690 -26 1466 -26 
z
" transform="scale(0.015625)"/>
       </defs>
       <use xlink:href="#CMSY10-0" transform="scale(0.996264)"/>
       <use xlink:href="#CMR17-32" transform="translate(77.487468 0) scale(0.996264)"/>
       <use xlink:href="#CMR17-30" transform="translate(123.177945 0) scale(0.996264)"/>
      </g>
     </g>
    </g>
    <g id="xtick_2">
     <g id="line2d_2">
      <g>
       <use xlink:href="#mf2d98da86b" x="260.427861" y="248.082817" style="stroke: #000000; stroke-width: 0.8"/>
      </g>
     </g>
     <g id="text_2">
      <!-- $\mathdefault{−10}$ -->
      <g transform="translate(243.541022 268.919814) scale(0.2 -0.2)">
       <defs>
        <path id="CMR17-31" d="M 1702 4083 
C 1702 4217 1696 4224 1606 4224 
C 1357 3927 979 3833 621 3820 
C 602 3820 570 3820 563 3808 
C 557 3795 557 3782 557 3648 
C 755 3648 1088 3686 1344 3839 
L 1344 467 
C 1344 243 1331 166 781 166 
L 589 166 
L 589 0 
C 896 6 1216 12 1523 12 
C 1830 12 2150 6 2458 0 
L 2458 166 
L 2266 166 
C 1715 166 1702 236 1702 467 
L 1702 4083 
z
" transform="scale(0.015625)"/>
       </defs>
       <use xlink:href="#CMSY10-0" transform="scale(0.996264)"/>
       <use xlink:href="#CMR17-31" transform="translate(77.487468 0) scale(0.996264)"/>
       <use xlink:href="#CMR17-30" transform="translate(123.177945 0) scale(0.996264)"/>
      </g>
     </g>
    </g>
    <g id="xtick_3">
     <g id="line2d_3">
      <g>
       <use xlink:href="#mf2d98da86b" x="373.380432" y="248.082817" style="stroke: #000000; stroke-width: 0.8"/>
      </g>
     </g>
     <g id="text_3">
      <!-- $\mathdefault{0}$ -->
      <g transform="translate(368.811384 268.919814) scale(0.2 -0.2)">
       <use xlink:href="#CMR17-30" transform="scale(0.996264)"/>
      </g>
     </g>
    </g>
    <g id="xtick_4">
     <g id="line2d_4">
      <g>
       <use xlink:href="#mf2d98da86b" x="486.333002" y="248.082817" style="stroke: #000000; stroke-width: 0.8"/>
      </g>
     </g>
     <g id="text_4">
      <!-- $\mathdefault{10}$ -->
      <g transform="translate(477.194906 268.919814) scale(0.2 -0.2)">
       <use xlink:href="#CMR17-31" transform="scale(0.996264)"/>
       <use xlink:href="#CMR17-30" transform="translate(45.690477 0) scale(0.996264)"/>
      </g>
     </g>
    </g>
    <g id="xtick_5">
     <g id="line2d_5">
      <g>
       <use xlink:href="#mf2d98da86b" x="599.285572" y="248.082817" style="stroke: #000000; stroke-width: 0.8"/>
      </g>
     </g>
     <g id="text_5">
      <!-- $\mathdefault{20}$ -->
      <g transform="translate(590.147477 268.919814) scale(0.2 -0.2)">
       <use xlink:href="#CMR17-32" transform="scale(0.996264)"/>
       <use xlink:href="#CMR17-30" transform="translate(45.690477 0) scale(0.996264)"/>
      </g>
     </g>
    </g>
    <g id="text_6">
     <!-- $\omega / \tilde{\omega}_{\text{c}}$ -->
     <g transform="translate(352.961869 291.739407) scale(0.2 -0.2)">
      <defs>
       <path id="CMMI12-21" d="M 3802 2406 
C 3802 2592 3750 2828 3526 2828 
C 3398 2828 3251 2668 3251 2540 
C 3251 2483 3277 2444 3328 2387 
C 3424 2278 3546 2105 3546 1804 
C 3546 1574 3405 1209 3302 1011 
C 3123 659 2829 358 2496 358 
C 2093 358 1939 614 1869 972 
C 1939 1139 2086 1555 2086 1721 
C 2086 1792 2061 1849 1978 1849 
C 1933 1849 1882 1824 1850 1772 
C 1760 1632 1677 1126 1683 992 
C 1562 755 1216 358 806 358 
C 378 358 262 736 262 1100 
C 262 1766 678 2348 794 2508 
C 858 2604 902 2668 902 2681 
C 902 2726 877 2796 819 2796 
C 717 2796 685 2713 634 2636 
C 307 2131 77 1420 77 806 
C 77 409 224 -64 704 -64 
C 1235 -64 1568 390 1702 633 
C 1754 275 1946 -64 2413 -64 
C 2899 -64 3206 364 3437 883 
C 3603 1254 3802 2054 3802 2406 
z
" transform="scale(0.015625)"/>
       <path id="CMMI12-3d" d="M 2746 4563 
C 2746 4569 2784 4665 2784 4678 
C 2784 4755 2720 4800 2669 4800 
C 2637 4800 2579 4800 2528 4659 
L 384 -1364 
C 384 -1370 346 -1466 346 -1479 
C 346 -1556 410 -1600 461 -1600 
C 499 -1600 557 -1594 602 -1460 
L 2746 4563 
z
" transform="scale(0.015625)"/>
       <path id="CMR17-7e" d="M 2400 4198 
C 2182 3987 2061 3865 1862 3865 
C 1722 3865 1626 3936 1491 4032 
C 1363 4121 1261 4198 1120 4198 
C 890 4198 730 4012 461 3718 
L 531 3648 
C 749 3859 870 3980 1069 3980 
C 1210 3980 1306 3910 1440 3814 
C 1568 3724 1670 3648 1811 3648 
C 2042 3648 2202 3833 2470 4128 
L 2400 4198 
z
" transform="scale(0.015625)"/>
       <path id="CMR17-63" d="M 2234 2240 
C 2112 2240 1933 2240 1933 2015 
C 1933 1836 2080 1785 2163 1785 
C 2208 1785 2394 1804 2394 2028 
C 2394 2476 1958 2816 1466 2816 
C 787 2816 211 2201 211 1379 
C 211 521 813 -64 1466 -64 
C 2259 -64 2458 676 2458 747 
C 2458 773 2451 792 2406 792 
C 2362 792 2355 786 2330 702 
C 2163 180 1798 51 1523 51 
C 1114 51 621 431 621 1385 
C 621 2358 1094 2700 1472 2700 
C 1722 2700 2093 2582 2234 2240 
z
" transform="scale(0.015625)"/>
      </defs>
      <use xlink:href="#CMMI12-21" transform="scale(0.996264)"/>
      <use xlink:href="#CMMI12-3d" transform="translate(64.318346 0) scale(0.996264)"/>
      <use xlink:href="#CMR17-7e" transform="translate(122.407199 0.006461) scale(0.996264)"/>
      <use xlink:href="#CMMI12-21" transform="translate(113.093265 0) scale(0.996264)"/>
      <use xlink:href="#CMR17-63" transform="translate(173.837018 -14.943915) scale(0.697382)"/>
     </g>
    </g>
   </g>
   <g id="matplotlib.axis_2">
    <g id="ytick_1">
     <g id="line2d_6">
      <defs>
       <path id="m36bcf9b2b7" d="M 0 0 
L -3.5 0 
" style="stroke: #000000; stroke-width: 0.8"/>
      </defs>
      <g>
       <use xlink:href="#m36bcf9b2b7" x="62.760863" y="240.560225" style="stroke: #000000; stroke-width: 0.8"/>
      </g>
     </g>
     <g id="text_7">
      <!-- $\mathdefault{0.0}$ -->
      <g transform="translate(32.065237 247.478724) scale(0.2 -0.2)">
       <defs>
        <path id="CMMI12-3a" d="M 1178 307 
C 1178 492 1024 620 870 620 
C 685 620 557 467 557 313 
C 557 128 710 0 864 0 
C 1050 0 1178 153 1178 307 
z
" transform="scale(0.015625)"/>
       </defs>
       <use xlink:href="#CMR17-30" transform="scale(0.996264)"/>
       <use xlink:href="#CMMI12-3a" transform="translate(45.690477 0) scale(0.996264)"/>
       <use xlink:href="#CMR17-30" transform="translate(72.787654 0) scale(0.996264)"/>
      </g>
     </g>
    </g>
    <g id="ytick_2">
     <g id="line2d_7">
      <g>
       <use xlink:href="#m36bcf9b2b7" x="62.760863" y="165.334309" style="stroke: #000000; stroke-width: 0.8"/>
      </g>
     </g>
     <g id="text_8">
      <!-- $\mathdefault{0.5}$ -->
      <g transform="translate(32.065237 172.252808) scale(0.2 -0.2)">
       <defs>
        <path id="CMR17-35" d="M 730 3750 
C 794 3724 1056 3641 1325 3641 
C 1920 3641 2246 3961 2432 4140 
C 2432 4191 2432 4224 2394 4224 
C 2387 4224 2374 4224 2323 4198 
C 2099 4102 1837 4032 1517 4032 
C 1325 4032 1037 4055 723 4191 
C 653 4224 640 4224 634 4224 
C 602 4224 595 4217 595 4090 
L 595 2231 
C 595 2113 595 2080 659 2080 
C 691 2080 704 2093 736 2139 
C 941 2435 1222 2560 1542 2560 
C 1766 2560 2246 2415 2246 1293 
C 2246 1087 2246 716 2054 422 
C 1894 159 1645 25 1370 25 
C 947 25 518 319 403 812 
C 429 806 480 793 506 793 
C 589 793 749 838 749 1036 
C 749 1209 627 1280 506 1280 
C 358 1280 262 1190 262 1011 
C 262 454 704 -128 1382 -128 
C 2042 -128 2669 441 2669 1267 
C 2669 2054 2170 2662 1549 2662 
C 1222 2662 947 2540 730 2304 
L 730 3750 
z
" transform="scale(0.015625)"/>
       </defs>
       <use xlink:href="#CMR17-30" transform="scale(0.996264)"/>
       <use xlink:href="#CMMI12-3a" transform="translate(45.690477 0) scale(0.996264)"/>
       <use xlink:href="#CMR17-35" transform="translate(72.787654 0) scale(0.996264)"/>
      </g>
     </g>
    </g>
    <g id="ytick_3">
     <g id="line2d_8">
      <g>
       <use xlink:href="#m36bcf9b2b7" x="62.760863" y="90.108393" style="stroke: #000000; stroke-width: 0.8"/>
      </g>
     </g>
     <g id="text_9">
      <!-- $\mathdefault{1.0}$ -->
      <g transform="translate(32.065237 97.026892) scale(0.2 -0.2)">
       <use xlink:href="#CMR17-31" transform="scale(0.996264)"/>
       <use xlink:href="#CMMI12-3a" transform="translate(45.690477 0) scale(0.996264)"/>
       <use xlink:href="#CMR17-30" transform="translate(72.787654 0) scale(0.996264)"/>
      </g>
     </g>
    </g>
    <g id="text_10">
     <!-- $f / f(\tilde{\omega}_{\text{c}})$ -->
     <g transform="translate(23.083917 198.370321) rotate(-90) scale(0.2 -0.2)">
      <defs>
       <path id="CMMI12-66" d="M 2854 2566 
C 2982 2566 3034 2566 3034 2687 
C 3034 2752 2982 2752 2867 2752 
L 2349 2752 
C 2470 3398 2560 3846 2611 4051 
C 2650 4204 2784 4351 2950 4351 
C 3085 4351 3219 4294 3283 4236 
C 3034 4211 2957 4025 2957 3916 
C 2957 3788 3053 3712 3174 3712 
C 3302 3712 3494 3820 3494 4064 
C 3494 4332 3226 4480 2944 4480 
C 2669 4480 2400 4275 2272 4025 
C 2157 3801 2093 3573 1946 2752 
L 1517 2752 
C 1395 2752 1331 2752 1331 2636 
C 1331 2566 1370 2566 1498 2566 
L 1907 2566 
C 1792 1977 1530 545 1382 -132 
C 1274 -685 1178 -1152 858 -1152 
C 838 -1152 653 -1152 538 -1031 
C 864 -1005 864 -724 864 -717 
C 864 -589 768 -512 646 -512 
C 518 -512 326 -621 326 -865 
C 326 -1140 608 -1280 858 -1280 
C 1510 -1280 1779 -113 1850 203 
C 1965 691 2278 2376 2310 2566 
L 2854 2566 
z
" transform="scale(0.015625)"/>
       <path id="CMR17-28" d="M 1958 -1562 
C 1958 -1556 1958 -1543 1939 -1524 
C 1645 -1223 858 -403 858 1596 
C 858 3595 1632 4408 1946 4729 
C 1946 4735 1958 4748 1958 4767 
C 1958 4787 1939 4800 1914 4800 
C 1843 4800 1299 4325 986 3620 
C 666 2909 576 2218 576 1603 
C 576 1141 621 360 1005 -467 
C 1312 -1133 1837 -1600 1914 -1600 
C 1946 -1600 1958 -1588 1958 -1562 
z
" transform="scale(0.015625)"/>
       <path id="CMR17-29" d="M 1683 1596 
C 1683 2057 1638 2839 1254 3665 
C 947 4332 422 4800 346 4800 
C 326 4800 301 4793 301 4761 
C 301 4748 307 4742 314 4729 
C 621 4408 1402 3595 1402 1603 
C 1402 -396 627 -1210 314 -1530 
C 307 -1543 301 -1549 301 -1562 
C 301 -1594 326 -1600 346 -1600 
C 416 -1600 960 -1127 1274 -422 
C 1594 289 1683 981 1683 1596 
z
" transform="scale(0.015625)"/>
      </defs>
      <use xlink:href="#CMMI12-66" transform="scale(0.996264)"/>
      <use xlink:href="#CMMI12-3d" transform="translate(58.720305 0) scale(0.996264)"/>
      <use xlink:href="#CMMI12-66" transform="translate(107.495224 0) scale(0.996264)"/>
      <use xlink:href="#CMR17-28" transform="translate(166.215528 0) scale(0.996264)"/>
      <use xlink:href="#CMR17-7e" transform="translate(210.810231 0.006461) scale(0.996264)"/>
      <use xlink:href="#CMMI12-21" transform="translate(201.496296 0) scale(0.996264)"/>
      <use xlink:href="#CMR17-63" transform="translate(262.24005 -14.943915) scale(0.697382)"/>
      <use xlink:href="#CMR17-29" transform="translate(291.078013 0) scale(0.996264)"/>
     </g>
    </g>
   </g>
   <g id="line2d_9">
    <path d="M 90.999006 240.560225 
L 373.097767 240.560225 
L 373.663096 230.575741 
L 374.793752 195.393073 
L 375.924408 167.003516 
L 377.055065 144.432158 
L 378.185721 126.828177 
L 379.316377 113.450051 
L 380.447034 103.652452 
L 381.57769 96.874649 
L 382.143018 94.463524 
L 382.708347 92.630247 
L 383.273675 91.324143 
L 383.839003 90.498112 
L 384.404331 90.108393 
L 384.969659 90.114356 
L 385.534987 90.478295 
L 386.100316 91.165245 
L 386.665644 92.142801 
L 387.7963 94.851927 
L 388.926956 98.391563 
L 390.622941 104.865914 
L 392.884254 114.918163 
L 396.841551 134.094741 
L 400.798848 152.911168 
L 403.625489 165.280679 
L 405.886802 174.33168 
L 408.148115 182.57643 
L 410.409427 190.009547 
L 412.67074 196.654147 
L 414.932053 202.551672 
L 417.193365 207.754484 
L 419.454678 212.320535 
L 421.715991 216.30962 
L 423.977304 219.780794 
L 426.238616 222.790677 
L 428.499929 225.392391 
L 430.761242 227.634969 
L 433.022555 229.563086 
L 435.283867 231.217028 
L 437.54518 232.632813 
L 440.371821 234.115986 
L 443.198462 235.330993 
L 446.025103 236.323876 
L 449.417072 237.276308 
L 453.374369 238.126502 
L 457.896994 238.837309 
L 462.984948 239.396035 
L 469.203558 239.842326 
L 477.118153 240.174552 
L 488.424716 240.403038 
L 507.080546 240.5252 
L 559.090739 240.559738 
L 655.761857 240.560225 
L 655.761857 240.560225 
" clip-path="url(#p39e2afaba5)" style="fill: none; stroke: #2ca02c; stroke-width: 1.5; stroke-linecap: square"/>
   </g>
   <g id="line2d_10">
    <path d="M 90.999006 240.560225 
L 266.250741 240.450368 
L 280.949274 240.211908 
L 289.994525 239.86009 
L 296.778463 239.386979 
L 302.431745 238.766406 
L 306.95437 238.051428 
L 310.911668 237.207054 
L 314.303637 236.272427 
L 317.695606 235.09268 
L 320.522247 233.880633 
L 323.348888 232.418388 
L 326.175529 230.660106 
L 328.436841 229.005324 
L 330.698154 227.097572 
L 332.959467 224.903805 
L 335.220779 222.387955 
L 337.482092 219.510958 
L 339.743405 216.230845 
L 342.004718 212.502932 
L 344.26603 208.280105 
L 346.527343 203.513222 
L 348.788656 198.151631 
L 351.049968 192.143809 
L 353.311281 185.438113 
L 355.572594 177.983637 
L 357.833907 169.731157 
L 360.095219 160.634121 
L 362.356532 150.649679 
L 364.617845 139.739685 
L 366.879157 127.871647 
L 369.705798 111.650423 
L 372.532439 93.85736 
L 373.097767 90.108393 
L 373.663096 93.826734 
L 374.793752 114.363546 
L 375.924408 132.116537 
L 377.055065 147.449663 
L 378.185721 160.681171 
L 379.316377 172.089089 
L 380.447034 181.916102 
L 381.57769 190.373849 
L 382.708347 197.646726 
L 383.839003 203.895246 
L 384.969659 209.258998 
L 386.100316 213.859257 
L 387.230972 217.801291 
L 388.361628 221.17638 
L 389.492285 224.063599 
L 390.622941 226.531384 
L 391.753597 228.6389 
L 393.449582 231.234524 
L 395.145566 233.276779 
L 396.841551 234.880751 
L 398.537536 236.13828 
L 400.23352 237.1225 
L 401.929505 237.89152 
L 404.190817 238.660333 
L 406.45213 239.210888 
L 409.278771 239.683281 
L 413.236068 240.08321 
L 418.324022 240.344094 
L 426.238616 240.498225 
L 443.76379 240.556545 
L 643.889966 240.560225 
L 655.761857 240.560225 
L 655.761857 240.560225 
" clip-path="url(#p39e2afaba5)" style="fill: none; stroke-dasharray: 5.55,2.4; stroke-dashoffset: 0; stroke: #d62728; stroke-width: 1.5"/>
   </g>
   <g id="line2d_11">
    <path d="M 90.999006 240.560225 
L 373.097767 240.560225 
L 373.663096 230.575741 
L 374.793752 195.393073 
L 375.924408 167.003516 
L 377.055065 144.432158 
L 378.185721 126.828177 
L 379.316377 113.450051 
L 380.447034 103.652452 
L 381.57769 96.874649 
L 382.143018 94.463524 
L 382.708347 92.630247 
L 383.273675 91.324143 
L 383.839003 90.498112 
L 384.404331 90.108393 
L 384.969659 90.114356 
L 385.534987 90.478295 
L 386.100316 91.165245 
L 386.665644 92.142801 
L 387.7963 94.851927 
L 388.926956 98.391563 
L 390.622941 104.865914 
L 392.884254 114.918163 
L 396.841551 134.094741 
L 400.798848 152.911168 
L 403.625489 165.280679 
L 405.886802 174.33168 
L 408.148115 182.57643 
L 410.409427 190.009547 
L 412.67074 196.654147 
L 414.932053 202.551672 
L 417.193365 207.754484 
L 419.454678 212.320535 
L 421.715991 216.30962 
L 423.977304 219.780794 
L 426.238616 222.790677 
L 428.499929 225.392391 
L 430.761242 227.634969 
L 433.022555 229.563086 
L 435.283867 231.217028 
L 437.54518 232.632813 
L 440.371821 234.115986 
L 443.198462 235.330993 
L 446.025103 236.323876 
L 449.417072 237.276308 
L 453.374369 238.126502 
L 457.896994 238.837309 
L 462.984948 239.396035 
L 469.203558 239.842326 
L 477.118153 240.174552 
L 488.424716 240.403038 
L 507.080546 240.5252 
L 559.090739 240.559738 
L 655.761857 240.560225 
L 655.761857 240.560225 
" clip-path="url(#p39e2afaba5)" style="fill: none; stroke: #1f77b4; stroke-width: 1.5; stroke-linecap: square"/>
   </g>
   <g id="line2d_12">
    <path d="M 90.999006 240.560225 
L 323.914216 240.454092 
L 331.263482 240.224308 
L 335.786108 239.884179 
L 339.178077 239.42406 
L 342.004718 238.81572 
L 344.26603 238.108299 
L 346.527343 237.1225 
L 348.223328 236.13828 
L 349.919312 234.880751 
L 351.615297 233.276779 
L 353.311281 231.234524 
L 354.441938 229.573814 
L 355.572594 227.626806 
L 356.70325 225.346021 
L 357.833907 222.676464 
L 358.964563 219.554495 
L 360.095219 215.906541 
L 361.225876 211.647634 
L 362.356532 206.679737 
L 363.487188 200.889849 
L 364.617845 194.147841 
L 365.748501 186.304012 
L 366.879157 177.1863 
L 368.009814 166.597135 
L 369.14047 154.30986 
L 370.271127 140.064689 
L 371.401783 123.564131 
L 372.532439 104.467815 
L 373.097767 93.826734 
L 373.663096 90.108393 
L 376.489737 108.218344 
L 379.316377 124.751743 
L 382.143018 139.739685 
L 384.404331 150.649679 
L 386.665644 160.634121 
L 388.926956 169.731157 
L 391.188269 177.983637 
L 393.449582 185.438113 
L 395.710895 192.143809 
L 397.972207 198.151631 
L 400.23352 203.513222 
L 402.494833 208.280105 
L 404.756146 212.502932 
L 407.017458 216.230845 
L 409.278771 219.510958 
L 411.540084 222.387955 
L 413.801396 224.903805 
L 416.062709 227.097572 
L 418.324022 229.005324 
L 420.585335 230.660106 
L 423.411975 232.418388 
L 426.238616 233.880633 
L 429.065257 235.09268 
L 432.457226 236.272427 
L 435.849195 237.207054 
L 439.806493 238.051428 
L 444.329118 238.766406 
L 449.417072 239.335795 
L 455.635682 239.796822 
L 463.550276 240.145089 
L 474.291512 240.380758 
L 491.816685 240.515592 
L 535.912283 240.55899 
L 655.761857 240.560225 
L 655.761857 240.560225 
" clip-path="url(#p39e2afaba5)" style="fill: none; stroke-dasharray: 5.55,2.4; stroke-dashoffset: 0; stroke: #ff7f0e; stroke-width: 1.5"/>
   </g>
   <g id="patch_3">
    <path d="M 62.760863 248.082817 
L 62.760863 82.585802 
" style="fill: none; stroke: #000000; stroke-width: 0.8; stroke-linejoin: miter; stroke-linecap: square"/>
   </g>
   <g id="patch_4">
    <path d="M 684 248.082817 
L 684 82.585802 
" style="fill: none; stroke: #000000; stroke-width: 0.8; stroke-linejoin: miter; stroke-linecap: square"/>
   </g>
   <g id="patch_5">
    <path d="M 62.760863 248.082817 
L 684 248.082817 
" style="fill: none; stroke: #000000; stroke-width: 0.8; stroke-linejoin: miter; stroke-linecap: square"/>
   </g>
   <g id="patch_6">
    <path d="M 62.760863 82.585802 
L 684 82.585802 
" style="fill: none; stroke: #000000; stroke-width: 0.8; stroke-linejoin: miter; stroke-linecap: square"/>
   </g>
   <g id="text_11">
    <!-- Spectral Density $ J $ and Power Spectrum $ S $ -->
    <g transform="translate(202.633875 76.585802) scale(0.2 -0.2)">
     <defs>
      <path id="CMR17-53" d="M 2803 4351 
C 2803 4467 2797 4473 2758 4473 
C 2720 4473 2707 4447 2682 4390 
L 2490 3965 
C 2246 4320 1875 4480 1472 4480 
C 819 4480 294 3958 294 3301 
C 294 3101 339 2817 557 2546 
C 794 2250 1018 2198 1530 2063 
C 1722 2011 2042 1927 2106 1901 
C 2470 1747 2662 1360 2662 999 
C 2662 534 2336 38 1779 38 
C 1094 38 454 425 410 1328 
C 403 1431 397 1437 352 1437 
C 301 1437 294 1431 294 1302 
L 294 0 
C 294 -116 301 -122 339 -122 
C 384 -122 397 -90 486 109 
C 493 128 493 141 614 386 
C 934 -39 1472 -128 1779 -128 
C 2477 -128 2970 457 2970 1141 
C 2970 1476 2848 1734 2778 1850 
C 2509 2263 2221 2340 1914 2417 
C 1869 2437 1856 2437 1498 2527 
C 1152 2617 1005 2662 845 2836 
C 666 3036 602 3243 602 3449 
C 602 3868 934 4326 1478 4326 
C 2157 4326 2579 3842 2675 3036 
C 2694 2920 2701 2914 2746 2914 
C 2803 2914 2803 2933 2803 3043 
L 2803 4351 
z
" transform="scale(0.015625)"/>
      <path id="CMR17-70" d="M 1408 -1114 
C 998 -1114 973 -1088 973 -834 
L 973 380 
C 1158 109 1427 -64 1766 -64 
C 2406 -64 3053 503 3053 1382 
C 3053 2196 2496 2816 1837 2816 
C 1453 2816 1139 2603 960 2345 
L 960 2816 
L 198 2745 
L 198 2577 
C 576 2577 634 2539 634 2228 
L 634 -834 
C 634 -1081 608 -1114 198 -1114 
L 198 -1280 
C 352 -1268 634 -1268 800 -1268 
C 966 -1268 1254 -1268 1408 -1280 
L 1408 -1114 
z
M 973 2015 
C 973 2106 973 2241 1222 2481 
C 1254 2506 1472 2700 1792 2700 
C 2259 2700 2643 2112 2643 1376 
C 2643 639 2234 38 1728 38 
C 1498 38 1248 148 1056 451 
C 973 594 973 632 973 736 
L 973 2015 
z
" transform="scale(0.015625)"/>
      <path id="CMR17-65" d="M 2438 1503 
C 2464 1529 2464 1542 2464 1606 
C 2464 2251 2118 2816 1389 2816 
C 710 2816 173 2175 173 1394 
C 173 554 781 -64 1459 -64 
C 2176 -64 2458 619 2458 755 
C 2458 800 2419 800 2406 800 
C 2362 800 2355 787 2330 709 
C 2189 270 1837 51 1504 51 
C 1229 51 954 206 781 490 
C 582 819 582 1200 582 1503 
L 2438 1503 
z
M 589 1600 
C 634 2511 1126 2713 1382 2713 
C 1818 2713 2112 2308 2118 1600 
L 589 1600 
z
" transform="scale(0.015625)"/>
      <path id="CMR17-74" d="M 966 2585 
L 1862 2585 
L 1862 2752 
L 966 2752 
L 966 3968 
L 851 3968 
C 838 3292 614 2700 70 2687 
L 70 2585 
L 627 2585 
L 627 778 
C 627 655 627 -64 1370 -64 
C 1747 -64 1965 308 1965 784 
L 1965 1151 
L 1850 1151 
L 1850 790 
C 1850 347 1677 51 1408 51 
C 1222 51 966 179 966 765 
L 966 2585 
z
" transform="scale(0.015625)"/>
      <path id="CMR17-72" d="M 960 1517 
C 960 2134 1222 2713 1702 2713 
C 1747 2713 1792 2707 1837 2687 
C 1837 2687 1696 2642 1696 2475 
C 1696 2321 1818 2257 1914 2257 
C 1990 2257 2131 2302 2131 2482 
C 2131 2687 1926 2816 1709 2816 
C 1222 2816 1011 2340 947 2115 
L 941 2115 
L 941 2816 
L 198 2745 
L 198 2578 
C 576 2578 634 2540 634 2231 
L 634 443 
C 634 198 608 166 198 166 
L 198 0 
C 352 12 646 12 813 12 
C 998 12 1325 12 1498 0 
L 1498 166 
C 1037 166 960 166 960 455 
L 960 1517 
z
" transform="scale(0.015625)"/>
      <path id="CMR17-61" d="M 2304 1656 
C 2304 2048 2304 2275 2035 2534 
C 1798 2751 1523 2816 1306 2816 
C 800 2816 435 2408 435 1977 
C 435 1740 627 1728 666 1728 
C 749 1728 896 1779 896 1958 
C 896 2118 774 2188 666 2188 
C 640 2188 608 2182 589 2176 
C 723 2594 1069 2713 1293 2713 
C 1613 2713 1965 2421 1965 1875 
L 1965 1632 
C 1587 1619 1133 1568 774 1373 
C 371 1147 256 822 256 576 
C 256 77 832 -64 1171 -64 
C 1523 -64 1850 135 1990 505 
C 2003 219 2182 -39 2464 -39 
C 2598 -39 2938 51 2938 563 
L 2938 926 
L 2822 926 
L 2822 557 
C 2822 161 2650 109 2566 109 
C 2304 109 2304 446 2304 732 
L 2304 1656 
z
M 1965 887 
C 1965 323 1568 38 1216 38 
C 896 38 646 278 646 576 
C 646 771 730 1114 1101 1322 
C 1408 1497 1760 1523 1965 1536 
L 1965 887 
z
" transform="scale(0.015625)"/>
      <path id="CMR17-6c" d="M 979 4416 
L 218 4345 
L 218 4179 
C 595 4179 653 4141 653 3835 
L 653 439 
C 653 198 627 166 218 166 
L 218 0 
C 371 12 653 12 813 12 
C 979 12 1261 12 1414 0 
L 1414 166 
C 1005 166 979 191 979 439 
L 979 4416 
z
" transform="scale(0.015625)"/>
      <path id="CMR17-44" d="M 333 4352 
L 333 4185 
C 774 4185 845 4185 845 3898 
L 845 453 
C 845 166 774 166 333 166 
L 333 0 
L 2368 0 
C 3398 0 4224 943 4224 2140 
C 4224 3344 3411 4352 2368 4352 
L 333 4352 
z
M 1523 166 
C 1267 166 1254 198 1254 414 
L 1254 3936 
C 1254 4153 1267 4185 1523 4185 
L 2240 4185 
C 2771 4185 3750 3873 3750 2140 
C 3750 1242 3488 879 3366 707 
C 3213 510 2848 166 2240 166 
L 1523 166 
z
" transform="scale(0.015625)"/>
      <path id="CMR17-6e" d="M 2656 1954 
C 2656 2282 2592 2816 1837 2816 
C 1331 2816 1069 2424 973 2166 
L 966 2166 
L 966 2816 
L 211 2745 
L 211 2578 
C 589 2578 646 2540 646 2231 
L 646 443 
C 646 198 621 166 211 166 
L 211 0 
C 365 12 646 12 813 12 
C 979 12 1267 12 1421 0 
L 1421 166 
C 1011 166 986 192 986 443 
L 986 1678 
C 986 2269 1344 2713 1792 2713 
C 2266 2713 2317 2289 2317 1980 
L 2317 443 
C 2317 198 2291 166 1882 166 
L 1882 0 
C 2035 12 2317 12 2483 12 
C 2650 12 2938 12 3091 0 
L 3091 166 
C 2682 166 2656 192 2656 443 
L 2656 1954 
z
" transform="scale(0.015625)"/>
      <path id="CMR17-73" d="M 1978 2688 
C 1978 2803 1971 2809 1933 2809 
C 1907 2809 1901 2803 1824 2707 
C 1805 2681 1747 2617 1728 2592 
C 1523 2809 1235 2816 1126 2816 
C 416 2816 160 2444 160 2073 
C 160 1497 813 1363 998 1324 
C 1402 1241 1542 1216 1677 1100 
C 1760 1024 1901 883 1901 652 
C 1901 384 1747 38 1158 38 
C 602 38 403 460 288 1024 
C 269 1113 269 1120 218 1120 
C 166 1120 160 1113 160 985 
L 160 64 
C 160 -52 166 -58 205 -58 
C 237 -58 243 -52 275 0 
C 314 57 410 211 448 275 
C 576 102 800 -64 1158 -64 
C 1792 -64 2131 281 2131 780 
C 2131 1107 1958 1280 1875 1356 
C 1683 1555 1459 1600 1190 1651 
C 838 1728 390 1817 390 2208 
C 390 2374 480 2726 1126 2726 
C 1811 2726 1850 2086 1862 1881 
C 1869 1849 1901 1843 1920 1843 
C 1978 1843 1978 1862 1978 1971 
L 1978 2688 
z
" transform="scale(0.015625)"/>
      <path id="CMR17-69" d="M 992 3961 
C 992 4102 877 4224 730 4224 
C 589 4224 467 4108 467 3961 
C 467 3820 582 3699 730 3699 
C 870 3699 992 3814 992 3961 
z
M 243 2745 
L 243 2579 
C 602 2579 653 2540 653 2231 
L 653 443 
C 653 198 627 166 218 166 
L 218 0 
C 371 12 646 12 806 12 
C 960 12 1222 12 1370 0 
L 1370 166 
C 992 166 979 205 979 436 
L 979 2816 
L 243 2745 
z
" transform="scale(0.015625)"/>
      <path id="CMR17-79" d="M 2496 2183 
C 2656 2579 2944 2585 3034 2585 
L 3034 2752 
C 2912 2745 2752 2739 2630 2739 
C 2496 2739 2285 2739 2157 2752 
L 2157 2585 
C 2400 2566 2406 2384 2406 2332 
C 2406 2268 2394 2235 2362 2158 
L 1664 409 
L 902 2300 
C 870 2378 870 2423 870 2430 
C 870 2572 1018 2585 1171 2585 
L 1171 2752 
C 1018 2739 742 2739 582 2739 
C 410 2739 205 2739 64 2752 
L 64 2585 
C 410 2585 448 2553 531 2345 
L 1485 -31 
C 1197 -795 1030 -1242 627 -1242 
C 557 -1242 397 -1223 282 -1106 
C 429 -1093 493 -1002 493 -892 
C 493 -782 416 -685 288 -685 
C 147 -685 77 -782 77 -899 
C 77 -1158 339 -1344 627 -1344 
C 998 -1344 1229 -983 1357 -659 
L 2496 2183 
z
" transform="scale(0.015625)"/>
      <path id="CMMI12-4a" d="M 3418 3911 
C 3469 4102 3482 4166 3795 4166 
C 3898 4166 3962 4166 3962 4281 
C 3962 4352 3904 4352 3878 4352 
C 3770 4352 3648 4339 3533 4339 
L 3181 4339 
C 2912 4339 2630 4352 2362 4352 
C 2304 4352 2227 4352 2227 4236 
C 2227 4172 2278 4172 2278 4166 
L 2438 4166 
C 2950 4166 2950 4115 2950 4019 
C 2950 4013 2950 3968 2925 3866 
L 2189 953 
C 2022 304 1594 0 1286 0 
C 1069 0 762 99 685 428 
C 710 422 742 415 768 415 
C 979 415 1146 601 1146 787 
C 1146 889 1082 1024 890 1024 
C 774 1024 506 959 506 543 
C 506 149 838 -128 1299 -128 
C 1882 -128 2509 304 2662 908 
L 3418 3911 
z
" transform="scale(0.015625)"/>
      <path id="CMR17-64" d="M 1869 4345 
L 1869 4179 
C 2246 4179 2304 4141 2304 3843 
L 2304 2371 
C 2278 2403 2016 2816 1498 2816 
C 845 2816 211 2228 211 1376 
C 211 529 806 -64 1434 -64 
C 1978 -64 2259 361 2291 406 
L 2291 -64 
L 3066 -13 
L 3066 154 
C 2688 154 2630 193 2630 503 
L 2630 4416 
L 1869 4345 
z
M 2291 762 
C 2291 568 2176 393 2029 264 
C 1811 70 1594 38 1472 38 
C 1286 38 621 135 621 1369 
C 621 2636 1363 2713 1530 2713 
C 1824 2713 2061 2545 2208 2313 
C 2291 2177 2291 2157 2291 2041 
L 2291 762 
z
" transform="scale(0.015625)"/>
      <path id="CMR17-50" d="M 1267 2048 
L 2291 2048 
C 3117 2048 3718 2583 3718 3187 
C 3718 3791 3130 4352 2291 4352 
L 333 4352 
L 333 4185 
C 774 4185 845 4185 845 3899 
L 845 453 
C 845 166 774 166 333 166 
L 333 0 
C 518 12 858 12 1056 12 
C 1254 12 1594 12 1779 0 
L 1779 166 
C 1338 166 1267 166 1267 453 
L 1267 2048 
z
M 1254 2182 
L 1254 3937 
C 1254 4153 1267 4185 1523 4185 
L 2170 4185 
C 2995 4185 3232 3715 3232 3187 
C 3232 2608 2950 2182 2170 2182 
L 1254 2182 
z
" transform="scale(0.015625)"/>
      <path id="CMR17-6f" d="M 2758 1356 
C 2758 2176 2163 2816 1466 2816 
C 768 2816 173 2176 173 1356 
C 173 550 768 -64 1466 -64 
C 2163 -64 2758 550 2758 1356 
z
M 1466 51 
C 1165 51 909 230 762 480 
C 602 768 582 1126 582 1408 
C 582 1676 595 2009 762 2297 
C 890 2508 1139 2713 1466 2713 
C 1754 2713 1997 2553 2150 2329 
C 2349 2028 2349 1606 2349 1408 
C 2349 1158 2336 774 2163 467 
C 1984 172 1709 51 1466 51 
z
" transform="scale(0.015625)"/>
      <path id="CMR17-77" d="M 3725 2186 
C 3853 2566 4109 2579 4205 2585 
L 4205 2752 
C 4077 2745 3949 2739 3821 2739 
C 3699 2739 3424 2739 3315 2752 
L 3315 2585 
C 3514 2572 3622 2456 3622 2296 
C 3622 2251 3610 2193 3597 2148 
L 2995 398 
L 2342 2296 
C 2330 2341 2310 2392 2310 2418 
C 2310 2585 2528 2585 2630 2585 
L 2630 2752 
C 2483 2739 2214 2739 2061 2739 
C 1901 2739 1734 2739 1587 2752 
L 1587 2585 
C 1939 2585 1939 2572 2074 2167 
L 1485 443 
L 851 2302 
C 819 2386 819 2399 819 2418 
C 819 2585 1037 2585 1139 2585 
L 1139 2752 
C 986 2739 717 2739 557 2739 
C 416 2739 198 2739 64 2752 
L 64 2585 
C 346 2585 416 2566 486 2353 
L 1274 38 
C 1299 -45 1318 -64 1370 -64 
C 1414 -64 1440 -52 1472 44 
L 2131 1987 
L 2797 44 
C 2829 -52 2854 -64 2899 -64 
C 2950 -64 2970 -45 2995 38 
L 3725 2186 
z
" transform="scale(0.015625)"/>
      <path id="CMR17-75" d="M 1882 2745 
L 1882 2579 
C 2259 2579 2317 2540 2317 2229 
L 2317 1053 
C 2317 510 2029 38 1555 38 
C 1030 38 986 355 986 691 
L 986 2816 
L 211 2745 
L 211 2579 
C 467 2579 640 2579 646 2320 
L 646 1079 
C 646 646 646 368 813 187 
C 896 103 1056 -64 1517 -64 
C 2061 -64 2272 400 2323 536 
L 2330 536 
L 2330 -64 
L 3091 -13 
L 3091 154 
C 2714 154 2656 193 2656 503 
L 2656 2816 
L 1882 2745 
z
" transform="scale(0.015625)"/>
      <path id="CMR17-6d" d="M 4326 1954 
C 4326 2276 4269 2816 3507 2816 
C 3072 2816 2771 2520 2656 2173 
L 2650 2173 
C 2573 2700 2195 2816 1837 2816 
C 1331 2816 1069 2424 973 2166 
L 966 2166 
L 966 2816 
L 211 2745 
L 211 2578 
C 589 2578 646 2540 646 2231 
L 646 443 
C 646 198 621 166 211 166 
L 211 0 
C 365 12 646 12 813 12 
C 979 12 1267 12 1421 0 
L 1421 166 
C 1011 166 986 192 986 443 
L 986 1678 
C 986 2269 1344 2713 1792 2713 
C 2266 2713 2317 2289 2317 1980 
L 2317 443 
C 2317 198 2291 166 1882 166 
L 1882 0 
C 2035 12 2317 12 2483 12 
C 2650 12 2938 12 3091 0 
L 3091 166 
C 2682 166 2656 192 2656 443 
L 2656 1678 
C 2656 2269 3014 2713 3462 2713 
C 3936 2713 3987 2289 3987 1980 
L 3987 443 
C 3987 198 3962 166 3552 166 
L 3552 0 
C 3706 12 3987 12 4154 12 
C 4320 12 4608 12 4762 0 
L 4762 166 
C 4352 166 4326 192 4326 443 
L 4326 1954 
z
" transform="scale(0.015625)"/>
      <path id="CMMI12-53" d="M 4064 4422 
C 4064 4480 4019 4480 4006 4480 
C 3981 4480 3974 4473 3898 4377 
C 3859 4332 3597 4002 3590 3996 
C 3379 4409 2957 4480 2688 4480 
C 1875 4480 1139 3742 1139 3024 
C 1139 2547 1427 2268 1741 2160 
C 1811 2134 2189 2033 2381 1988 
C 2707 1899 2790 1874 2925 1734 
C 2950 1702 3078 1556 3078 1258 
C 3078 667 2528 57 1888 57 
C 1363 57 781 279 781 991 
C 781 1112 806 1264 826 1328 
C 826 1347 832 1378 832 1391 
C 832 1417 819 1448 768 1448 
C 710 1448 704 1436 678 1328 
L 352 25 
C 352 19 326 -64 326 -71 
C 326 -128 378 -128 390 -128 
C 416 -128 422 -122 499 -26 
L 794 356 
C 947 127 1280 -128 1875 -128 
C 2701 -128 3456 667 3456 1461 
C 3456 1728 3392 1963 3149 2198 
C 3014 2331 2899 2363 2310 2516 
C 1882 2630 1824 2649 1709 2751 
C 1600 2859 1517 3011 1517 3227 
C 1517 3761 2061 4307 2669 4307 
C 3296 4307 3590 3926 3590 3322 
C 3590 3157 3558 2986 3558 2960 
C 3558 2903 3610 2903 3629 2903 
C 3686 2903 3693 2922 3718 3024 
L 4064 4422 
z
" transform="scale(0.015625)"/>
     </defs>
     <use xlink:href="#CMR17-53" transform="scale(0.996264)"/>
     <use xlink:href="#CMR17-70" transform="translate(50.89537 0) scale(0.996264)"/>
     <use xlink:href="#CMR17-65" transform="translate(104.393178 0) scale(0.996264)"/>
     <use xlink:href="#CMR17-63" transform="translate(144.878839 0) scale(0.996264)"/>
     <use xlink:href="#CMR17-74" transform="translate(185.364499 0) scale(0.996264)"/>
     <use xlink:href="#CMR17-72" transform="translate(220.645267 0) scale(0.996264)"/>
     <use xlink:href="#CMR17-61" transform="translate(255.926035 0) scale(0.996264)"/>
     <use xlink:href="#CMR17-6c" transform="translate(301.616512 0) scale(0.996264)"/>
     <use xlink:href="#CMR17-44" transform="translate(356.563537 0) scale(0.996264)"/>
     <use xlink:href="#CMR17-65" transform="translate(426.957093 0) scale(0.996264)"/>
     <use xlink:href="#CMR17-6e" transform="translate(467.442753 0) scale(0.996264)"/>
     <use xlink:href="#CMR17-73" transform="translate(518.338123 0) scale(0.996264)"/>
     <use xlink:href="#CMR17-69" transform="translate(554.139461 0) scale(0.996264)"/>
     <use xlink:href="#CMR17-74" transform="translate(579.010519 0) scale(0.996264)"/>
     <use xlink:href="#CMR17-79" transform="translate(611.688833 0) scale(0.996264)"/>
     <use xlink:href="#CMMI12-4a" transform="translate(690.057715 0) scale(0.996264)"/>
     <use xlink:href="#CMR17-61" transform="translate(783.276352 0) scale(0.996264)"/>
     <use xlink:href="#CMR17-6e" transform="translate(828.966829 0) scale(0.996264)"/>
     <use xlink:href="#CMR17-64" transform="translate(879.862199 0) scale(0.996264)"/>
     <use xlink:href="#CMR17-50" transform="translate(960.833535 0) scale(0.996264)"/>
     <use xlink:href="#CMR17-6f" transform="translate(1020.817382 0) scale(0.996264)"/>
     <use xlink:href="#CMR17-77" transform="translate(1063.905405 0) scale(0.996264)"/>
     <use xlink:href="#CMR17-65" transform="translate(1127.812831 0) scale(0.996264)"/>
     <use xlink:href="#CMR17-72" transform="translate(1168.298492 0) scale(0.996264)"/>
     <use xlink:href="#CMR17-53" transform="translate(1233.655226 0) scale(0.996264)"/>
     <use xlink:href="#CMR17-70" transform="translate(1284.550596 0) scale(0.996264)"/>
     <use xlink:href="#CMR17-65" transform="translate(1338.048404 0) scale(0.996264)"/>
     <use xlink:href="#CMR17-63" transform="translate(1378.534065 0) scale(0.996264)"/>
     <use xlink:href="#CMR17-74" transform="translate(1419.019725 0) scale(0.996264)"/>
     <use xlink:href="#CMR17-72" transform="translate(1454.300493 0) scale(0.996264)"/>
     <use xlink:href="#CMR17-75" transform="translate(1489.581261 0) scale(0.996264)"/>
     <use xlink:href="#CMR17-6d" transform="translate(1540.476631 0) scale(0.996264)"/>
     <use xlink:href="#CMMI12-53" transform="translate(1647.472187 0) scale(0.996264)"/>
    </g>
   </g>
   <g id="legend_1">
    <g id="patch_7">
     <path d="M 549.670905 218.148465 
L 670 218.148465 
Q 674 218.148465 674 214.148465 
L 674 96.585802 
Q 674 92.585802 670 92.585802 
L 549.670905 92.585802 
Q 545.670905 92.585802 545.670905 96.585802 
L 545.670905 214.148465 
Q 545.670905 218.148465 549.670905 218.148465 
L 549.670905 218.148465 
z
" style="fill: none; opacity: 0.8; stroke: #cccccc; stroke-linejoin: miter"/>
    </g>
    <g id="line2d_13">
     <path d="M 553.670905 108.511824 
L 573.670905 108.511824 
L 593.670905 108.511824 
" style="fill: none; stroke: #2ca02c; stroke-width: 1.5; stroke-linecap: square"/>
    </g>
    <g id="text_12">
     <!-- $J(\omega)$ p -->
     <g transform="translate(609.670905 115.511824) scale(0.2 -0.2)">
      <use xlink:href="#CMMI12-4a" transform="scale(0.996264)"/>
      <use xlink:href="#CMR17-28" transform="translate(63.142671 0) scale(0.996264)"/>
      <use xlink:href="#CMMI12-21" transform="translate(98.423438 0) scale(0.996264)"/>
      <use xlink:href="#CMR17-29" transform="translate(162.741784 0) scale(0.996264)"/>
      <use xlink:href="#CMR17-70" transform="translate(228.098518 0) scale(0.996264)"/>
     </g>
    </g>
    <g id="line2d_14">
     <path d="M 553.670905 138.40249 
L 573.670905 138.40249 
L 593.670905 138.40249 
" style="fill: none; stroke-dasharray: 5.55,2.4; stroke-dashoffset: 0; stroke: #d62728; stroke-width: 1.5"/>
    </g>
    <g id="text_13">
     <!-- $S(\omega)$ p -->
     <g transform="translate(609.670905 145.40249) scale(0.2 -0.2)">
      <use xlink:href="#CMMI12-53" transform="scale(0.996264)"/>
      <use xlink:href="#CMR17-28" transform="translate(65.794439 0) scale(0.996264)"/>
      <use xlink:href="#CMMI12-21" transform="translate(101.075207 0) scale(0.996264)"/>
      <use xlink:href="#CMR17-29" transform="translate(165.393553 0) scale(0.996264)"/>
      <use xlink:href="#CMR17-70" transform="translate(230.750287 0) scale(0.996264)"/>
     </g>
    </g>
    <g id="line2d_15">
     <path d="M 553.670905 168.293155 
L 573.670905 168.293155 
L 593.670905 168.293155 
" style="fill: none; stroke: #1f77b4; stroke-width: 1.5; stroke-linecap: square"/>
    </g>
    <g id="text_14">
     <!-- $J(\omega)$ q -->
     <g transform="translate(609.670905 175.293155) scale(0.2 -0.2)">
      <defs>
       <path id="CMR17-71" d="M 2630 2816 
L 2528 2816 
L 2336 2177 
C 2189 2519 1920 2816 1491 2816 
C 838 2816 211 2228 211 1376 
C 211 529 800 -64 1440 -64 
C 1933 -64 2208 316 2291 458 
L 2291 -834 
C 2291 -1081 2266 -1114 1856 -1114 
L 1856 -1280 
C 2010 -1268 2291 -1268 2458 -1268 
C 2624 -1268 2912 -1268 3066 -1280 
L 3066 -1114 
C 2656 -1114 2630 -1088 2630 -834 
L 2630 2816 
z
M 2304 871 
C 2304 594 2074 335 2054 316 
C 1856 90 1626 38 1472 38 
C 992 38 621 652 621 1369 
C 621 2125 1043 2700 1536 2700 
C 2048 2700 2304 2112 2304 1776 
L 2304 871 
z
" transform="scale(0.015625)"/>
      </defs>
      <use xlink:href="#CMMI12-4a" transform="scale(0.996264)"/>
      <use xlink:href="#CMR17-28" transform="translate(63.142671 0) scale(0.996264)"/>
      <use xlink:href="#CMMI12-21" transform="translate(98.423438 0) scale(0.996264)"/>
      <use xlink:href="#CMR17-29" transform="translate(162.741784 0) scale(0.996264)"/>
      <use xlink:href="#CMR17-71" transform="translate(228.098518 0) scale(0.996264)"/>
     </g>
    </g>
    <g id="line2d_16">
     <path d="M 553.670905 198.183821 
L 573.670905 198.183821 
L 593.670905 198.183821 
" style="fill: none; stroke-dasharray: 5.55,2.4; stroke-dashoffset: 0; stroke: #ff7f0e; stroke-width: 1.5"/>
    </g>
    <g id="text_15">
     <!-- $S(\omega)$ q -->
     <g transform="translate(609.670905 205.183821) scale(0.2 -0.2)">
      <use xlink:href="#CMMI12-53" transform="scale(0.996264)"/>
      <use xlink:href="#CMR17-28" transform="translate(65.794439 0) scale(0.996264)"/>
      <use xlink:href="#CMMI12-21" transform="translate(101.075207 0) scale(0.996264)"/>
      <use xlink:href="#CMR17-29" transform="translate(165.393553 0) scale(0.996264)"/>
      <use xlink:href="#CMR17-71" transform="translate(230.750287 0) scale(0.996264)"/>
     </g>
    </g>
   </g>
  </g>
  <g id="axes_2">
   <g id="patch_8">
    <path d="M 62.760863 503.654739 
L 684 503.654739 
L 684 338.157724 
L 62.760863 338.157724 
L 62.760863 503.654739 
z
" style="fill: none"/>
   </g>
   <g id="matplotlib.axis_3">
    <g id="xtick_6">
     <g id="line2d_17">
      <g>
       <use xlink:href="#mf2d98da86b" x="147.475291" y="503.654739" style="stroke: #000000; stroke-width: 0.8"/>
      </g>
     </g>
     <g id="text_16">
      <!-- $\mathdefault{−20}$ -->
      <g transform="translate(130.588452 524.491736) scale(0.2 -0.2)">
       <use xlink:href="#CMSY10-0" transform="scale(0.996264)"/>
       <use xlink:href="#CMR17-32" transform="translate(77.487468 0) scale(0.996264)"/>
       <use xlink:href="#CMR17-30" transform="translate(123.177945 0) scale(0.996264)"/>
      </g>
     </g>
    </g>
    <g id="xtick_7">
     <g id="line2d_18">
      <g>
       <use xlink:href="#mf2d98da86b" x="260.427861" y="503.654739" style="stroke: #000000; stroke-width: 0.8"/>
      </g>
     </g>
     <g id="text_17">
      <!-- $\mathdefault{−10}$ -->
      <g transform="translate(243.541022 524.491736) scale(0.2 -0.2)">
       <use xlink:href="#CMSY10-0" transform="scale(0.996264)"/>
       <use xlink:href="#CMR17-31" transform="translate(77.487468 0) scale(0.996264)"/>
       <use xlink:href="#CMR17-30" transform="translate(123.177945 0) scale(0.996264)"/>
      </g>
     </g>
    </g>
    <g id="xtick_8">
     <g id="line2d_19">
      <g>
       <use xlink:href="#mf2d98da86b" x="373.380432" y="503.654739" style="stroke: #000000; stroke-width: 0.8"/>
      </g>
     </g>
     <g id="text_18">
      <!-- $\mathdefault{0}$ -->
      <g transform="translate(368.811384 524.491736) scale(0.2 -0.2)">
       <use xlink:href="#CMR17-30" transform="scale(0.996264)"/>
      </g>
     </g>
    </g>
    <g id="xtick_9">
     <g id="line2d_20">
      <g>
       <use xlink:href="#mf2d98da86b" x="486.333002" y="503.654739" style="stroke: #000000; stroke-width: 0.8"/>
      </g>
     </g>
     <g id="text_19">
      <!-- $\mathdefault{10}$ -->
      <g transform="translate(477.194906 524.491736) scale(0.2 -0.2)">
       <use xlink:href="#CMR17-31" transform="scale(0.996264)"/>
       <use xlink:href="#CMR17-30" transform="translate(45.690477 0) scale(0.996264)"/>
      </g>
     </g>
    </g>
    <g id="xtick_10">
     <g id="line2d_21">
      <g>
       <use xlink:href="#mf2d98da86b" x="599.285572" y="503.654739" style="stroke: #000000; stroke-width: 0.8"/>
      </g>
     </g>
     <g id="text_20">
      <!-- $\mathdefault{20}$ -->
      <g transform="translate(590.147477 524.491736) scale(0.2 -0.2)">
       <use xlink:href="#CMR17-32" transform="scale(0.996264)"/>
       <use xlink:href="#CMR17-30" transform="translate(45.690477 0) scale(0.996264)"/>
      </g>
     </g>
    </g>
    <g id="text_21">
     <!-- Time $t \tilde{\omega}_{\text{c}}$ -->
     <g transform="translate(336.862353 546.204366) scale(0.2 -0.2)">
      <defs>
       <path id="CMR17-54" d="M 3981 4332 
L 288 4332 
L 179 2924 
L 294 2924 
C 378 3981 467 4166 1453 4166 
C 1568 4166 1754 4166 1805 4159 
C 1926 4140 1926 4064 1926 3917 
L 1926 465 
C 1926 236 1907 166 1376 166 
L 1197 166 
L 1197 0 
C 1504 6 1824 12 2138 12 
C 2451 12 2771 6 3078 0 
L 3078 166 
L 2899 166 
C 2368 166 2349 236 2349 465 
L 2349 3917 
C 2349 4057 2349 4134 2464 4159 
C 2515 4166 2701 4166 2816 4166 
C 3795 4166 3891 3981 3974 2924 
L 4090 2924 
L 3981 4332 
z
" transform="scale(0.015625)"/>
       <path id="CMMI12-74" d="M 1286 2566 
L 1875 2566 
C 1997 2566 2061 2566 2061 2681 
C 2061 2752 2022 2752 1894 2752 
L 1331 2752 
L 1568 3664 
C 1594 3752 1594 3764 1594 3808 
C 1594 3910 1510 3968 1427 3968 
C 1376 3968 1229 3948 1178 3746 
L 928 2752 
L 326 2752 
C 198 2752 141 2752 141 2630 
C 141 2566 186 2566 307 2566 
L 877 2566 
L 454 881 
C 403 657 384 593 384 510 
C 384 210 595 -64 954 -64 
C 1600 -64 1946 868 1946 913 
C 1946 951 1920 970 1882 970 
C 1869 970 1843 970 1830 944 
C 1824 938 1818 932 1773 830 
C 1638 510 1344 64 973 64 
C 781 64 768 223 768 364 
C 768 370 768 491 787 568 
L 1286 2566 
z
" transform="scale(0.015625)"/>
      </defs>
      <use xlink:href="#CMR17-54" transform="scale(0.996264)"/>
      <use xlink:href="#CMR17-69" transform="translate(66.509881 0) scale(0.996264)"/>
      <use xlink:href="#CMR17-6d" transform="translate(91.380939 0) scale(0.996264)"/>
      <use xlink:href="#CMR17-65" transform="translate(168.300529 0) scale(0.996264)"/>
      <use xlink:href="#CMMI12-74" transform="translate(238.862156 0) scale(0.996264)"/>
      <use xlink:href="#CMR17-7e" transform="translate(283.40242 0.006461) scale(0.996264)"/>
      <use xlink:href="#CMMI12-21" transform="translate(274.088486 0) scale(0.996264)"/>
      <use xlink:href="#CMR17-63" transform="translate(334.832239 -14.943915) scale(0.697382)"/>
     </g>
    </g>
   </g>
   <g id="matplotlib.axis_4">
    <g id="ytick_4">
     <g id="line2d_22">
      <g>
       <use xlink:href="#m36bcf9b2b7" x="62.760863" y="497.947033" style="stroke: #000000; stroke-width: 0.8"/>
      </g>
     </g>
     <g id="text_22">
      <!-- $\mathdefault{−1}$ -->
      <g transform="translate(31.12528 504.865532) scale(0.2 -0.2)">
       <use xlink:href="#CMSY10-0" transform="scale(0.996264)"/>
       <use xlink:href="#CMR17-31" transform="translate(77.487468 0) scale(0.996264)"/>
      </g>
     </g>
    </g>
    <g id="ytick_5">
     <g id="line2d_23">
      <g>
       <use xlink:href="#m36bcf9b2b7" x="62.760863" y="421.813674" style="stroke: #000000; stroke-width: 0.8"/>
      </g>
     </g>
     <g id="text_23">
      <!-- $\mathdefault{0}$ -->
      <g transform="translate(46.622768 428.732173) scale(0.2 -0.2)">
       <use xlink:href="#CMR17-30" transform="scale(0.996264)"/>
      </g>
     </g>
    </g>
    <g id="ytick_6">
     <g id="line2d_24">
      <g>
       <use xlink:href="#m36bcf9b2b7" x="62.760863" y="345.680316" style="stroke: #000000; stroke-width: 0.8"/>
      </g>
     </g>
     <g id="text_24">
      <!-- $\mathdefault{1}$ -->
      <g transform="translate(46.622768 352.598814) scale(0.2 -0.2)">
       <use xlink:href="#CMR17-31" transform="scale(0.996264)"/>
      </g>
     </g>
    </g>
    <g id="text_25">
     <!-- $f / \text{max}|C|$ -->
     <g transform="translate(22.14396 461.975542) rotate(-90) scale(0.2 -0.2)">
      <defs>
       <path id="CMR17-78" d="M 1664 1491 
C 1856 1740 2074 2022 2253 2233 
C 2464 2476 2707 2579 2989 2585 
L 2989 2752 
C 2880 2745 2656 2739 2541 2739 
C 2368 2739 2170 2739 2022 2752 
L 2022 2585 
C 2112 2572 2163 2508 2163 2419 
C 2163 2304 2099 2233 2067 2188 
L 1594 1587 
L 1030 2323 
C 973 2393 973 2406 973 2438 
C 973 2515 1037 2579 1146 2585 
L 1146 2752 
C 992 2739 717 2739 557 2739 
C 384 2739 179 2739 38 2752 
L 38 2585 
C 384 2585 461 2560 614 2368 
L 1350 1414 
C 1363 1401 1395 1363 1395 1344 
C 1395 1318 838 633 768 544 
C 480 198 179 172 6 166 
L 6 0 
C 115 6 339 12 454 12 
C 582 12 864 12 979 0 
L 979 166 
C 941 172 838 185 838 332 
C 838 448 890 518 947 595 
L 1478 1248 
L 2035 524 
C 2086 454 2163 358 2163 313 
C 2163 224 2086 172 1984 166 
L 1984 0 
C 2138 12 2413 12 2573 12 
C 2746 12 2950 12 3091 0 
L 3091 166 
C 2771 166 2675 179 2522 377 
L 1664 1491 
z
" transform="scale(0.015625)"/>
       <path id="CMSY10-6a" d="M 1018 4569 
C 1018 4684 1018 4800 890 4800 
C 762 4800 762 4684 762 4569 
L 762 -1370 
C 762 -1485 762 -1600 890 -1600 
C 1018 -1600 1018 -1485 1018 -1370 
L 1018 4569 
z
" transform="scale(0.015625)"/>
       <path id="CMMI12-43" d="M 4781 4422 
C 4781 4480 4736 4480 4723 4480 
C 4710 4480 4685 4480 4634 4415 
L 4192 3881 
C 3968 4262 3616 4480 3136 4480 
C 1754 4480 320 3087 320 1594 
C 320 533 1069 -128 2003 -128 
C 2515 -128 2963 89 3334 400 
C 3891 864 4058 1480 4058 1531 
C 4058 1588 4006 1588 3987 1588 
C 3930 1588 3923 1550 3910 1524 
C 3616 533 2752 57 2112 57 
C 1434 57 845 489 845 1391 
C 845 1594 909 2699 1632 3531 
C 1984 3938 2586 4294 3194 4294 
C 3898 4294 4211 3716 4211 3068 
C 4211 2903 4192 2763 4192 2737 
C 4192 2680 4256 2680 4275 2680 
C 4346 2680 4352 2687 4378 2801 
L 4781 4422 
z
" transform="scale(0.015625)"/>
      </defs>
      <use xlink:href="#CMMI12-66" transform="scale(0.996264)"/>
      <use xlink:href="#CMMI12-3d" transform="translate(58.720305 0) scale(0.996264)"/>
      <use xlink:href="#CMR17-6d" transform="translate(107.495224 0) scale(0.996264)"/>
      <use xlink:href="#CMR17-61" transform="translate(184.414813 0) scale(0.996264)"/>
      <use xlink:href="#CMR17-78" transform="translate(230.105291 0) scale(0.996264)"/>
      <use xlink:href="#CMSY10-6a" transform="translate(278.398206 0) scale(0.996264)"/>
      <use xlink:href="#CMMI12-43" transform="translate(306.072291 0) scale(0.996264)"/>
      <use xlink:href="#CMSY10-6a" transform="translate(383.019138 0) scale(0.996264)"/>
     </g>
    </g>
   </g>
   <g id="line2d_25">
    <path d="M 91.201525 421.890902 
L 92.619509 421.735411 
L 94.037494 421.892989 
L 95.455478 421.733292 
L 96.873462 421.895141 
L 98.291447 421.731106 
L 99.709431 421.897362 
L 101.127416 421.72885 
L 102.5454 421.899653 
L 103.963385 421.726523 
L 105.381369 421.902018 
L 106.799354 421.724119 
L 108.217338 421.904461 
L 109.635323 421.721637 
L 111.053307 421.906983 
L 112.471291 421.719073 
L 113.889276 421.90959 
L 115.30726 421.716423 
L 116.725245 421.912284 
L 118.143229 421.713684 
L 119.561214 421.91507 
L 120.979198 421.710851 
L 122.397183 421.917951 
L 123.815167 421.70792 
L 125.233152 421.920932 
L 126.651136 421.704888 
L 128.06912 421.924018 
L 129.487105 421.701748 
L 130.905089 421.927213 
L 132.323074 421.698496 
L 133.741058 421.930522 
L 135.159043 421.695127 
L 136.577027 421.933952 
L 137.995012 421.691635 
L 139.412996 421.937508 
L 140.830981 421.688014 
L 142.248965 421.941196 
L 143.66695 421.684258 
L 145.084934 421.945022 
L 146.502918 421.68036 
L 147.920903 421.948994 
L 149.338887 421.676312 
L 150.756872 421.953119 
L 152.174856 421.672108 
L 153.592841 421.957404 
L 155.010825 421.667739 
L 156.42881 421.961859 
L 157.846794 421.663196 
L 159.264779 421.966493 
L 160.682763 421.65847 
L 162.100747 421.971313 
L 163.518732 421.653551 
L 164.936716 421.976332 
L 166.354701 421.64843 
L 167.772685 421.98156 
L 169.19067 421.643093 
L 170.608654 421.987008 
L 172.026639 421.63753 
L 173.444623 421.992689 
L 174.862608 421.631728 
L 176.280592 421.998617 
L 177.698576 421.625672 
L 179.116561 422.004805 
L 180.534545 421.619347 
L 181.95253 422.011269 
L 183.370514 421.612739 
L 184.788499 422.018026 
L 186.206483 421.605829 
L 187.624468 422.025094 
L 189.042452 421.598599 
L 190.460437 422.032491 
L 191.878421 421.591029 
L 193.296405 422.040239 
L 194.71439 421.583098 
L 196.132374 422.048359 
L 197.550359 421.574782 
L 198.968343 422.056877 
L 200.386328 421.566056 
L 201.804312 422.065818 
L 203.222297 421.556893 
L 204.640281 422.07521 
L 206.058266 421.547264 
L 207.47625 422.085085 
L 208.894235 421.537136 
L 210.312219 422.095475 
L 211.730203 421.526474 
L 213.148188 422.106418 
L 214.566172 421.515241 
L 215.984157 422.117952 
L 217.402141 421.503395 
L 218.820126 422.130121 
L 220.23811 421.490891 
L 221.656095 422.142972 
L 223.074079 421.477679 
L 224.492064 422.156558 
L 225.910048 421.463706 
L 227.328032 422.170934 
L 228.746017 421.448911 
L 230.164001 422.186163 
L 231.581986 421.43323 
L 232.99997 422.202314 
L 234.417955 421.416591 
L 235.835939 422.219461 
L 237.253924 421.398914 
L 238.671908 422.237689 
L 240.089893 421.380112 
L 241.507877 422.25709 
L 242.925861 421.360088 
L 244.343846 422.277765 
L 245.76183 421.338733 
L 247.179815 422.299829 
L 248.597799 421.315928 
L 250.015784 422.323409 
L 251.433768 421.291539 
L 252.851753 422.348644 
L 254.269737 421.265417 
L 255.687722 422.375694 
L 257.105706 421.237395 
L 258.523691 422.404736 
L 259.941675 421.207284 
L 261.359659 422.435968 
L 262.777644 421.174874 
L 264.195628 422.469616 
L 265.613613 421.139925 
L 267.031597 422.505933 
L 268.449582 421.102167 
L 269.867566 422.545208 
L 271.285551 421.061293 
L 272.703535 422.587769 
L 274.12152 421.016952 
L 275.539504 422.63399 
L 276.957488 420.968744 
L 278.375473 422.6843 
L 279.793457 420.91621 
L 281.211442 422.739191 
L 282.629426 420.858819 
L 284.047411 422.799233 
L 285.465395 420.795961 
L 286.88338 422.865085 
L 288.301364 420.726924 
L 289.719349 422.937515 
L 291.137333 420.650879 
L 292.555317 423.017418 
L 293.973302 420.566854 
L 295.391286 423.105849 
L 296.809271 420.473707 
L 298.227255 423.204051 
L 299.64524 420.370083 
L 301.063224 423.313499 
L 302.481209 420.25437 
L 303.899193 423.435957 
L 305.317178 420.124641 
L 306.735162 423.573537 
L 308.153147 419.978572 
L 309.571131 423.728797 
L 310.989115 419.813346 
L 312.4071 423.904846 
L 313.825084 419.625524 
L 315.243069 424.105495 
L 316.661053 419.410876 
L 318.079038 424.33545 
L 319.497022 419.164154 
L 320.915007 424.600573 
L 322.332991 418.878796 
L 323.750976 424.908227 
L 325.16896 418.546521 
L 326.586944 425.267751 
L 328.004929 418.156772 
L 329.422913 425.691108 
L 330.840898 417.695953 
L 332.258882 426.193793 
L 333.676867 417.146353 
L 335.094851 426.796112 
L 336.512836 416.484619 
L 337.93082 427.525016 
L 339.348805 415.679534 
L 340.766789 428.416794 
L 342.184773 414.68874 
L 343.602758 429.521115 
L 345.020742 413.453712 
L 346.438727 430.907318 
L 347.856711 411.891777 
L 349.274696 432.674696 
L 350.69268 409.882663 
L 352.110665 434.970366 
L 353.528649 407.244402 
L 354.946634 438.022171 
L 356.364618 403.688126 
L 357.782603 442.200457 
L 359.200587 398.735627 
L 360.618571 448.122107 
L 362.036556 391.603319 
L 363.45454 456.742944 
L 364.872525 381.222782 
L 366.290509 469.043252 
L 367.708494 367.146406 
L 369.126478 484.179429 
L 370.544463 352.469001 
L 371.962447 496.132148 
L 373.380432 345.680316 
L 374.798416 496.132148 
L 376.2164 352.469001 
L 377.634385 484.179429 
L 379.052369 367.146406 
L 380.470354 469.043252 
L 381.888338 381.222782 
L 383.306323 456.742944 
L 384.724307 391.603319 
L 386.142292 448.122107 
L 387.560276 398.735627 
L 388.978261 442.200457 
L 390.396245 403.688126 
L 391.814229 438.022171 
L 393.232214 407.244402 
L 394.650198 434.970366 
L 396.068183 409.882663 
L 397.486167 432.674696 
L 398.904152 411.891777 
L 400.322136 430.907318 
L 401.740121 413.453712 
L 403.158105 429.521115 
L 404.57609 414.68874 
L 405.994074 428.416794 
L 407.412059 415.679534 
L 408.830043 427.525016 
L 410.248027 416.484619 
L 411.666012 426.796112 
L 413.083996 417.146353 
L 414.501981 426.193793 
L 415.919965 417.695953 
L 417.33795 425.691108 
L 418.755934 418.156772 
L 420.173919 425.267751 
L 421.591903 418.546521 
L 423.009888 424.908227 
L 424.427872 418.878796 
L 425.845856 424.600573 
L 427.263841 419.164154 
L 428.681825 424.33545 
L 430.09981 419.410876 
L 431.517794 424.105495 
L 432.935779 419.625524 
L 434.353763 423.904846 
L 435.771748 419.813346 
L 437.189732 423.728797 
L 438.607717 419.978572 
L 440.025701 423.573537 
L 441.443685 420.124641 
L 442.86167 423.435957 
L 444.279654 420.25437 
L 445.697639 423.313499 
L 447.115623 420.370083 
L 448.533608 423.204051 
L 449.951592 420.473707 
L 451.369577 423.105849 
L 452.787561 420.566854 
L 454.205546 423.017418 
L 455.62353 420.650879 
L 457.041514 422.937515 
L 458.459499 420.726924 
L 459.877483 422.865085 
L 461.295468 420.795961 
L 462.713452 422.799233 
L 464.131437 420.858819 
L 465.549421 422.739191 
L 466.967406 420.91621 
L 468.38539 422.6843 
L 469.803375 420.968744 
L 471.221359 422.63399 
L 472.639344 421.016952 
L 474.057328 422.587769 
L 475.475312 421.061293 
L 476.893297 422.545208 
L 478.311281 421.102167 
L 479.729266 422.505933 
L 481.14725 421.139925 
L 482.565235 422.469616 
L 483.983219 421.174874 
L 485.401204 422.435968 
L 486.819188 421.207284 
L 488.237173 422.404736 
L 489.655157 421.237395 
L 491.073141 422.375694 
L 492.491126 421.265417 
L 493.90911 422.348644 
L 495.327095 421.291539 
L 496.745079 422.323409 
L 498.163064 421.315928 
L 499.581048 422.299829 
L 500.999033 421.338733 
L 502.417017 422.277765 
L 503.835002 421.360088 
L 505.252986 422.25709 
L 506.67097 421.380112 
L 508.088955 422.237689 
L 509.506939 421.398914 
L 510.924924 422.219461 
L 512.342908 421.416591 
L 513.760893 422.202314 
L 515.178877 421.43323 
L 516.596862 422.186163 
L 518.014846 421.448911 
L 519.432831 422.170934 
L 520.850815 421.463706 
L 522.2688 422.156558 
L 523.686784 421.477679 
L 525.104768 422.142972 
L 526.522753 421.490891 
L 527.940737 422.130121 
L 529.358722 421.503395 
L 530.776706 422.117952 
L 532.194691 421.515241 
L 533.612675 422.106418 
L 535.03066 421.526474 
L 536.448644 422.095475 
L 537.866629 421.537136 
L 539.284613 422.085085 
L 540.702597 421.547264 
L 542.120582 422.07521 
L 543.538566 421.556893 
L 544.956551 422.065818 
L 546.374535 421.566056 
L 547.79252 422.056877 
L 549.210504 421.574782 
L 550.628489 422.048359 
L 552.046473 421.583098 
L 553.464458 422.040239 
L 554.882442 421.591029 
L 556.300426 422.032491 
L 557.718411 421.598599 
L 559.136395 422.025094 
L 560.55438 421.605829 
L 561.972364 422.018026 
L 563.390349 421.612739 
L 564.808333 422.011269 
L 566.226318 421.619347 
L 567.644302 422.004805 
L 569.062287 421.625672 
L 570.480271 421.998617 
L 571.898256 421.631728 
L 573.31624 421.992689 
L 574.734224 421.63753 
L 576.152209 421.987008 
L 577.570193 421.643093 
L 578.988178 421.98156 
L 580.406162 421.64843 
L 581.824147 421.976332 
L 583.242131 421.653551 
L 584.660116 421.971313 
L 586.0781 421.65847 
L 587.496085 421.966493 
L 588.914069 421.663196 
L 590.332053 421.961859 
L 591.750038 421.667739 
L 593.168022 421.957404 
L 594.586007 421.672108 
L 596.003991 421.953119 
L 597.421976 421.676312 
L 598.83996 421.948994 
L 600.257945 421.68036 
L 601.675929 421.945022 
L 603.093914 421.684258 
L 604.511898 421.941196 
L 605.929882 421.688014 
L 607.347867 421.937508 
L 608.765851 421.691635 
L 610.183836 421.933952 
L 611.60182 421.695127 
L 613.019805 421.930522 
L 614.437789 421.698496 
L 615.855774 421.927213 
L 617.273758 421.701748 
L 618.691743 421.924018 
L 620.109727 421.704888 
L 621.527712 421.920932 
L 622.945696 421.70792 
L 624.36368 421.917951 
L 625.781665 421.710851 
L 627.199649 421.91507 
L 628.617634 421.713684 
L 630.035618 421.912284 
L 631.453603 421.716423 
L 632.871587 421.90959 
L 634.289572 421.719073 
L 635.707556 421.906983 
L 637.125541 421.721637 
L 638.543525 421.904461 
L 639.961509 421.724119 
L 641.379494 421.902018 
L 642.797478 421.726523 
L 644.215463 421.899653 
L 645.633447 421.72885 
L 647.051432 421.897362 
L 648.469416 421.731106 
L 649.887401 421.895141 
L 651.305385 421.733292 
L 652.72337 421.892989 
L 654.141354 421.735411 
L 655.559338 421.890902 
L 655.559338 421.890902 
" clip-path="url(#pf243b9aea5)" style="fill: none; stroke-dasharray: 1.5,2.475; stroke-dashoffset: 0; stroke: #1f77b4; stroke-width: 1.5"/>
   </g>
   <g id="line2d_26">
    <path d="M 91.201525 421.874711 
L 92.619509 421.752196 
L 94.037494 421.875599 
L 95.455478 421.7513 
L 96.873462 421.876505 
L 98.291447 421.750384 
L 99.709431 421.87743 
L 101.127416 421.749448 
L 102.5454 421.878376 
L 103.963385 421.748492 
L 105.381369 421.879343 
L 106.799354 421.747514 
L 108.217338 421.880332 
L 109.635323 421.746515 
L 111.053307 421.881343 
L 112.471291 421.745492 
L 113.889276 421.882377 
L 115.30726 421.744445 
L 116.725245 421.883437 
L 118.143229 421.743373 
L 119.561214 421.884521 
L 120.979198 421.742276 
L 122.397183 421.885632 
L 123.815167 421.741151 
L 125.233152 421.886771 
L 126.651136 421.739998 
L 128.06912 421.887938 
L 129.487105 421.738816 
L 130.905089 421.889136 
L 132.323074 421.737603 
L 133.741058 421.890365 
L 135.159043 421.736358 
L 136.577027 421.891626 
L 137.995012 421.735079 
L 139.412996 421.892922 
L 140.830981 421.733766 
L 142.248965 421.894253 
L 143.66695 421.732416 
L 145.084934 421.895622 
L 146.502918 421.731027 
L 147.920903 421.89703 
L 149.338887 421.729599 
L 150.756872 421.89848 
L 152.174856 421.728129 
L 153.592841 421.899972 
L 155.010825 421.726614 
L 156.42881 421.901509 
L 157.846794 421.725053 
L 159.264779 421.903094 
L 160.682763 421.723444 
L 162.100747 421.904729 
L 163.518732 421.721784 
L 164.936716 421.906416 
L 166.354701 421.720069 
L 167.772685 421.908158 
L 169.19067 421.718298 
L 170.608654 421.909958 
L 172.026639 421.716468 
L 173.444623 421.91182 
L 174.862608 421.714574 
L 176.280592 421.913746 
L 177.698576 421.712614 
L 179.116561 421.915741 
L 180.534545 421.710584 
L 181.95253 421.917808 
L 183.370514 421.708479 
L 184.788499 421.919952 
L 186.206483 421.706295 
L 187.624468 421.922176 
L 189.042452 421.704028 
L 190.460437 421.924487 
L 191.878421 421.701672 
L 193.296405 421.926889 
L 194.71439 421.699222 
L 196.132374 421.929389 
L 197.550359 421.696672 
L 198.968343 421.931992 
L 200.386328 421.694015 
L 201.804312 421.934705 
L 203.222297 421.691244 
L 204.640281 421.937536 
L 206.058266 421.688351 
L 207.47625 421.940493 
L 208.894235 421.685328 
L 210.312219 421.943584 
L 211.730203 421.682166 
L 213.148188 421.946819 
L 214.566172 421.678854 
L 215.984157 421.95021 
L 217.402141 421.675382 
L 218.820126 421.953767 
L 220.23811 421.671737 
L 221.656095 421.957503 
L 223.074079 421.667906 
L 224.492064 421.961432 
L 225.910048 421.663875 
L 227.328032 421.965571 
L 228.746017 421.659626 
L 230.164001 421.969935 
L 231.581986 421.655141 
L 232.99997 421.974544 
L 234.417955 421.650402 
L 235.835939 421.97942 
L 237.253924 421.645384 
L 238.671908 421.984585 
L 240.089893 421.640064 
L 241.507877 421.990067 
L 242.925861 421.634414 
L 244.343846 421.995894 
L 245.76183 421.628401 
L 247.179815 422.0021 
L 248.597799 421.621992 
L 250.015784 422.008723 
L 251.433768 421.615146 
L 252.851753 422.015804 
L 254.269737 421.607818 
L 255.687722 422.023391 
L 257.105706 421.599958 
L 258.523691 422.031538 
L 259.941675 421.591508 
L 261.359659 422.040308 
L 262.777644 421.582401 
L 264.195628 422.04977 
L 265.613613 421.572562 
L 267.031597 422.060008 
L 268.449582 421.561903 
L 269.867566 422.071113 
L 271.285551 421.550324 
L 272.703535 422.083195 
L 274.12152 421.537707 
L 275.539504 422.096381 
L 276.957488 421.523917 
L 278.375473 422.110816 
L 279.793457 421.508794 
L 281.211442 422.126674 
L 282.629426 421.49215 
L 284.047411 422.144159 
L 285.465395 421.473763 
L 286.88338 422.163512 
L 288.301364 421.453372 
L 289.719349 422.18502 
L 291.137333 421.430661 
L 292.555317 422.209028 
L 293.973302 421.405253 
L 295.391286 422.235951 
L 296.809271 421.37669 
L 298.227255 422.266293 
L 299.64524 421.344416 
L 301.063224 422.300668 
L 302.481209 421.30775 
L 303.899193 422.339835 
L 305.317178 421.265849 
L 306.735162 422.384732 
L 308.153147 421.217663 
L 309.571131 422.436534 
L 310.989115 421.161877 
L 312.4071 422.496721 
L 313.825084 421.096821 
L 315.243069 422.567177 
L 316.661053 421.02036 
L 318.079038 422.650327 
L 319.497022 420.929737 
L 320.915007 422.749319 
L 322.332991 420.821348 
L 323.750976 422.868291 
L 325.16896 420.690428 
L 326.586944 423.012742 
L 328.004929 420.530605 
L 329.422913 423.190082 
L 330.840898 420.33324 
L 332.258882 423.410417 
L 333.676867 420.086467 
L 335.094851 423.687727 
L 336.512836 419.773758 
L 337.93082 424.041618 
L 339.348805 419.371778 
L 340.766789 424.499957 
L 342.184773 418.84715 
L 343.602758 425.102825 
L 345.020742 418.15164 
L 346.438727 425.908344 
L 347.856711 417.215193 
L 349.274696 427.000829 
L 350.69268 415.936727 
L 352.110665 428.500556 
L 353.528649 414.175011 
L 354.946634 430.569671 
L 356.364618 411.75095 
L 357.782603 433.392506 
L 359.200587 408.500935 
L 360.618571 437.061253 
L 362.036556 404.495098 
L 363.45454 441.193043 
L 364.872525 400.654372 
L 366.290509 444.039392 
L 367.708494 399.82634 
L 369.126478 441.612073 
L 370.544463 406.602215 
L 371.962447 430.138663 
L 374.798416 413.488686 
L 376.2164 437.025134 
L 377.634385 402.015276 
L 379.052369 443.801009 
L 380.470354 399.587957 
L 381.888338 442.972977 
L 383.306323 402.434306 
L 384.724307 439.132251 
L 386.142292 406.566096 
L 387.560276 435.126414 
L 388.978261 410.234843 
L 390.396245 431.876399 
L 391.814229 413.057677 
L 393.232214 429.452338 
L 394.650198 415.126793 
L 396.068183 427.690622 
L 397.486167 416.626519 
L 398.904152 426.412156 
L 400.322136 417.719005 
L 401.740121 425.475709 
L 403.158105 418.524524 
L 404.57609 424.780199 
L 405.994074 419.127392 
L 407.412059 424.255571 
L 408.830043 419.585731 
L 410.248027 423.853591 
L 411.666012 419.939622 
L 413.083996 423.540882 
L 414.501981 420.216932 
L 415.919965 423.294109 
L 417.33795 420.437267 
L 418.755934 423.096744 
L 420.173919 420.614606 
L 421.591903 422.936921 
L 423.009888 420.759058 
L 424.427872 422.806001 
L 425.845856 420.878029 
L 427.263841 422.697611 
L 428.681825 420.977022 
L 430.09981 422.606989 
L 431.517794 421.060172 
L 432.935779 422.530528 
L 434.353763 421.130628 
L 435.771748 422.465472 
L 437.189732 421.190815 
L 438.607717 422.409686 
L 440.025701 421.242617 
L 441.443685 422.3615 
L 442.86167 421.287514 
L 444.279654 422.319599 
L 445.697639 421.326681 
L 447.115623 422.282932 
L 448.533608 421.361056 
L 449.951592 422.250659 
L 451.369577 421.391398 
L 452.787561 422.222096 
L 454.205546 421.418321 
L 455.62353 422.196688 
L 457.041514 421.442329 
L 458.459499 422.173977 
L 459.877483 421.463837 
L 461.295468 422.153585 
L 462.713452 421.48319 
L 464.131437 422.135199 
L 465.549421 421.500675 
L 466.967406 422.118555 
L 468.38539 421.516533 
L 469.803375 422.103432 
L 471.221359 421.530968 
L 472.639344 422.089642 
L 474.057328 421.544153 
L 475.475312 422.077025 
L 476.893297 421.556236 
L 478.311281 422.065446 
L 479.729266 421.567341 
L 481.14725 422.054787 
L 482.565235 421.577579 
L 483.983219 422.044948 
L 485.401204 421.587041 
L 486.819188 422.035841 
L 488.237173 421.595811 
L 489.655157 422.027391 
L 491.073141 421.603958 
L 492.491126 422.019531 
L 493.90911 421.611545 
L 495.327095 422.012203 
L 496.745079 421.618626 
L 498.163064 422.005357 
L 499.581048 421.625249 
L 500.999033 421.998948 
L 502.417017 421.631455 
L 503.835002 421.992935 
L 505.252986 421.637282 
L 506.67097 421.987285 
L 508.088955 421.642764 
L 509.506939 421.981965 
L 510.924924 421.647929 
L 512.342908 421.976947 
L 513.760893 421.652805 
L 515.178877 421.972208 
L 516.596862 421.657414 
L 518.014846 421.967723 
L 519.432831 421.661778 
L 520.850815 421.963474 
L 522.2688 421.665917 
L 523.686784 421.959443 
L 525.104768 421.669846 
L 526.522753 421.955612 
L 527.940737 421.673582 
L 529.358722 421.951967 
L 530.776706 421.677139 
L 532.194691 421.948495 
L 533.612675 421.680529 
L 535.03066 421.945183 
L 536.448644 421.683765 
L 537.866629 421.942021 
L 539.284613 421.686856 
L 540.702597 421.938998 
L 542.120582 421.689813 
L 543.538566 421.936105 
L 544.956551 421.692644 
L 546.374535 421.933334 
L 547.79252 421.695357 
L 549.210504 421.930677 
L 550.628489 421.69796 
L 552.046473 421.928127 
L 553.464458 421.700459 
L 554.882442 421.925677 
L 556.300426 421.702862 
L 557.718411 421.923321 
L 559.136395 421.705172 
L 560.55438 421.921054 
L 561.972364 421.707397 
L 563.390349 421.91887 
L 564.808333 421.709541 
L 566.226318 421.916765 
L 567.644302 421.711608 
L 569.062287 421.914735 
L 570.480271 421.713603 
L 571.898256 421.912775 
L 573.31624 421.715529 
L 574.734224 421.910881 
L 576.152209 421.717391 
L 577.570193 421.90905 
L 578.988178 421.719191 
L 580.406162 421.90728 
L 581.824147 421.720933 
L 583.242131 421.905565 
L 584.660116 421.72262 
L 586.0781 421.903905 
L 587.496085 421.724255 
L 588.914069 421.902295 
L 590.332053 421.72584 
L 591.750038 421.900735 
L 593.168022 421.727377 
L 594.586007 421.89922 
L 596.003991 421.728869 
L 597.421976 421.89775 
L 598.83996 421.730318 
L 600.257945 421.896321 
L 601.675929 421.731727 
L 603.093914 421.894933 
L 604.511898 421.733095 
L 605.929882 421.893583 
L 607.347867 421.734427 
L 608.765851 421.89227 
L 610.183836 421.735723 
L 611.60182 421.890991 
L 613.019805 421.736984 
L 614.437789 421.889746 
L 615.855774 421.738213 
L 617.273758 421.888533 
L 618.691743 421.739411 
L 620.109727 421.887351 
L 621.527712 421.740578 
L 622.945696 421.886198 
L 624.36368 421.741717 
L 625.781665 421.885073 
L 627.199649 421.742828 
L 628.617634 421.883976 
L 630.035618 421.743912 
L 631.453603 421.882904 
L 632.871587 421.744971 
L 634.289572 421.881857 
L 635.707556 421.746006 
L 637.125541 421.880834 
L 638.543525 421.747017 
L 639.961509 421.879835 
L 641.379494 421.748006 
L 642.797478 421.878857 
L 644.215463 421.748973 
L 645.633447 421.877901 
L 647.051432 421.749919 
L 648.469416 421.876965 
L 649.887401 421.750844 
L 651.305385 421.876049 
L 652.72337 421.75175 
L 654.141354 421.875152 
L 655.559338 421.752638 
L 655.559338 421.752638 
" clip-path="url(#pf243b9aea5)" style="fill: none; stroke-dasharray: 5.55,2.4; stroke-dashoffset: 0; stroke: #ff7f0e; stroke-width: 1.5"/>
   </g>
   <g id="line2d_27">
    <path d="M 91.201525 421.715239 
L 206.058266 421.519259 
L 252.851753 421.241793 
L 278.375473 420.893739 
L 295.391286 420.454251 
L 306.735162 419.963479 
L 315.243069 419.401164 
L 322.332991 418.715574 
L 328.004929 417.938212 
L 332.258882 417.151591 
L 336.512836 416.107529 
L 339.348805 415.211362 
L 342.184773 414.09584 
L 345.020742 412.68682 
L 347.856711 410.877949 
L 349.274696 409.777547 
L 350.69268 408.513767 
L 352.110665 407.055188 
L 353.528649 405.363359 
L 354.946634 403.391328 
L 356.364618 401.082203 
L 357.782603 398.3682 
L 359.200587 395.171127 
L 360.618571 391.406073 
L 362.036556 386.991287 
L 363.45454 381.86854 
L 364.872525 376.038828 
L 370.544463 350.820209 
L 371.962447 347.030382 
L 373.380432 345.680316 
L 374.798416 347.030382 
L 376.2164 350.820209 
L 377.634385 356.380778 
L 381.888338 376.038828 
L 383.306323 381.86854 
L 384.724307 386.991287 
L 386.142292 391.406073 
L 387.560276 395.171127 
L 388.978261 398.3682 
L 390.396245 401.082203 
L 391.814229 403.391328 
L 393.232214 405.363359 
L 394.650198 407.055188 
L 396.068183 408.513767 
L 397.486167 409.777547 
L 400.322136 411.840678 
L 403.158105 413.433749 
L 405.994074 414.685049 
L 408.830043 415.683165 
L 411.666012 416.490447 
L 415.919965 417.437909 
L 420.173919 418.157391 
L 425.845856 418.873907 
L 432.935779 419.511093 
L 441.443685 420.03802 
L 452.787561 420.501665 
L 468.38539 420.893739 
L 491.073141 421.213802 
L 526.522753 421.461062 
L 588.914069 421.639039 
L 655.559338 421.715239 
L 655.559338 421.715239 
" clip-path="url(#pf243b9aea5)" style="fill: none; stroke: #8c564b; stroke-width: 1.5; stroke-linecap: square"/>
   </g>
   <g id="line2d_28">
    <path d="M 90.999006 421.710318 
L 207.456611 421.510049 
L 253.813521 421.23028 
L 279.818618 420.867007 
L 296.213135 420.43463 
L 308.085027 419.909683 
L 316.564949 419.332171 
L 323.348888 418.663021 
L 329.002169 417.881761 
L 333.524795 417.035691 
L 337.482092 416.064365 
L 340.874061 414.983111 
L 343.700702 413.851708 
L 345.962015 412.74138 
L 348.223328 411.394972 
L 350.48464 409.757028 
L 352.180625 408.276006 
L 353.876609 406.517955 
L 355.572594 404.417092 
L 357.268578 401.891298 
L 358.964563 398.793048 
L 360.095219 396.3257 
L 361.225876 393.466182 
L 362.356532 390.147038 
L 363.487188 386.302081 
L 364.617845 381.881146 
L 366.313829 374.083705 
L 370.836455 351.16622 
L 371.967111 347.477592 
L 372.532439 346.313505 
L 373.097767 345.697476 
L 373.663096 345.697476 
L 374.228424 346.313505 
L 374.793752 347.477592 
L 375.35908 349.118806 
L 376.489737 353.548906 
L 378.185721 362.018912 
L 381.012362 376.844853 
L 382.708347 384.166085 
L 384.404331 390.147038 
L 385.534987 393.466182 
L 387.230972 397.604189 
L 388.926956 400.93039 
L 390.622941 403.628472 
L 392.318926 405.859128 
L 394.01491 407.723866 
L 395.710895 409.290601 
L 397.972207 411.015844 
L 400.23352 412.428791 
L 402.494833 413.593593 
L 405.321474 414.775486 
L 408.148115 415.733511 
L 411.540084 416.650331 
L 415.497381 417.489669 
L 420.020006 418.223852 
L 425.673288 418.911776 
L 432.457226 419.508498 
L 441.502477 420.058141 
L 452.809041 420.509835 
L 468.63823 420.89959 
L 491.251357 421.213359 
L 525.736376 421.453489 
L 586.791819 421.630827 
L 655.761857 421.710318 
L 655.761857 421.710318 
" clip-path="url(#pf243b9aea5)" style="fill: none; stroke-dasharray: 1.5,2.475; stroke-dashoffset: 0; stroke: #2ca02c; stroke-width: 1.5"/>
   </g>
   <g id="line2d_29">
    <path d="M 90.999006 421.809765 
L 298.474448 421.593441 
L 317.130278 421.318232 
L 327.306185 420.937445 
L 333.524795 420.512363 
L 338.612748 419.949542 
L 342.570046 419.262751 
L 345.396687 418.581596 
L 347.657999 417.848023 
L 349.919312 416.916591 
L 352.180625 415.711921 
L 353.876609 414.562773 
L 355.572594 413.168367 
L 357.268578 411.501325 
L 358.964563 409.528549 
L 361.225876 406.425701 
L 364.617845 401.653521 
L 365.748501 400.604069 
L 366.313829 400.310372 
L 366.879157 400.21262 
L 367.444486 400.350603 
L 368.009814 400.765873 
L 368.575142 401.499981 
L 369.14047 402.594479 
L 369.705798 404.090919 
L 370.271127 406.022288 
L 371.401783 411.005353 
L 373.097767 420.197318 
L 375.35908 432.621995 
L 376.489737 437.605061 
L 377.055065 439.53643 
L 377.620393 441.03287 
L 378.185721 442.127368 
L 378.751049 442.861476 
L 379.316377 443.276746 
L 379.881706 443.414729 
L 380.447034 443.316977 
L 381.012362 443.02328 
L 382.143018 441.973828 
L 383.273675 440.507113 
L 387.7963 434.0988 
L 389.492285 432.126024 
L 391.188269 430.458982 
L 392.884254 429.064576 
L 394.580238 427.915428 
L 396.841551 426.710758 
L 399.102864 425.779326 
L 401.929505 424.890616 
L 404.756146 424.251697 
L 408.713443 423.599494 
L 413.236068 423.114986 
L 418.88935 422.719694 
L 427.369273 422.37552 
L 438.110508 422.145024 
L 462.41962 421.947033 
L 499.73128 421.859897 
L 573.789271 421.825669 
L 655.761857 421.817584 
L 655.761857 421.817584 
" clip-path="url(#pf243b9aea5)" style="fill: none; stroke-dasharray: 5.55,2.4; stroke-dashoffset: 0; stroke: #d62728; stroke-width: 1.5"/>
   </g>
   <g id="line2d_30">
    <path d="M 90.999006 421.710244 
L 208.021939 421.507232 
L 253.248193 421.233318 
L 279.25329 420.87136 
L 295.647807 420.440377 
L 307.519699 419.914028 
L 315.999621 419.333593 
L 322.783559 418.656311 
L 327.871513 417.950446 
L 332.394138 417.114282 
L 336.351436 416.144228 
L 339.178077 415.261256 
L 342.004718 414.160536 
L 344.26603 413.086256 
L 346.527343 411.770686 
L 348.788656 410.152189 
L 350.48464 408.696054 
L 352.180625 406.964437 
L 353.876609 404.886341 
L 355.572594 402.387341 
L 357.268578 399.380537 
L 358.964563 395.720121 
L 360.660547 391.250177 
L 362.356532 385.850257 
L 364.052517 379.432193 
L 365.748501 372.094038 
L 369.705798 353.844704 
L 370.836455 349.894949 
L 371.967111 347.058881 
L 372.532439 346.160256 
L 373.097767 345.680316 
L 373.663096 345.680316 
L 374.228424 346.160256 
L 374.793752 347.058881 
L 375.35908 348.319704 
L 376.489737 351.746232 
L 377.620393 356.163449 
L 379.316377 364.010021 
L 381.57769 374.633478 
L 383.273675 381.682416 
L 384.969659 387.760335 
L 386.665644 392.838175 
L 388.361628 397.022886 
L 390.057613 400.447398 
L 391.753597 403.271704 
L 393.449582 405.622114 
L 395.145566 407.576556 
L 396.841551 409.208615 
L 399.102864 411.002733 
L 401.364176 412.462868 
L 403.625489 413.649153 
L 406.45213 414.848916 
L 409.278771 415.814675 
L 412.67074 416.728331 
L 416.628037 417.56455 
L 421.715991 418.368583 
L 427.369273 419.023239 
L 434.153211 419.592442 
L 443.198462 420.11875 
L 454.505025 420.549908 
L 470.899543 420.935163 
L 493.51267 421.233318 
L 529.693673 421.4708 
L 595.83707 421.645264 
L 655.761857 421.710244 
L 655.761857 421.710244 
" clip-path="url(#pf243b9aea5)" style="fill: none; stroke: #9467bd; stroke-width: 1.5; stroke-linecap: square"/>
   </g>
   <g id="patch_9">
    <path d="M 62.760863 503.654739 
L 62.760863 338.157724 
" style="fill: none; stroke: #000000; stroke-width: 0.8; stroke-linejoin: miter; stroke-linecap: square"/>
   </g>
   <g id="patch_10">
    <path d="M 684 503.654739 
L 684 338.157724 
" style="fill: none; stroke: #000000; stroke-width: 0.8; stroke-linejoin: miter; stroke-linecap: square"/>
   </g>
   <g id="patch_11">
    <path d="M 62.760863 503.654739 
L 684 503.654739 
" style="fill: none; stroke: #000000; stroke-width: 0.8; stroke-linejoin: miter; stroke-linecap: square"/>
   </g>
   <g id="patch_12">
    <path d="M 62.760863 338.157724 
L 684 338.157724 
" style="fill: none; stroke: #000000; stroke-width: 0.8; stroke-linejoin: miter; stroke-linecap: square"/>
   </g>
   <g id="text_26">
    <!-- Correlation Function $ C $ -->
    <g transform="translate(280.212341 332.157724) scale(0.2 -0.2)">
     <defs>
      <path id="CMR17-43" d="M 3974 4351 
C 3974 4467 3968 4473 3930 4473 
C 3904 4473 3898 4467 3853 4390 
L 3571 3849 
C 3258 4249 2874 4480 2381 4480 
C 1286 4480 294 3507 294 2179 
C 294 837 1286 -128 2387 -128 
C 3366 -128 3974 741 3974 1482 
C 3974 1547 3974 1573 3917 1573 
C 3866 1573 3866 1553 3859 1495 
C 3808 592 3168 38 2477 38 
C 1824 38 781 502 781 2179 
C 781 3862 1843 4313 2464 4313 
C 3187 4313 3712 3681 3834 2785 
C 3846 2707 3846 2695 3904 2695 
C 3974 2695 3974 2707 3974 2824 
L 3974 4351 
z
" transform="scale(0.015625)"/>
      <path id="CMR17-46" d="M 3482 4339 
L 326 4339 
L 326 4172 
C 768 4172 838 4172 838 3883 
L 838 450 
C 838 166 768 166 326 166 
L 326 0 
C 512 12 870 12 1069 12 
C 1331 12 1638 12 1901 0 
L 1901 166 
L 1760 166 
C 1274 166 1261 229 1261 456 
L 1261 2073 
L 1837 2073 
C 2432 2073 2490 1865 2490 1334 
L 2605 1334 
L 2605 2991 
L 2490 2991 
C 2490 2451 2432 2240 1837 2240 
L 1261 2240 
L 1261 3922 
C 1261 4140 1274 4172 1530 4172 
L 2355 4172 
C 3322 4172 3430 3774 3520 2920 
L 3635 2920 
L 3482 4339 
z
" transform="scale(0.015625)"/>
     </defs>
     <use xlink:href="#CMR17-43" transform="scale(0.996264)"/>
     <use xlink:href="#CMR17-6f" transform="translate(66.509881 0) scale(0.996264)"/>
     <use xlink:href="#CMR17-72" transform="translate(112.200358 0) scale(0.996264)"/>
     <use xlink:href="#CMR17-72" transform="translate(147.481125 0) scale(0.996264)"/>
     <use xlink:href="#CMR17-65" transform="translate(182.761893 0) scale(0.996264)"/>
     <use xlink:href="#CMR17-6c" transform="translate(223.247554 0) scale(0.996264)"/>
     <use xlink:href="#CMR17-61" transform="translate(248.118612 0) scale(0.996264)"/>
     <use xlink:href="#CMR17-74" transform="translate(293.809089 0) scale(0.996264)"/>
     <use xlink:href="#CMR17-69" transform="translate(329.089857 0) scale(0.996264)"/>
     <use xlink:href="#CMR17-6f" transform="translate(353.960916 0) scale(0.996264)"/>
     <use xlink:href="#CMR17-6e" transform="translate(399.651393 0) scale(0.996264)"/>
     <use xlink:href="#CMR17-46" transform="translate(480.622729 0) scale(0.996264)"/>
     <use xlink:href="#CMR17-75" transform="translate(532.79932 0) scale(0.996264)"/>
     <use xlink:href="#CMR17-6e" transform="translate(583.69469 0) scale(0.996264)"/>
     <use xlink:href="#CMR17-63" transform="translate(634.59006 0) scale(0.996264)"/>
     <use xlink:href="#CMR17-74" transform="translate(675.07572 0) scale(0.996264)"/>
     <use xlink:href="#CMR17-69" transform="translate(710.356488 0) scale(0.996264)"/>
     <use xlink:href="#CMR17-6f" transform="translate(735.227546 0) scale(0.996264)"/>
     <use xlink:href="#CMR17-6e" transform="translate(780.918023 0) scale(0.996264)"/>
     <use xlink:href="#CMMI12-43" transform="translate(861.88936 0) scale(0.996264)"/>
    </g>
   </g>
   <g id="legend_2">
    <g id="patch_13">
     <path d="M 521.398813 533.570948 
L 670 533.570948 
Q 674 533.570948 674 529.570948 
L 674 352.157724 
Q 674 348.157724 670 348.157724 
L 521.398813 348.157724 
Q 517.398813 348.157724 517.398813 352.157724 
L 517.398813 529.570948 
Q 517.398813 533.570948 521.398813 533.570948 
L 521.398813 533.570948 
z
" style="fill: none; opacity: 0.8; stroke: #cccccc; stroke-linejoin: miter"/>
    </g>
    <g id="line2d_31">
     <path d="M 525.398813 364.083746 
L 545.398813 364.083746 
L 565.398813 364.083746 
" style="fill: none; stroke-dasharray: 1.5,2.475; stroke-dashoffset: 0; stroke: #1f77b4; stroke-width: 1.5"/>
    </g>
    <g id="text_27">
     <!-- $\mathrm{Re}[C(t)]$ p -->
     <g transform="translate(581.398813 371.083746) scale(0.2 -0.2)">
      <defs>
       <path id="CMR17-52" d="M 2509 2156 
C 3117 2278 3629 2689 3629 3203 
C 3629 3806 2950 4352 2054 4352 
L 333 4352 
L 333 4185 
C 774 4185 845 4185 845 3896 
L 845 428 
C 845 140 774 140 333 140 
L 333 -26 
C 518 -13 851 -13 1050 -13 
C 1248 -13 1581 -13 1766 -26 
L 1766 140 
C 1325 140 1254 140 1254 428 
L 1254 2112 
L 2003 2112 
C 2368 2112 2573 1964 2662 1881 
C 2918 1632 2918 1459 2918 1024 
C 2918 595 2918 377 3110 160 
C 3354 -103 3680 -128 3821 -128 
C 4294 -128 4365 403 4365 512 
C 4365 550 4365 595 4307 595 
C 4256 595 4250 556 4250 531 
C 4218 115 4032 -26 3834 -26 
C 3482 -26 3443 377 3405 768 
C 3386 902 3373 998 3360 1139 
C 3322 1459 3270 1926 2509 2156 
z
M 1984 2214 
L 1254 2214 
L 1254 3935 
C 1254 4153 1267 4185 1523 4185 
L 1990 4185 
C 2522 4185 3142 3999 3142 3203 
C 3142 2374 2464 2214 1984 2214 
z
" transform="scale(0.015625)"/>
       <path id="CMR17-5b" d="M 1504 -1600 
L 1504 -1376 
L 902 -1376 
L 902 4575 
L 1504 4575 
L 1504 4800 
L 678 4800 
L 678 -1600 
L 1504 -1600 
z
" transform="scale(0.015625)"/>
       <path id="CMR17-5d" d="M 915 4800 
L 90 4800 
L 90 4575 
L 691 4575 
L 691 -1376 
L 90 -1376 
L 90 -1600 
L 915 -1600 
L 915 4800 
z
" transform="scale(0.015625)"/>
      </defs>
      <use xlink:href="#CMR17-52" transform="scale(0.996264)"/>
      <use xlink:href="#CMR17-65" transform="translate(67.791102 0) scale(0.996264)"/>
      <use xlink:href="#CMR17-5b" transform="translate(108.276762 0) scale(0.996264)"/>
      <use xlink:href="#CMMI12-43" transform="translate(133.147821 0) scale(0.996264)"/>
      <use xlink:href="#CMR17-28" transform="translate(210.094668 0) scale(0.996264)"/>
      <use xlink:href="#CMMI12-74" transform="translate(245.375435 0) scale(0.996264)"/>
      <use xlink:href="#CMR17-29" transform="translate(280.601766 0) scale(0.996264)"/>
      <use xlink:href="#CMR17-5d" transform="translate(315.882533 0) scale(0.996264)"/>
      <use xlink:href="#CMR17-70" transform="translate(370.829558 0) scale(0.996264)"/>
     </g>
    </g>
    <g id="line2d_32">
     <path d="M 525.398813 393.974412 
L 545.398813 393.974412 
L 565.398813 393.974412 
" style="fill: none; stroke-dasharray: 5.55,2.4; stroke-dashoffset: 0; stroke: #ff7f0e; stroke-width: 1.5"/>
    </g>
    <g id="text_28">
     <!-- $\mathrm{Im}[C(t)]$ p -->
     <g transform="translate(581.398813 400.974412) scale(0.2 -0.2)">
      <defs>
       <path id="CMR17-49" d="M 1261 3898 
C 1261 4185 1338 4185 1798 4185 
L 1798 4352 
C 1594 4339 1267 4339 1050 4339 
C 832 4339 506 4339 301 4352 
L 301 4185 
C 762 4185 838 4185 838 3898 
L 838 453 
C 838 166 762 166 301 166 
L 301 0 
C 506 12 832 12 1050 12 
C 1267 12 1594 12 1798 0 
L 1798 166 
C 1338 166 1261 166 1261 453 
L 1261 3898 
z
" transform="scale(0.015625)"/>
      </defs>
      <use xlink:href="#CMR17-49" transform="scale(0.996264)"/>
      <use xlink:href="#CMR17-6d" transform="translate(32.638409 0) scale(0.996264)"/>
      <use xlink:href="#CMR17-5b" transform="translate(109.557999 0) scale(0.996264)"/>
      <use xlink:href="#CMMI12-43" transform="translate(134.429058 0) scale(0.996264)"/>
      <use xlink:href="#CMR17-28" transform="translate(211.375904 0) scale(0.996264)"/>
      <use xlink:href="#CMMI12-74" transform="translate(246.656672 0) scale(0.996264)"/>
      <use xlink:href="#CMR17-29" transform="translate(281.883002 0) scale(0.996264)"/>
      <use xlink:href="#CMR17-5d" transform="translate(317.16377 0) scale(0.996264)"/>
      <use xlink:href="#CMR17-70" transform="translate(372.110795 0) scale(0.996264)"/>
     </g>
    </g>
    <g id="line2d_33">
     <path d="M 525.398813 423.883016 
L 545.398813 423.883016 
L 565.398813 423.883016 
" style="fill: none; stroke: #8c564b; stroke-width: 1.5; stroke-linecap: square"/>
    </g>
    <g id="text_29">
     <!-- $|C(t)|$ p -->
     <g transform="translate(581.398813 430.883016) scale(0.2 -0.2)">
      <use xlink:href="#CMSY10-6a" transform="scale(0.996264)"/>
      <use xlink:href="#CMMI12-43" transform="translate(27.674085 0) scale(0.996264)"/>
      <use xlink:href="#CMR17-28" transform="translate(104.620931 0) scale(0.996264)"/>
      <use xlink:href="#CMMI12-74" transform="translate(139.901699 0) scale(0.996264)"/>
      <use xlink:href="#CMR17-29" transform="translate(175.128029 0) scale(0.996264)"/>
      <use xlink:href="#CMSY10-6a" transform="translate(210.408797 0) scale(0.996264)"/>
      <use xlink:href="#CMR17-70" transform="translate(268.158848 0) scale(0.996264)"/>
     </g>
    </g>
    <g id="line2d_34">
     <path d="M 525.398813 453.790358 
L 545.398813 453.790358 
L 565.398813 453.790358 
" style="fill: none; stroke-dasharray: 1.5,2.475; stroke-dashoffset: 0; stroke: #2ca02c; stroke-width: 1.5"/>
    </g>
    <g id="text_30">
     <!-- $\mathrm{Re}[C(t)]$ q -->
     <g transform="translate(581.398813 460.790358) scale(0.2 -0.2)">
      <use xlink:href="#CMR17-52" transform="scale(0.996264)"/>
      <use xlink:href="#CMR17-65" transform="translate(67.791102 0) scale(0.996264)"/>
      <use xlink:href="#CMR17-5b" transform="translate(108.276762 0) scale(0.996264)"/>
      <use xlink:href="#CMMI12-43" transform="translate(133.147821 0) scale(0.996264)"/>
      <use xlink:href="#CMR17-28" transform="translate(210.094668 0) scale(0.996264)"/>
      <use xlink:href="#CMMI12-74" transform="translate(245.375435 0) scale(0.996264)"/>
      <use xlink:href="#CMR17-29" transform="translate(280.601766 0) scale(0.996264)"/>
      <use xlink:href="#CMR17-5d" transform="translate(315.882533 0) scale(0.996264)"/>
      <use xlink:href="#CMR17-71" transform="translate(370.829558 0) scale(0.996264)"/>
     </g>
    </g>
    <g id="line2d_35">
     <path d="M 525.398813 483.681024 
L 545.398813 483.681024 
L 565.398813 483.681024 
" style="fill: none; stroke-dasharray: 5.55,2.4; stroke-dashoffset: 0; stroke: #d62728; stroke-width: 1.5"/>
    </g>
    <g id="text_31">
     <!-- $\mathrm{Im}[C(t)]$ q -->
     <g transform="translate(581.398813 490.681024) scale(0.2 -0.2)">
      <use xlink:href="#CMR17-49" transform="scale(0.996264)"/>
      <use xlink:href="#CMR17-6d" transform="translate(32.638409 0) scale(0.996264)"/>
      <use xlink:href="#CMR17-5b" transform="translate(109.557999 0) scale(0.996264)"/>
      <use xlink:href="#CMMI12-43" transform="translate(134.429058 0) scale(0.996264)"/>
      <use xlink:href="#CMR17-28" transform="translate(211.375904 0) scale(0.996264)"/>
      <use xlink:href="#CMMI12-74" transform="translate(246.656672 0) scale(0.996264)"/>
      <use xlink:href="#CMR17-29" transform="translate(281.883002 0) scale(0.996264)"/>
      <use xlink:href="#CMR17-5d" transform="translate(317.16377 0) scale(0.996264)"/>
      <use xlink:href="#CMR17-71" transform="translate(372.110795 0) scale(0.996264)"/>
     </g>
    </g>
    <g id="line2d_36">
     <path d="M 525.398813 513.589627 
L 545.398813 513.589627 
L 565.398813 513.589627 
" style="fill: none; stroke: #9467bd; stroke-width: 1.5; stroke-linecap: square"/>
    </g>
    <g id="text_32">
     <!-- $|C(t)|$ q -->
     <g transform="translate(581.398813 520.589627) scale(0.2 -0.2)">
      <use xlink:href="#CMSY10-6a" transform="scale(0.996264)"/>
      <use xlink:href="#CMMI12-43" transform="translate(27.674085 0) scale(0.996264)"/>
      <use xlink:href="#CMR17-28" transform="translate(104.620931 0) scale(0.996264)"/>
      <use xlink:href="#CMMI12-74" transform="translate(139.901699 0) scale(0.996264)"/>
      <use xlink:href="#CMR17-29" transform="translate(175.128029 0) scale(0.996264)"/>
      <use xlink:href="#CMSY10-6a" transform="translate(210.408797 0) scale(0.996264)"/>
      <use xlink:href="#CMR17-71" transform="translate(268.158848 0) scale(0.996264)"/>
     </g>
    </g>
   </g>
  </g>
  <g id="text_33">
   <!-- Bath at $\beta$ = 1.00 with QuTiP from $J(\omega)$ -->
   <g transform="translate(147.551194 25.111226) scale(0.24 -0.24)">
    <defs>
     <path id="CMR17-42" d="M 333 4352 
L 333 4185 
C 774 4185 845 4185 845 3897 
L 845 451 
C 845 166 774 166 333 166 
L 333 0 
L 2534 0 
C 3354 0 3885 578 3885 1155 
C 3885 1726 3360 2214 2675 2259 
C 3290 2380 3718 2790 3718 3276 
C 3718 3808 3194 4352 2368 4352 
L 333 4352 
z
M 1248 2304 
L 1248 3936 
C 1248 4153 1261 4185 1517 4185 
L 2336 4185 
C 2970 4185 3251 3673 3251 3276 
C 3251 2790 2861 2304 2170 2304 
L 1248 2304 
z
M 1517 166 
C 1261 166 1248 198 1248 413 
L 1248 2201 
L 2432 2201 
C 3091 2201 3411 1624 3411 1161 
C 3411 698 3046 166 2349 166 
L 1517 166 
z
" transform="scale(0.015625)"/>
     <path id="CMR17-68" d="M 2656 1954 
C 2656 2282 2592 2816 1837 2816 
C 1312 2816 1056 2392 979 2179 
L 973 2179 
L 973 4416 
L 211 4345 
L 211 4179 
C 589 4179 646 4141 646 3843 
L 646 443 
C 646 198 621 166 211 166 
L 211 0 
C 365 12 646 12 813 12 
C 979 12 1267 12 1421 0 
L 1421 166 
C 1011 166 986 192 986 443 
L 986 1678 
C 986 2269 1344 2713 1792 2713 
C 2266 2713 2317 2289 2317 1980 
L 2317 443 
C 2317 198 2291 166 1882 166 
L 1882 0 
C 2035 12 2317 12 2483 12 
C 2650 12 2938 12 3091 0 
L 3091 166 
C 2682 166 2656 192 2656 443 
L 2656 1954 
z
" transform="scale(0.015625)"/>
     <path id="CMMI12-c" d="M 3622 3739 
C 3622 4131 3296 4544 2714 4544 
C 1888 4544 1363 3510 1197 2830 
L 186 -1152 
C 173 -1204 211 -1216 243 -1216 
C 288 -1216 320 -1210 326 -1178 
L 774 592 
C 838 231 1190 -64 1568 -64 
C 2483 -64 3347 657 3347 1618 
C 3347 1863 3290 2108 3155 2314 
C 3078 2437 2982 2527 2880 2599 
C 3341 2823 3622 3222 3622 3739 
z
M 2509 2605 
C 2406 2571 2304 2560 2182 2560 
C 2093 2560 2010 2553 1894 2588 
C 1958 2627 2054 2639 2189 2639 
C 2304 2639 2419 2627 2509 2605 
z
M 3290 3798 
C 3290 3438 3117 2915 2701 2684 
C 2579 2723 2413 2752 2272 2752 
C 2138 2752 1754 2765 1754 2582 
C 1754 2411 2106 2430 2214 2430 
C 2381 2430 2528 2469 2682 2514 
C 2886 2347 2976 2127 2976 1805 
C 2976 1431 2874 1128 2752 850 
C 2541 373 2042 64 1600 64 
C 1133 64 890 438 890 876 
C 890 934 890 1018 915 1115 
L 1331 2784 
C 1542 3641 2080 4413 2701 4413 
C 3162 4413 3290 4086 3290 3798 
z
" transform="scale(0.015625)"/>
     <path id="CMR17-3d" d="M 4115 2048 
C 4211 2048 4307 2048 4307 2156 
C 4307 2272 4198 2272 4090 2272 
L 512 2272 
C 403 2272 294 2272 294 2156 
C 294 2048 390 2048 486 2048 
L 4115 2048 
z
M 4090 927 
C 4198 927 4307 927 4307 1043 
C 4307 1152 4211 1152 4115 1152 
L 486 1152 
C 390 1152 294 1152 294 1043 
C 294 927 403 927 512 927 
L 4090 927 
z
" transform="scale(0.015625)"/>
     <path id="CMR17-2e" d="M 1062 262 
C 1062 422 934 524 800 524 
C 672 524 538 422 538 262 
C 538 102 666 0 800 0 
C 928 0 1062 102 1062 262 
z
" transform="scale(0.015625)"/>
     <path id="CMR17-51" d="M 3027 31 
C 3789 355 4307 1187 4307 2157 
C 4307 3484 3366 4480 2304 4480 
C 1216 4480 294 3471 294 2157 
C 294 863 1216 -128 2304 -128 
C 2451 -128 2656 -109 2899 -26 
C 3008 -813 3078 -1280 3629 -1280 
C 4307 -1280 4339 -277 4339 -96 
C 4339 -32 4339 12 4294 12 
C 4262 12 4256 -32 4256 -45 
C 4211 -665 3866 -794 3661 -794 
C 3283 -794 3149 -452 3027 31 
z
M 1958 38 
C 1293 247 768 954 768 2157 
C 768 3698 1606 4364 2298 4364 
C 3014 4364 3834 3672 3834 2157 
C 3834 1064 3405 463 2976 190 
C 2880 514 2726 896 2310 896 
C 2003 896 1830 628 1830 387 
C 1830 241 1888 120 1958 38 
z
M 2874 133 
C 2618 -1 2413 -13 2304 -13 
C 2016 -13 1933 247 1933 387 
C 1933 584 2067 793 2310 793 
C 2720 793 2822 431 2874 133 
z
" transform="scale(0.015625)"/>
     <path id="CMR17-66" d="M 979 2585 
L 1709 2585 
L 1709 2752 
L 966 2752 
L 966 3539 
C 966 4076 1235 4377 1510 4377 
C 1594 4377 1690 4363 1754 4339 
C 1702 4326 1568 4281 1568 4121 
C 1568 3955 1696 3904 1786 3904 
C 1875 3904 2003 3955 2003 4121 
C 2003 4353 1773 4480 1517 4480 
C 1152 4480 653 4211 653 3526 
L 653 2752 
L 141 2752 
L 141 2585 
L 653 2585 
L 653 441 
C 653 198 627 166 218 166 
L 218 0 
C 371 12 666 12 832 12 
C 1018 12 1344 12 1517 0 
L 1517 166 
C 1056 166 979 166 979 454 
L 979 2585 
z
" transform="scale(0.015625)"/>
    </defs>
    <use xlink:href="#CMR17-42" transform="scale(0.996264)"/>
    <use xlink:href="#CMR17-61" transform="translate(65.188754 0) scale(0.996264)"/>
    <use xlink:href="#CMR17-74" transform="translate(110.879232 0) scale(0.996264)"/>
    <use xlink:href="#CMR17-68" transform="translate(146.159999 0) scale(0.996264)"/>
    <use xlink:href="#CMR17-61" transform="translate(227.131335 0) scale(0.996264)"/>
    <use xlink:href="#CMR17-74" transform="translate(272.821813 0) scale(0.996264)"/>
    <use xlink:href="#CMMI12-c" transform="translate(338.178547 0) scale(0.996264)"/>
    <use xlink:href="#CMR17-3d" transform="translate(428.848529 0) scale(0.996264)"/>
    <use xlink:href="#CMR17-31" transform="translate(530.639284 0) scale(0.996264)"/>
    <use xlink:href="#CMR17-2e" transform="translate(576.329761 0) scale(0.996264)"/>
    <use xlink:href="#CMR17-30" transform="translate(601.200819 0) scale(0.996264)"/>
    <use xlink:href="#CMR17-30" transform="translate(646.891296 0) scale(0.996264)"/>
    <use xlink:href="#CMR17-77" transform="translate(722.65774 0) scale(0.996264)"/>
    <use xlink:href="#CMR17-69" transform="translate(789.16762 0) scale(0.996264)"/>
    <use xlink:href="#CMR17-74" transform="translate(814.038679 0) scale(0.996264)"/>
    <use xlink:href="#CMR17-68" transform="translate(849.319447 0) scale(0.996264)"/>
    <use xlink:href="#CMR17-51" transform="translate(930.290783 0) scale(0.996264)"/>
    <use xlink:href="#CMR17-75" transform="translate(1002.005571 0) scale(0.996264)"/>
    <use xlink:href="#CMR17-54" transform="translate(1052.900941 0) scale(0.996264)"/>
    <use xlink:href="#CMR17-69" transform="translate(1119.410821 0) scale(0.996264)"/>
    <use xlink:href="#CMR17-50" transform="translate(1144.28188 0) scale(0.996264)"/>
    <use xlink:href="#CMR17-66" transform="translate(1236.944147 0) scale(0.996264)"/>
    <use xlink:href="#CMR17-72" transform="translate(1264.417659 0) scale(0.996264)"/>
    <use xlink:href="#CMR17-6f" transform="translate(1299.698427 0) scale(0.996264)"/>
    <use xlink:href="#CMR17-6d" transform="translate(1345.388904 0) scale(0.996264)"/>
    <use xlink:href="#CMMI12-4a" transform="translate(1452.38446 0) scale(0.996264)"/>
    <use xlink:href="#CMR17-28" transform="translate(1515.527131 0) scale(0.996264)"/>
    <use xlink:href="#CMMI12-21" transform="translate(1550.807899 0) scale(0.996264)"/>
    <use xlink:href="#CMR17-29" transform="translate(1615.126245 0) scale(0.996264)"/>
   </g>
  </g>
 </g>
 <defs>
  <clipPath id="p39e2afaba5">
   <rect x="62.760863" y="82.585802" width="621.239137" height="165.497015"/>
  </clipPath>
  <clipPath id="pf243b9aea5">
   <rect x="62.760863" y="338.157724" width="621.239137" height="165.497015"/>
  </clipPath>
 </defs>
</svg>
