<?xml version="1.0" encoding="utf-8" standalone="no"?>
<!DOCTYPE svg PUBLIC "-//W3C//DTD SVG 1.1//EN"
  "http://www.w3.org/Graphics/SVG/1.1/DTD/svg11.dtd">
<svg xmlns:xlink="http://www.w3.org/1999/xlink" width="576pt" height="432pt" viewBox="0 0 576 432" xmlns="http://www.w3.org/2000/svg" version="1.1">
 <metadata>
  <rdf:RDF xmlns:dc="http://purl.org/dc/elements/1.1/" xmlns:cc="http://creativecommons.org/ns#" xmlns:rdf="http://www.w3.org/1999/02/22-rdf-syntax-ns#">
   <cc:Work>
    <dc:type rdf:resource="http://purl.org/dc/dcmitype/StillImage"/>
    <dc:date>2024-11-08T12:18:31.782634</dc:date>
    <dc:format>image/svg+xml</dc:format>
    <dc:creator>
     <cc:Agent>
      <dc:title>Matplotlib v3.8.0, https://matplotlib.org/</dc:title>
     </cc:Agent>
    </dc:creator>
   </cc:Work>
  </rdf:RDF>
 </metadata>
 <defs>
  <style type="text/css">*{stroke-linejoin: round; stroke-linecap: butt}</style>
 </defs>
 <g id="figure_1">
  <g id="patch_1">
   <path d="M 0 432 
L 576 432 
L 576 0 
L 0 0 
L 0 432 
z
" style="fill: none"/>
  </g>
  <g id="axes_1">
   <g id="patch_2">
    <path d="M 77.381897 359.649407 
L 554.4 359.649407 
L 554.4 21.6 
L 77.381897 21.6 
L 77.381897 359.649407 
z
" style="fill: none"/>
   </g>
   <g id="matplotlib.axis_1">
    <g id="xtick_1">
     <g id="line2d_1">
      <defs>
       <path id="mf44eaba4f5" d="M 0 0 
L 0 3.5 
" style="stroke: #000000; stroke-width: 0.8"/>
      </defs>
      <g>
       <use xlink:href="#mf44eaba4f5" x="99.064538" y="359.649407" style="stroke: #000000; stroke-width: 0.8"/>
      </g>
     </g>
     <g id="text_1">
      <!-- $\mathdefault{0}$ -->
      <g transform="translate(94.083218 380.905881) scale(0.2 -0.2)">
       <defs>
        <path id="URWPalladioL-Roma-30" d="M 1683 4416 
C 691 4416 186 3628 186 2076 
C 186 1326 320 679 544 365 
C 768 51 1126 -128 1523 -128 
C 2490 -128 2976 704 2976 2345 
C 2976 3749 2560 4416 1683 4416 
z
M 1568 4191 
C 2189 4191 2438 3563 2438 2025 
C 2438 660 2195 96 1606 96 
C 986 96 723 743 723 2307 
C 723 3660 960 4191 1568 4191 
z
" transform="scale(0.015625)"/>
       </defs>
       <use xlink:href="#URWPalladioL-Roma-30" transform="scale(0.996264)"/>
      </g>
     </g>
    </g>
    <g id="xtick_2">
     <g id="line2d_2">
      <g>
       <use xlink:href="#mf44eaba4f5" x="207.477743" y="359.649407" style="stroke: #000000; stroke-width: 0.8"/>
      </g>
     </g>
     <g id="text_2">
      <!-- $\mathdefault{5}$ -->
      <g transform="translate(202.496423 380.905881) scale(0.2 -0.2)">
       <defs>
        <path id="URWPalladioL-Roma-35" d="M 813 3891 
C 1638 3865 1997 3859 2765 3859 
L 2797 3891 
C 2784 4006 2784 4057 2784 4140 
C 2784 4230 2784 4281 2797 4396 
L 2765 4428 
C 2285 4403 1997 4396 1651 4396 
C 1299 4396 1018 4403 538 4428 
L 506 4396 
C 512 4006 518 3724 518 3520 
C 518 2976 499 2360 480 2076 
L 608 2038 
C 909 2341 1082 2432 1395 2432 
C 2010 2432 2394 1992 2394 1295 
C 2394 579 1984 160 1286 160 
C 941 160 621 276 531 443 
L 237 973 
L 83 882 
C 230 514 307 308 397 25 
C 576 -71 832 -128 1107 -128 
C 1536 -128 1990 57 2342 366 
C 2733 715 2938 1153 2938 1631 
C 2938 2360 2419 2873 1690 2873 
C 1382 2873 1152 2790 755 2553 
L 813 3891 
z
" transform="scale(0.015625)"/>
       </defs>
       <use xlink:href="#URWPalladioL-Roma-35" transform="scale(0.996264)"/>
      </g>
     </g>
    </g>
    <g id="xtick_3">
     <g id="line2d_3">
      <g>
       <use xlink:href="#mf44eaba4f5" x="315.890948" y="359.649407" style="stroke: #000000; stroke-width: 0.8"/>
      </g>
     </g>
     <g id="text_3">
      <!-- $\mathdefault{10}$ -->
      <g transform="translate(305.928308 380.905881) scale(0.2 -0.2)">
       <defs>
        <path id="URWPalladioL-Roma-31" d="M 429 3571 
L 493 3571 
L 1318 3942 
C 1325 3949 1331 3949 1338 3949 
C 1376 3949 1389 3891 1389 3737 
L 1389 633 
C 1389 300 1318 230 973 211 
L 614 192 
L 614 0 
C 1600 0 1600 0 1670 0 
C 1754 0 1894 0 2112 -7 
C 2189 6 2413 6 2675 0 
L 2675 192 
L 2342 211 
C 1990 229 1926 299 1926 628 
L 1926 4383 
L 1837 4416 
C 1421 4199 966 4009 384 3807 
L 429 3571 
z
" transform="scale(0.015625)"/>
       </defs>
       <use xlink:href="#URWPalladioL-Roma-31" transform="scale(0.996264)"/>
       <use xlink:href="#URWPalladioL-Roma-30" transform="translate(49.8132 0) scale(0.996264)"/>
      </g>
     </g>
    </g>
    <g id="xtick_4">
     <g id="line2d_4">
      <g>
       <use xlink:href="#mf44eaba4f5" x="424.304154" y="359.649407" style="stroke: #000000; stroke-width: 0.8"/>
      </g>
     </g>
     <g id="text_4">
      <!-- $\mathdefault{15}$ -->
      <g transform="translate(414.341514 380.905881) scale(0.2 -0.2)">
       <use xlink:href="#URWPalladioL-Roma-31" transform="scale(0.996264)"/>
       <use xlink:href="#URWPalladioL-Roma-35" transform="translate(49.8132 0) scale(0.996264)"/>
      </g>
     </g>
    </g>
    <g id="xtick_5">
     <g id="line2d_5">
      <g>
       <use xlink:href="#mf44eaba4f5" x="532.717359" y="359.649407" style="stroke: #000000; stroke-width: 0.8"/>
      </g>
     </g>
     <g id="text_5">
      <!-- $\mathdefault{20}$ -->
      <g transform="translate(522.754719 380.905881) scale(0.2 -0.2)">
       <defs>
        <path id="URWPalladioL-Roma-32" d="M 102 166 
L 102 0 
C 1299 0 1299 0 1530 0 
C 1760 19 1760 19 2995 0 
C 2982 134 2982 198 2982 287 
C 2982 370 2982 434 2995 574 
C 2259 542 1965 536 781 510 
L 1946 1741 
C 2566 2398 2758 2749 2758 3228 
C 2758 3961 2259 4416 1446 4416 
C 986 4416 672 4287 358 3967 
L 250 3100 
L 435 3100 
L 518 3394 
C 621 3763 851 3923 1280 3923 
C 1830 3923 2182 3578 2182 3036 
C 2182 2558 1914 2086 1190 1320 
L 102 166 
z
" transform="scale(0.015625)"/>
       </defs>
       <use xlink:href="#URWPalladioL-Roma-32" transform="scale(0.996264)"/>
       <use xlink:href="#URWPalladioL-Roma-30" transform="translate(49.8132 0) scale(0.996264)"/>
      </g>
     </g>
    </g>
    <g id="text_6">
     <!-- $t$ -->
     <g transform="translate(312.573426 404.781178) scale(0.2 -0.2)">
      <defs>
       <path id="URWPalladioL-Ital-74" d="M 800 2489 
L 442 678 
C 435 633 429 620 410 544 
C 371 364 358 268 358 192 
C 358 32 429 -64 550 -64 
C 774 -64 998 64 1498 467 
L 1594 544 
L 1696 627 
L 1632 742 
L 1344 544 
C 1158 416 1030 352 960 352 
C 902 352 870 403 870 480 
C 870 646 960 1164 1146 2092 
L 1229 2489 
L 1914 2489 
L 1984 2809 
C 1741 2784 1523 2771 1280 2771 
C 1382 3373 1453 3686 1568 4032 
L 1498 4128 
C 1370 4051 1197 3974 998 3897 
L 838 2809 
C 557 2675 390 2604 275 2572 
L 262 2489 
L 800 2489 
z
" transform="scale(0.015625)"/>
      </defs>
      <use xlink:href="#URWPalladioL-Ital-74" transform="scale(0.996264)"/>
     </g>
    </g>
   </g>
   <g id="matplotlib.axis_2">
    <g id="ytick_1">
     <g id="line2d_6">
      <defs>
       <path id="ma1c910a6fa" d="M 0 0 
L -3.5 0 
" style="stroke: #000000; stroke-width: 0.8"/>
      </defs>
      <g>
       <use xlink:href="#ma1c910a6fa" x="77.381897" y="344.283524" style="stroke: #000000; stroke-width: 0.8"/>
      </g>
     </g>
     <g id="text_7">
      <!-- $\mathdefault{0.0}$ -->
      <g transform="translate(45.475297 351.411762) scale(0.2 -0.2)">
       <defs>
        <path id="URWPalladioL-Roma-2e" d="M 794 678 
C 602 678 429 499 429 307 
C 429 115 602 -64 787 -64 
C 992 -64 1171 108 1171 307 
C 1171 499 992 678 794 678 
z
" transform="scale(0.015625)"/>
       </defs>
       <use xlink:href="#URWPalladioL-Roma-30" transform="scale(0.996264)"/>
       <use xlink:href="#URWPalladioL-Roma-2e" transform="translate(49.8132 0) scale(0.996264)"/>
       <use xlink:href="#URWPalladioL-Roma-30" transform="translate(74.719801 0) scale(0.996264)"/>
      </g>
     </g>
    </g>
    <g id="ytick_2">
     <g id="line2d_7">
      <g>
       <use xlink:href="#ma1c910a6fa" x="77.381897" y="282.819996" style="stroke: #000000; stroke-width: 0.8"/>
      </g>
     </g>
     <g id="text_8">
      <!-- $\mathdefault{0.2}$ -->
      <g transform="translate(45.475297 289.948233) scale(0.2 -0.2)">
       <use xlink:href="#URWPalladioL-Roma-30" transform="scale(0.996264)"/>
       <use xlink:href="#URWPalladioL-Roma-2e" transform="translate(49.8132 0) scale(0.996264)"/>
       <use xlink:href="#URWPalladioL-Roma-32" transform="translate(74.719801 0) scale(0.996264)"/>
      </g>
     </g>
    </g>
    <g id="ytick_3">
     <g id="line2d_8">
      <g>
       <use xlink:href="#ma1c910a6fa" x="77.381897" y="221.356467" style="stroke: #000000; stroke-width: 0.8"/>
      </g>
     </g>
     <g id="text_9">
      <!-- $\mathdefault{0.4}$ -->
      <g transform="translate(45.475297 228.484705) scale(0.2 -0.2)">
       <defs>
        <path id="URWPalladioL-Roma-34" d="M 1792 1152 
L 1792 684 
C 1792 310 1722 223 1408 210 
L 1011 192 
L 1011 0 
C 1862 0 1862 0 2016 0 
C 2170 19 2170 19 3021 0 
L 3021 192 
L 2714 210 
C 2400 229 2330 310 2330 684 
L 2330 1152 
C 2707 1152 2842 1145 3021 1127 
L 3021 1580 
C 2720 1555 2598 1555 2502 1561 
L 2483 1561 
L 2330 1561 
L 2330 2445 
C 2330 3576 2342 4122 2374 4383 
L 2298 4416 
L 1824 4243 
L 13 1299 
L 83 1152 
L 1792 1152 
z
M 1792 1561 
L 416 1561 
L 1792 3798 
L 1792 1561 
z
" transform="scale(0.015625)"/>
       </defs>
       <use xlink:href="#URWPalladioL-Roma-30" transform="scale(0.996264)"/>
       <use xlink:href="#URWPalladioL-Roma-2e" transform="translate(49.8132 0) scale(0.996264)"/>
       <use xlink:href="#URWPalladioL-Roma-34" transform="translate(74.719801 0) scale(0.996264)"/>
      </g>
     </g>
    </g>
    <g id="ytick_4">
     <g id="line2d_9">
      <g>
       <use xlink:href="#ma1c910a6fa" x="77.381897" y="159.892939" style="stroke: #000000; stroke-width: 0.8"/>
      </g>
     </g>
     <g id="text_10">
      <!-- $\mathdefault{0.6}$ -->
      <g transform="translate(45.475297 167.021176) scale(0.2 -0.2)">
       <defs>
        <path id="URWPalladioL-Roma-36" d="M 2662 4287 
L 2426 4396 
C 1811 4193 1549 4066 1222 3788 
C 563 3237 205 2463 205 1585 
C 205 526 717 -128 1542 -128 
C 2374 -128 2995 532 2995 1405 
C 2995 2143 2554 2624 1875 2624 
C 1555 2624 1363 2540 986 2239 
C 915 2182 909 2175 838 2124 
C 973 3275 1510 3895 2662 4237 
L 2662 4287 
z
M 1632 2239 
C 2118 2239 2445 1816 2445 1180 
C 2445 513 2118 83 1626 83 
C 1082 83 787 551 787 1411 
C 787 1636 813 1758 883 1867 
C 1024 2085 1325 2239 1632 2239 
z
" transform="scale(0.015625)"/>
       </defs>
       <use xlink:href="#URWPalladioL-Roma-30" transform="scale(0.996264)"/>
       <use xlink:href="#URWPalladioL-Roma-2e" transform="translate(49.8132 0) scale(0.996264)"/>
       <use xlink:href="#URWPalladioL-Roma-36" transform="translate(74.719801 0) scale(0.996264)"/>
      </g>
     </g>
    </g>
    <g id="ytick_5">
     <g id="line2d_10">
      <g>
       <use xlink:href="#ma1c910a6fa" x="77.381897" y="98.429411" style="stroke: #000000; stroke-width: 0.8"/>
      </g>
     </g>
     <g id="text_11">
      <!-- $\mathdefault{0.8}$ -->
      <g transform="translate(45.475297 105.557648) scale(0.2 -0.2)">
       <defs>
        <path id="URWPalladioL-Roma-38" d="M 1075 2211 
C 813 2089 704 2019 563 1884 
C 320 1640 192 1352 192 1019 
C 192 358 723 -128 1446 -128 
C 2278 -128 2970 525 2970 1320 
C 2970 1833 2733 2108 2003 2442 
C 2586 2839 2790 3108 2790 3493 
C 2790 4044 2336 4416 1658 4416 
C 896 4416 339 3929 339 3256 
C 339 2820 512 2576 1075 2211 
z
M 1818 1890 
C 2221 1711 2464 1397 2464 1051 
C 2464 512 2061 89 1542 89 
C 998 89 646 474 646 1070 
C 646 1538 832 1833 1306 2121 
L 1818 1890 
z
M 1427 2711 
C 1024 2910 819 3166 819 3486 
C 819 3910 1126 4198 1581 4198 
C 2048 4198 2355 3890 2355 3422 
C 2355 3057 2195 2807 1779 2538 
L 1427 2711 
z
" transform="scale(0.015625)"/>
       </defs>
       <use xlink:href="#URWPalladioL-Roma-30" transform="scale(0.996264)"/>
       <use xlink:href="#URWPalladioL-Roma-2e" transform="translate(49.8132 0) scale(0.996264)"/>
       <use xlink:href="#URWPalladioL-Roma-38" transform="translate(74.719801 0) scale(0.996264)"/>
      </g>
     </g>
    </g>
    <g id="ytick_6">
     <g id="line2d_11">
      <g>
       <use xlink:href="#ma1c910a6fa" x="77.381897" y="36.965882" style="stroke: #000000; stroke-width: 0.8"/>
      </g>
     </g>
     <g id="text_12">
      <!-- $\mathdefault{1.0}$ -->
      <g transform="translate(45.475297 44.094119) scale(0.2 -0.2)">
       <use xlink:href="#URWPalladioL-Roma-31" transform="scale(0.996264)"/>
       <use xlink:href="#URWPalladioL-Roma-2e" transform="translate(49.8132 0) scale(0.996264)"/>
       <use xlink:href="#URWPalladioL-Roma-30" transform="translate(74.719801 0) scale(0.996264)"/>
      </g>
     </g>
    </g>
    <g id="text_13">
     <!-- Population -->
     <g transform="translate(35.856475 239.341278) rotate(-90) scale(0.2 -0.2)">
      <defs>
       <path id="URWPalladioL-Roma-50" d="M 1382 4097 
C 1606 4147 1792 4172 2010 4172 
C 2701 4172 3072 3859 3072 3263 
C 3072 2699 2682 2304 2125 2304 
C 1990 2304 1894 2316 1728 2366 
L 1792 2137 
C 1946 2105 2035 2099 2163 2099 
C 3040 2099 3712 2686 3712 3439 
C 3712 4041 3213 4416 2400 4416 
C 2368 4416 2304 4416 2221 4409 
C 1984 4403 1498 4396 1312 4396 
C 1171 4396 1171 4396 147 4416 
L 147 4223 
L 435 4204 
C 723 4185 774 4103 774 3633 
L 774 782 
C 774 280 742 230 448 211 
L 141 192 
L 141 0 
C 518 -7 742 0 1075 0 
C 1408 19 1638 12 2016 0 
L 2016 192 
L 1709 211 
C 1414 230 1382 281 1382 787 
L 1382 4097 
z
" transform="scale(0.015625)"/>
       <path id="URWPalladioL-Roma-6f" d="M 1786 3008 
C 851 3008 205 2347 205 1391 
C 205 487 774 -128 1600 -128 
C 2586 -128 3290 557 3290 1520 
C 3290 2386 2662 3008 1786 3008 
z
M 1670 2796 
C 2259 2796 2694 2155 2694 1282 
C 2694 545 2368 83 1850 83 
C 1222 83 800 699 800 1609 
C 800 2379 1107 2796 1670 2796 
z
" transform="scale(0.015625)"/>
       <path id="URWPalladioL-Roma-70" d="M 64 2566 
L 301 2566 
C 557 2566 582 2521 582 2100 
L 582 -1118 
C 582 -1523 563 -1568 346 -1581 
L 51 -1600 
L 51 -1792 
C 691 -1773 691 -1773 851 -1773 
C 1011 -1773 1011 -1773 1651 -1792 
L 1651 -1600 
L 1357 -1581 
C 1139 -1568 1120 -1523 1120 -1118 
L 1120 96 
C 1312 -20 1517 -64 1805 -64 
C 1990 -64 2157 -26 2259 38 
L 2989 511 
C 3245 677 3546 1334 3546 1743 
C 3546 2451 2957 3008 2214 3008 
C 1978 3008 1747 2943 1645 2847 
L 1120 2368 
L 1120 2982 
L 1062 3008 
C 736 2873 403 2783 64 2745 
L 64 2566 
z
M 1120 1966 
C 1120 2055 1152 2126 1235 2234 
C 1421 2470 1683 2591 2003 2591 
C 2605 2591 2989 2170 2989 1507 
C 2989 792 2560 262 1984 262 
C 1632 262 1370 377 1120 639 
L 1120 1966 
z
" transform="scale(0.015625)"/>
       <path id="URWPalladioL-Roma-75" d="M 3219 2982 
L 3162 3008 
C 2835 2873 2502 2784 2163 2745 
L 2163 2567 
L 2400 2567 
C 2656 2567 2682 2522 2682 2101 
L 2682 1060 
C 2682 920 2592 741 2445 594 
C 2266 415 2061 326 1811 326 
C 1587 326 1408 396 1306 517 
C 1216 620 1171 817 1171 1098 
L 1171 2982 
L 1114 3008 
C 787 2873 454 2784 115 2745 
L 115 2567 
L 352 2567 
C 608 2567 634 2522 634 2101 
L 634 1028 
C 634 581 672 383 787 224 
C 928 32 1171 -64 1536 -64 
C 1824 -58 2080 32 2253 192 
L 2682 588 
C 2682 403 2675 300 2656 0 
C 3085 0 3091 0 3187 0 
C 3277 19 3277 19 3718 0 
L 3718 192 
L 3456 211 
C 3238 224 3219 262 3219 672 
L 3219 2982 
z
" transform="scale(0.015625)"/>
       <path id="URWPalladioL-Roma-6c" d="M 147 4249 
L 506 4249 
C 621 4249 666 4179 666 3987 
L 666 672 
C 666 268 646 224 429 211 
L 134 192 
L 134 0 
C 774 0 774 0 934 0 
C 1094 19 1094 19 1734 0 
L 1734 192 
L 1440 211 
C 1222 224 1203 268 1203 672 
L 1203 4614 
L 1146 4665 
C 864 4557 653 4505 147 4429 
L 147 4249 
z
" transform="scale(0.015625)"/>
       <path id="URWPalladioL-Roma-61" d="M 2074 544 
L 2042 0 
C 2458 0 2458 0 2541 0 
C 2573 19 2733 12 3014 0 
L 3014 192 
L 2765 204 
C 2611 211 2586 262 2586 576 
L 2586 1751 
C 2586 2688 2317 3027 1574 3027 
C 1299 3027 1043 2956 800 2809 
L 461 2604 
L 461 2187 
L 627 2142 
L 710 2341 
C 845 2642 909 2688 1203 2688 
C 1805 2688 2054 2450 2074 1866 
L 1440 1751 
C 570 1590 205 1289 205 730 
C 205 224 506 -64 1011 -64 
C 1126 -64 1235 -45 1280 -13 
L 2074 544 
z
M 2074 806 
C 1888 544 1485 300 1235 300 
C 979 300 755 537 755 812 
C 755 1049 883 1273 1075 1395 
C 1235 1491 1587 1580 2074 1651 
L 2074 806 
z
" transform="scale(0.015625)"/>
       <path id="URWPalladioL-Roma-74" d="M 627 2457 
L 627 614 
C 627 140 838 -64 1331 -64 
C 1478 -64 1632 -32 1670 12 
L 1978 352 
L 1894 460 
C 1734 371 1638 339 1517 339 
C 1267 339 1165 467 1165 780 
L 1165 2457 
L 1984 2457 
L 2042 2803 
L 1165 2764 
L 1165 3008 
C 1165 3277 1184 3507 1235 3917 
L 1158 3987 
C 1005 3891 813 3808 614 3744 
C 634 3552 640 3430 640 3238 
L 640 2790 
L 141 2566 
L 141 2432 
L 627 2457 
z
" transform="scale(0.015625)"/>
       <path id="URWPalladioL-Roma-69" d="M 1203 2982 
L 1146 3008 
C 819 2873 486 2784 147 2746 
L 147 2568 
L 384 2568 
C 640 2568 666 2523 666 2103 
L 666 669 
C 666 268 646 223 429 211 
L 134 192 
L 134 0 
C 774 0 774 0 934 0 
C 1094 19 1094 19 1734 0 
L 1734 192 
L 1440 211 
C 1222 224 1203 268 1203 671 
L 1203 2982 
z
M 909 4416 
C 717 4416 550 4249 550 4057 
C 550 3871 717 3705 902 3705 
C 1088 3705 1261 3871 1261 4057 
C 1261 4236 1088 4416 909 4416 
z
" transform="scale(0.015625)"/>
       <path id="URWPalladioL-Roma-6e" d="M 2624 0 
C 3014 0 3021 0 3130 0 
C 3219 19 3219 19 3661 0 
L 3661 192 
L 3398 211 
C 3181 223 3162 262 3162 670 
L 3162 1902 
C 3162 2649 2810 3014 2093 3014 
C 1856 3014 1722 2969 1587 2854 
L 1101 2432 
L 1101 2988 
L 1043 3008 
C 717 2873 384 2784 45 2746 
L 45 2568 
L 282 2568 
C 538 2568 563 2523 563 2103 
L 563 669 
C 563 268 544 223 326 211 
L 38 192 
L 38 0 
C 474 -7 646 0 832 0 
C 1018 19 1190 12 1626 0 
L 1626 192 
L 1338 211 
C 1120 223 1101 268 1101 670 
L 1101 2023 
C 1101 2311 1523 2624 1914 2624 
C 2342 2624 2624 2304 2624 1813 
L 2624 0 
z
" transform="scale(0.015625)"/>
      </defs>
      <use xlink:href="#URWPalladioL-Roma-50" transform="scale(0.996264)"/>
      <use xlink:href="#URWPalladioL-Roma-6f" transform="translate(60.173595 0) scale(0.996264)"/>
      <use xlink:href="#URWPalladioL-Roma-70" transform="translate(114.569175 0) scale(0.996264)"/>
      <use xlink:href="#URWPalladioL-Roma-75" transform="translate(174.443569 0) scale(0.996264)"/>
      <use xlink:href="#URWPalladioL-Roma-6c" transform="translate(234.517304 0) scale(0.996264)"/>
      <use xlink:href="#URWPalladioL-Roma-61" transform="translate(263.507665 0) scale(0.996264)"/>
      <use xlink:href="#URWPalladioL-Roma-74" transform="translate(313.320866 0) scale(0.996264)"/>
      <use xlink:href="#URWPalladioL-Roma-69" transform="translate(345.797954 0) scale(0.996264)"/>
      <use xlink:href="#URWPalladioL-Roma-6f" transform="translate(374.788315 0) scale(0.996264)"/>
      <use xlink:href="#URWPalladioL-Roma-6e" transform="translate(429.183895 0) scale(0.996264)"/>
     </g>
    </g>
   </g>
   <g id="line2d_12">
    <path d="M 99.064538 344.283524 
L 103.18527 332.929288 
L 107.414442 321.930233 
L 111.643615 311.556312 
L 115.872787 301.771998 
L 120.101959 292.543778 
L 124.331132 283.840047 
L 128.560304 275.631008 
L 132.897916 267.695907 
L 137.235529 260.223023 
L 141.573142 253.185437 
L 146.019195 246.39714 
L 150.465247 240.013848 
L 154.9113 234.01139 
L 159.465794 228.233675 
L 164.020287 222.808813 
L 168.68322 217.59785 
L 173.454594 212.602553 
L 178.225968 207.926378 
L 183.105782 203.45277 
L 188.094037 199.181482 
L 193.190732 195.111399 
L 198.395867 191.240598 
L 203.709442 187.566436 
L 209.131458 184.085617 
L 214.770354 180.732202 
L 220.517691 177.573174 
L 226.481909 174.549989 
L 232.663006 171.669275 
L 239.060985 168.93594 
L 245.675844 166.353228 
L 252.616025 163.885961 
L 259.773085 161.577907 
L 267.255467 159.397234 
L 275.17161 157.323203 
L 283.521514 155.36826 
L 292.30518 153.541507 
L 301.631047 151.830256 
L 311.607556 150.228278 
L 322.234707 148.748279 
L 333.72938 147.374516 
L 346.200017 146.11159 
L 359.755056 144.964663 
L 374.71982 143.924922 
L 391.419628 142.992509 
L 410.179803 142.172387 
L 431.650985 141.461243 
L 456.809138 140.856819 
L 487.063986 140.360306 
L 525.018097 139.96999 
L 532.717359 139.912907 
L 532.717359 139.912907 
" clip-path="url(#pa4d32c0e14)" style="fill: none; stroke: #1f77b4; stroke-width: 1.5; stroke-linecap: square"/>
   </g>
   <g id="line2d_13">
    <path d="M 99.064538 36.965882 
L 103.18527 48.320118 
L 107.414442 59.319174 
L 111.643615 69.693094 
L 115.872787 79.477409 
L 120.101959 88.705628 
L 124.331132 97.40936 
L 128.560304 105.618399 
L 132.897916 113.553499 
L 137.235529 121.026383 
L 141.573142 128.063969 
L 146.019195 134.852267 
L 150.465247 141.235558 
L 154.9113 147.238016 
L 159.465794 153.015731 
L 164.020287 158.440594 
L 168.68322 163.651556 
L 173.454594 168.646853 
L 178.225968 173.323029 
L 183.105782 177.796636 
L 188.094037 182.067924 
L 193.190732 186.138007 
L 198.395867 190.008808 
L 203.709442 193.68297 
L 209.131458 197.163789 
L 214.770354 200.517205 
L 220.517691 203.676232 
L 226.481909 206.699418 
L 232.663006 209.580132 
L 239.060985 212.313466 
L 245.675844 214.896179 
L 252.616025 217.363445 
L 259.773085 219.6715 
L 267.255467 221.852172 
L 275.17161 223.926204 
L 283.521514 225.881147 
L 292.30518 227.707899 
L 301.631047 229.419151 
L 311.607556 231.021129 
L 322.234707 232.501127 
L 333.72938 233.87489 
L 346.200017 235.137817 
L 359.755056 236.284743 
L 374.71982 237.324484 
L 391.419628 238.256897 
L 410.179803 239.07702 
L 431.650985 239.788164 
L 456.809138 240.392588 
L 487.063986 240.889101 
L 525.018097 241.279417 
L 532.717359 241.3365 
L 532.717359 241.3365 
" clip-path="url(#pa4d32c0e14)" style="fill: none; stroke: #ff7f0e; stroke-width: 1.5; stroke-linecap: square"/>
   </g>
   <g id="patch_3">
    <path d="M 77.381897 359.649407 
L 77.381897 21.6 
" style="fill: none; stroke: #000000; stroke-width: 0.8; stroke-linejoin: miter; stroke-linecap: square"/>
   </g>
   <g id="patch_4">
    <path d="M 554.4 359.649407 
L 554.4 21.6 
" style="fill: none; stroke: #000000; stroke-width: 0.8; stroke-linejoin: miter; stroke-linecap: square"/>
   </g>
   <g id="patch_5">
    <path d="M 77.381897 359.649407 
L 554.4 359.649407 
" style="fill: none; stroke: #000000; stroke-width: 0.8; stroke-linejoin: miter; stroke-linecap: square"/>
   </g>
   <g id="patch_6">
    <path d="M 77.381897 21.6 
L 554.4 21.6 
" style="fill: none; stroke: #000000; stroke-width: 0.8; stroke-linejoin: miter; stroke-linecap: square"/>
   </g>
   <g id="legend_1">
    <g id="patch_7">
     <path d="M 420.510221 97.350593 
L 540.4 97.350593 
Q 544.4 97.350593 544.4 93.350593 
L 544.4 35.6 
Q 544.4 31.6 540.4 31.6 
L 420.510221 31.6 
Q 416.510221 31.6 416.510221 35.6 
L 416.510221 93.350593 
Q 416.510221 97.350593 420.510221 97.350593 
L 420.510221 97.350593 
z
" style="fill: none; opacity: 0.8; stroke: #cccccc; stroke-linejoin: miter"/>
    </g>
    <g id="line2d_14">
     <path d="M 424.510221 46.856475 
L 444.510221 46.856475 
L 464.510221 46.856475 
" style="fill: none; stroke: #1f77b4; stroke-width: 1.5; stroke-linecap: square"/>
    </g>
    <g id="text_14">
     <!-- state ${0}$ -->
     <g transform="translate(480.510221 53.856475) scale(0.2 -0.2)">
      <defs>
       <path id="URWPalladioL-Roma-73" d="M 262 917 
C 262 474 243 282 192 25 
C 525 -84 774 -128 1069 -128 
C 1907 -128 2502 320 2502 949 
C 2502 1148 2445 1295 2323 1423 
C 2157 1584 1946 1661 1382 1770 
C 858 1872 685 2001 685 2296 
C 685 2617 909 2796 1299 2796 
C 1728 2796 2054 2572 2054 2270 
L 2054 2123 
L 2234 2123 
C 2240 2495 2246 2649 2266 2847 
C 1926 2963 1696 3008 1434 3008 
C 691 3008 237 2655 237 2078 
C 237 1770 378 1552 672 1417 
C 845 1340 1184 1237 1619 1141 
C 1907 1077 2029 942 2029 698 
C 2029 352 1709 108 1254 108 
C 787 108 454 333 454 654 
L 454 917 
L 262 917 
z
" transform="scale(0.015625)"/>
       <path id="URWPalladioL-Roma-65" d="M 2797 447 
L 2714 511 
C 2304 268 2157 211 1882 211 
C 1466 211 1120 396 941 710 
C 819 921 774 1100 762 1472 
L 1696 1472 
C 2138 1472 2413 1491 2854 1561 
C 2861 1651 2867 1708 2867 1786 
C 2867 2526 2394 3008 1677 3008 
C 1440 3008 1165 2924 902 2771 
C 378 2468 166 2069 166 1401 
C 166 998 262 652 435 409 
C 691 70 1120 -128 1600 -128 
C 1837 -128 2074 -77 2336 38 
C 2509 108 2643 192 2669 230 
L 2797 447 
z
M 2298 1708 
C 1965 1696 1811 1689 1581 1689 
C 1286 1689 1120 1696 774 1728 
C 774 2030 800 2172 883 2339 
C 1018 2623 1293 2796 1600 2796 
C 1811 2796 1978 2713 2093 2539 
C 2234 2326 2278 2140 2298 1708 
z
" transform="scale(0.015625)"/>
      </defs>
      <use xlink:href="#URWPalladioL-Roma-73" transform="scale(0.996264)"/>
      <use xlink:href="#URWPalladioL-Roma-74" transform="translate(42.241466 0) scale(0.996264)"/>
      <use xlink:href="#URWPalladioL-Roma-61" transform="translate(74.718554 0) scale(0.996264)"/>
      <use xlink:href="#URWPalladioL-Roma-74" transform="translate(124.531755 0) scale(0.996264)"/>
      <use xlink:href="#URWPalladioL-Roma-65" transform="translate(157.008843 0) scale(0.996264)"/>
      <use xlink:href="#URWPalladioL-Roma-30" transform="translate(229.635738 0) scale(0.996264)"/>
     </g>
    </g>
    <g id="line2d_15">
     <path d="M 424.510221 76.731771 
L 444.510221 76.731771 
L 464.510221 76.731771 
" style="fill: none; stroke: #ff7f0e; stroke-width: 1.5; stroke-linecap: square"/>
    </g>
    <g id="text_15">
     <!-- state ${1}$ -->
     <g transform="translate(480.510221 83.731771) scale(0.2 -0.2)">
      <use xlink:href="#URWPalladioL-Roma-73" transform="scale(0.996264)"/>
      <use xlink:href="#URWPalladioL-Roma-74" transform="translate(42.241466 0) scale(0.996264)"/>
      <use xlink:href="#URWPalladioL-Roma-61" transform="translate(74.718554 0) scale(0.996264)"/>
      <use xlink:href="#URWPalladioL-Roma-74" transform="translate(124.531755 0) scale(0.996264)"/>
      <use xlink:href="#URWPalladioL-Roma-65" transform="translate(157.008843 0) scale(0.996264)"/>
      <use xlink:href="#URWPalladioL-Roma-31" transform="translate(229.635738 0) scale(0.996264)"/>
     </g>
    </g>
   </g>
  </g>
 </g>
 <defs>
  <clipPath id="pa4d32c0e14">
   <rect x="77.381897" y="21.6" width="477.018103" height="338.049407"/>
  </clipPath>
 </defs>
</svg>
