<?xml version="1.0" encoding="utf-8" standalone="no"?>
<!DOCTYPE svg PUBLIC "-//W3C//DTD SVG 1.1//EN"
  "http://www.w3.org/Graphics/SVG/1.1/DTD/svg11.dtd">
<svg xmlns:xlink="http://www.w3.org/1999/xlink" width="576pt" height="432pt" viewBox="0 0 576 432" xmlns="http://www.w3.org/2000/svg" version="1.1">
 <metadata>
  <rdf:RDF xmlns:dc="http://purl.org/dc/elements/1.1/" xmlns:cc="http://creativecommons.org/ns#" xmlns:rdf="http://www.w3.org/1999/02/22-rdf-syntax-ns#">
   <cc:Work>
    <dc:type rdf:resource="http://purl.org/dc/dcmitype/StillImage"/>
    <dc:date>2024-11-08T12:20:07.780805</dc:date>
    <dc:format>image/svg+xml</dc:format>
    <dc:creator>
     <cc:Agent>
      <dc:title>Matplotlib v3.8.0, https://matplotlib.org/</dc:title>
     </cc:Agent>
    </dc:creator>
   </cc:Work>
  </rdf:RDF>
 </metadata>
 <defs>
  <style type="text/css">*{stroke-linejoin: round; stroke-linecap: butt}</style>
 </defs>
 <g id="figure_1">
  <g id="patch_1">
   <path d="M 0 432 
L 576 432 
L 576 0 
L 0 0 
L 0 432 
z
" style="fill: none"/>
  </g>
  <g id="axes_1">
   <g id="patch_2">
    <path d="M 77.381897 359.649407 
L 554.4 359.649407 
L 554.4 21.6 
L 77.381897 21.6 
L 77.381897 359.649407 
z
" style="fill: none"/>
   </g>
   <g id="matplotlib.axis_1">
    <g id="xtick_1">
     <g id="line2d_1">
      <defs>
       <path id="m8207b869a0" d="M 0 0 
L 0 3.5 
" style="stroke: #000000; stroke-width: 0.8"/>
      </defs>
      <g>
       <use xlink:href="#m8207b869a0" x="99.064538" y="359.649407" style="stroke: #000000; stroke-width: 0.8"/>
      </g>
     </g>
     <g id="text_1">
      <!-- $\mathdefault{0}$ -->
      <g transform="translate(94.083218 380.905881) scale(0.2 -0.2)">
       <defs>
        <path id="URWPalladioL-Roma-30" d="M 1683 4416 
C 691 4416 186 3628 186 2076 
C 186 1326 320 679 544 365 
C 768 51 1126 -128 1523 -128 
C 2490 -128 2976 704 2976 2345 
C 2976 3749 2560 4416 1683 4416 
z
M 1568 4191 
C 2189 4191 2438 3563 2438 2025 
C 2438 660 2195 96 1606 96 
C 986 96 723 743 723 2307 
C 723 3660 960 4191 1568 4191 
z
" transform="scale(0.015625)"/>
       </defs>
       <use xlink:href="#URWPalladioL-Roma-30" transform="scale(0.996264)"/>
      </g>
     </g>
    </g>
    <g id="xtick_2">
     <g id="line2d_2">
      <g>
       <use xlink:href="#m8207b869a0" x="185.795102" y="359.649407" style="stroke: #000000; stroke-width: 0.8"/>
      </g>
     </g>
     <g id="text_2">
      <!-- $\mathdefault{2}$ -->
      <g transform="translate(180.813782 380.905881) scale(0.2 -0.2)">
       <defs>
        <path id="URWPalladioL-Roma-32" d="M 102 166 
L 102 0 
C 1299 0 1299 0 1530 0 
C 1760 19 1760 19 2995 0 
C 2982 134 2982 198 2982 287 
C 2982 370 2982 434 2995 574 
C 2259 542 1965 536 781 510 
L 1946 1741 
C 2566 2398 2758 2749 2758 3228 
C 2758 3961 2259 4416 1446 4416 
C 986 4416 672 4287 358 3967 
L 250 3100 
L 435 3100 
L 518 3394 
C 621 3763 851 3923 1280 3923 
C 1830 3923 2182 3578 2182 3036 
C 2182 2558 1914 2086 1190 1320 
L 102 166 
z
" transform="scale(0.015625)"/>
       </defs>
       <use xlink:href="#URWPalladioL-Roma-32" transform="scale(0.996264)"/>
      </g>
     </g>
    </g>
    <g id="xtick_3">
     <g id="line2d_3">
      <g>
       <use xlink:href="#m8207b869a0" x="272.525666" y="359.649407" style="stroke: #000000; stroke-width: 0.8"/>
      </g>
     </g>
     <g id="text_3">
      <!-- $\mathdefault{4}$ -->
      <g transform="translate(267.544346 380.905881) scale(0.2 -0.2)">
       <defs>
        <path id="URWPalladioL-Roma-34" d="M 1792 1152 
L 1792 684 
C 1792 310 1722 223 1408 210 
L 1011 192 
L 1011 0 
C 1862 0 1862 0 2016 0 
C 2170 19 2170 19 3021 0 
L 3021 192 
L 2714 210 
C 2400 229 2330 310 2330 684 
L 2330 1152 
C 2707 1152 2842 1145 3021 1127 
L 3021 1580 
C 2720 1555 2598 1555 2502 1561 
L 2483 1561 
L 2330 1561 
L 2330 2445 
C 2330 3576 2342 4122 2374 4383 
L 2298 4416 
L 1824 4243 
L 13 1299 
L 83 1152 
L 1792 1152 
z
M 1792 1561 
L 416 1561 
L 1792 3798 
L 1792 1561 
z
" transform="scale(0.015625)"/>
       </defs>
       <use xlink:href="#URWPalladioL-Roma-34" transform="scale(0.996264)"/>
      </g>
     </g>
    </g>
    <g id="xtick_4">
     <g id="line2d_4">
      <g>
       <use xlink:href="#m8207b869a0" x="359.256231" y="359.649407" style="stroke: #000000; stroke-width: 0.8"/>
      </g>
     </g>
     <g id="text_4">
      <!-- $\mathdefault{6}$ -->
      <g transform="translate(354.274911 380.905881) scale(0.2 -0.2)">
       <defs>
        <path id="URWPalladioL-Roma-36" d="M 2662 4287 
L 2426 4396 
C 1811 4193 1549 4066 1222 3788 
C 563 3237 205 2463 205 1585 
C 205 526 717 -128 1542 -128 
C 2374 -128 2995 532 2995 1405 
C 2995 2143 2554 2624 1875 2624 
C 1555 2624 1363 2540 986 2239 
C 915 2182 909 2175 838 2124 
C 973 3275 1510 3895 2662 4237 
L 2662 4287 
z
M 1632 2239 
C 2118 2239 2445 1816 2445 1180 
C 2445 513 2118 83 1626 83 
C 1082 83 787 551 787 1411 
C 787 1636 813 1758 883 1867 
C 1024 2085 1325 2239 1632 2239 
z
" transform="scale(0.015625)"/>
       </defs>
       <use xlink:href="#URWPalladioL-Roma-36" transform="scale(0.996264)"/>
      </g>
     </g>
    </g>
    <g id="xtick_5">
     <g id="line2d_5">
      <g>
       <use xlink:href="#m8207b869a0" x="445.986795" y="359.649407" style="stroke: #000000; stroke-width: 0.8"/>
      </g>
     </g>
     <g id="text_5">
      <!-- $\mathdefault{8}$ -->
      <g transform="translate(441.005475 380.905881) scale(0.2 -0.2)">
       <defs>
        <path id="URWPalladioL-Roma-38" d="M 1075 2211 
C 813 2089 704 2019 563 1884 
C 320 1640 192 1352 192 1019 
C 192 358 723 -128 1446 -128 
C 2278 -128 2970 525 2970 1320 
C 2970 1833 2733 2108 2003 2442 
C 2586 2839 2790 3108 2790 3493 
C 2790 4044 2336 4416 1658 4416 
C 896 4416 339 3929 339 3256 
C 339 2820 512 2576 1075 2211 
z
M 1818 1890 
C 2221 1711 2464 1397 2464 1051 
C 2464 512 2061 89 1542 89 
C 998 89 646 474 646 1070 
C 646 1538 832 1833 1306 2121 
L 1818 1890 
z
M 1427 2711 
C 1024 2910 819 3166 819 3486 
C 819 3910 1126 4198 1581 4198 
C 2048 4198 2355 3890 2355 3422 
C 2355 3057 2195 2807 1779 2538 
L 1427 2711 
z
" transform="scale(0.015625)"/>
       </defs>
       <use xlink:href="#URWPalladioL-Roma-38" transform="scale(0.996264)"/>
      </g>
     </g>
    </g>
    <g id="xtick_6">
     <g id="line2d_6">
      <g>
       <use xlink:href="#m8207b869a0" x="532.717359" y="359.649407" style="stroke: #000000; stroke-width: 0.8"/>
      </g>
     </g>
     <g id="text_6">
      <!-- $\mathdefault{10}$ -->
      <g transform="translate(522.754719 380.905881) scale(0.2 -0.2)">
       <defs>
        <path id="URWPalladioL-Roma-31" d="M 429 3571 
L 493 3571 
L 1318 3942 
C 1325 3949 1331 3949 1338 3949 
C 1376 3949 1389 3891 1389 3737 
L 1389 633 
C 1389 300 1318 230 973 211 
L 614 192 
L 614 0 
C 1600 0 1600 0 1670 0 
C 1754 0 1894 0 2112 -7 
C 2189 6 2413 6 2675 0 
L 2675 192 
L 2342 211 
C 1990 229 1926 299 1926 628 
L 1926 4383 
L 1837 4416 
C 1421 4199 966 4009 384 3807 
L 429 3571 
z
" transform="scale(0.015625)"/>
       </defs>
       <use xlink:href="#URWPalladioL-Roma-31" transform="scale(0.996264)"/>
       <use xlink:href="#URWPalladioL-Roma-30" transform="translate(49.8132 0) scale(0.996264)"/>
      </g>
     </g>
    </g>
    <g id="text_7">
     <!-- $t$ -->
     <g transform="translate(312.573426 404.781178) scale(0.2 -0.2)">
      <defs>
       <path id="URWPalladioL-Ital-74" d="M 800 2489 
L 442 678 
C 435 633 429 620 410 544 
C 371 364 358 268 358 192 
C 358 32 429 -64 550 -64 
C 774 -64 998 64 1498 467 
L 1594 544 
L 1696 627 
L 1632 742 
L 1344 544 
C 1158 416 1030 352 960 352 
C 902 352 870 403 870 480 
C 870 646 960 1164 1146 2092 
L 1229 2489 
L 1914 2489 
L 1984 2809 
C 1741 2784 1523 2771 1280 2771 
C 1382 3373 1453 3686 1568 4032 
L 1498 4128 
C 1370 4051 1197 3974 998 3897 
L 838 2809 
C 557 2675 390 2604 275 2572 
L 262 2489 
L 800 2489 
z
" transform="scale(0.015625)"/>
      </defs>
      <use xlink:href="#URWPalladioL-Ital-74" transform="scale(0.996264)"/>
     </g>
    </g>
   </g>
   <g id="matplotlib.axis_2">
    <g id="ytick_1">
     <g id="line2d_7">
      <defs>
       <path id="mb77392cd5c" d="M 0 0 
L -3.5 0 
" style="stroke: #000000; stroke-width: 0.8"/>
      </defs>
      <g>
       <use xlink:href="#mb77392cd5c" x="77.381897" y="344.283524" style="stroke: #000000; stroke-width: 0.8"/>
      </g>
     </g>
     <g id="text_8">
      <!-- $\mathdefault{0.0}$ -->
      <g transform="translate(45.475297 351.411762) scale(0.2 -0.2)">
       <defs>
        <path id="URWPalladioL-Roma-2e" d="M 794 678 
C 602 678 429 499 429 307 
C 429 115 602 -64 787 -64 
C 992 -64 1171 108 1171 307 
C 1171 499 992 678 794 678 
z
" transform="scale(0.015625)"/>
       </defs>
       <use xlink:href="#URWPalladioL-Roma-30" transform="scale(0.996264)"/>
       <use xlink:href="#URWPalladioL-Roma-2e" transform="translate(49.8132 0) scale(0.996264)"/>
       <use xlink:href="#URWPalladioL-Roma-30" transform="translate(74.719801 0) scale(0.996264)"/>
      </g>
     </g>
    </g>
    <g id="ytick_2">
     <g id="line2d_8">
      <g>
       <use xlink:href="#mb77392cd5c" x="77.381897" y="282.819996" style="stroke: #000000; stroke-width: 0.8"/>
      </g>
     </g>
     <g id="text_9">
      <!-- $\mathdefault{0.2}$ -->
      <g transform="translate(45.475297 289.948233) scale(0.2 -0.2)">
       <use xlink:href="#URWPalladioL-Roma-30" transform="scale(0.996264)"/>
       <use xlink:href="#URWPalladioL-Roma-2e" transform="translate(49.8132 0) scale(0.996264)"/>
       <use xlink:href="#URWPalladioL-Roma-32" transform="translate(74.719801 0) scale(0.996264)"/>
      </g>
     </g>
    </g>
    <g id="ytick_3">
     <g id="line2d_9">
      <g>
       <use xlink:href="#mb77392cd5c" x="77.381897" y="221.356467" style="stroke: #000000; stroke-width: 0.8"/>
      </g>
     </g>
     <g id="text_10">
      <!-- $\mathdefault{0.4}$ -->
      <g transform="translate(45.475297 228.484705) scale(0.2 -0.2)">
       <use xlink:href="#URWPalladioL-Roma-30" transform="scale(0.996264)"/>
       <use xlink:href="#URWPalladioL-Roma-2e" transform="translate(49.8132 0) scale(0.996264)"/>
       <use xlink:href="#URWPalladioL-Roma-34" transform="translate(74.719801 0) scale(0.996264)"/>
      </g>
     </g>
    </g>
    <g id="ytick_4">
     <g id="line2d_10">
      <g>
       <use xlink:href="#mb77392cd5c" x="77.381897" y="159.892939" style="stroke: #000000; stroke-width: 0.8"/>
      </g>
     </g>
     <g id="text_11">
      <!-- $\mathdefault{0.6}$ -->
      <g transform="translate(45.475297 167.021176) scale(0.2 -0.2)">
       <use xlink:href="#URWPalladioL-Roma-30" transform="scale(0.996264)"/>
       <use xlink:href="#URWPalladioL-Roma-2e" transform="translate(49.8132 0) scale(0.996264)"/>
       <use xlink:href="#URWPalladioL-Roma-36" transform="translate(74.719801 0) scale(0.996264)"/>
      </g>
     </g>
    </g>
    <g id="ytick_5">
     <g id="line2d_11">
      <g>
       <use xlink:href="#mb77392cd5c" x="77.381897" y="98.429411" style="stroke: #000000; stroke-width: 0.8"/>
      </g>
     </g>
     <g id="text_12">
      <!-- $\mathdefault{0.8}$ -->
      <g transform="translate(45.475297 105.557648) scale(0.2 -0.2)">
       <use xlink:href="#URWPalladioL-Roma-30" transform="scale(0.996264)"/>
       <use xlink:href="#URWPalladioL-Roma-2e" transform="translate(49.8132 0) scale(0.996264)"/>
       <use xlink:href="#URWPalladioL-Roma-38" transform="translate(74.719801 0) scale(0.996264)"/>
      </g>
     </g>
    </g>
    <g id="ytick_6">
     <g id="line2d_12">
      <g>
       <use xlink:href="#mb77392cd5c" x="77.381897" y="36.965882" style="stroke: #000000; stroke-width: 0.8"/>
      </g>
     </g>
     <g id="text_13">
      <!-- $\mathdefault{1.0}$ -->
      <g transform="translate(45.475297 44.094119) scale(0.2 -0.2)">
       <use xlink:href="#URWPalladioL-Roma-31" transform="scale(0.996264)"/>
       <use xlink:href="#URWPalladioL-Roma-2e" transform="translate(49.8132 0) scale(0.996264)"/>
       <use xlink:href="#URWPalladioL-Roma-30" transform="translate(74.719801 0) scale(0.996264)"/>
      </g>
     </g>
    </g>
    <g id="text_14">
     <!-- Population -->
     <g transform="translate(35.856475 239.341278) rotate(-90) scale(0.2 -0.2)">
      <defs>
       <path id="URWPalladioL-Roma-50" d="M 1382 4097 
C 1606 4147 1792 4172 2010 4172 
C 2701 4172 3072 3859 3072 3263 
C 3072 2699 2682 2304 2125 2304 
C 1990 2304 1894 2316 1728 2366 
L 1792 2137 
C 1946 2105 2035 2099 2163 2099 
C 3040 2099 3712 2686 3712 3439 
C 3712 4041 3213 4416 2400 4416 
C 2368 4416 2304 4416 2221 4409 
C 1984 4403 1498 4396 1312 4396 
C 1171 4396 1171 4396 147 4416 
L 147 4223 
L 435 4204 
C 723 4185 774 4103 774 3633 
L 774 782 
C 774 280 742 230 448 211 
L 141 192 
L 141 0 
C 518 -7 742 0 1075 0 
C 1408 19 1638 12 2016 0 
L 2016 192 
L 1709 211 
C 1414 230 1382 281 1382 787 
L 1382 4097 
z
" transform="scale(0.015625)"/>
       <path id="URWPalladioL-Roma-6f" d="M 1786 3008 
C 851 3008 205 2347 205 1391 
C 205 487 774 -128 1600 -128 
C 2586 -128 3290 557 3290 1520 
C 3290 2386 2662 3008 1786 3008 
z
M 1670 2796 
C 2259 2796 2694 2155 2694 1282 
C 2694 545 2368 83 1850 83 
C 1222 83 800 699 800 1609 
C 800 2379 1107 2796 1670 2796 
z
" transform="scale(0.015625)"/>
       <path id="URWPalladioL-Roma-70" d="M 64 2566 
L 301 2566 
C 557 2566 582 2521 582 2100 
L 582 -1118 
C 582 -1523 563 -1568 346 -1581 
L 51 -1600 
L 51 -1792 
C 691 -1773 691 -1773 851 -1773 
C 1011 -1773 1011 -1773 1651 -1792 
L 1651 -1600 
L 1357 -1581 
C 1139 -1568 1120 -1523 1120 -1118 
L 1120 96 
C 1312 -20 1517 -64 1805 -64 
C 1990 -64 2157 -26 2259 38 
L 2989 511 
C 3245 677 3546 1334 3546 1743 
C 3546 2451 2957 3008 2214 3008 
C 1978 3008 1747 2943 1645 2847 
L 1120 2368 
L 1120 2982 
L 1062 3008 
C 736 2873 403 2783 64 2745 
L 64 2566 
z
M 1120 1966 
C 1120 2055 1152 2126 1235 2234 
C 1421 2470 1683 2591 2003 2591 
C 2605 2591 2989 2170 2989 1507 
C 2989 792 2560 262 1984 262 
C 1632 262 1370 377 1120 639 
L 1120 1966 
z
" transform="scale(0.015625)"/>
       <path id="URWPalladioL-Roma-75" d="M 3219 2982 
L 3162 3008 
C 2835 2873 2502 2784 2163 2745 
L 2163 2567 
L 2400 2567 
C 2656 2567 2682 2522 2682 2101 
L 2682 1060 
C 2682 920 2592 741 2445 594 
C 2266 415 2061 326 1811 326 
C 1587 326 1408 396 1306 517 
C 1216 620 1171 817 1171 1098 
L 1171 2982 
L 1114 3008 
C 787 2873 454 2784 115 2745 
L 115 2567 
L 352 2567 
C 608 2567 634 2522 634 2101 
L 634 1028 
C 634 581 672 383 787 224 
C 928 32 1171 -64 1536 -64 
C 1824 -58 2080 32 2253 192 
L 2682 588 
C 2682 403 2675 300 2656 0 
C 3085 0 3091 0 3187 0 
C 3277 19 3277 19 3718 0 
L 3718 192 
L 3456 211 
C 3238 224 3219 262 3219 672 
L 3219 2982 
z
" transform="scale(0.015625)"/>
       <path id="URWPalladioL-Roma-6c" d="M 147 4249 
L 506 4249 
C 621 4249 666 4179 666 3987 
L 666 672 
C 666 268 646 224 429 211 
L 134 192 
L 134 0 
C 774 0 774 0 934 0 
C 1094 19 1094 19 1734 0 
L 1734 192 
L 1440 211 
C 1222 224 1203 268 1203 672 
L 1203 4614 
L 1146 4665 
C 864 4557 653 4505 147 4429 
L 147 4249 
z
" transform="scale(0.015625)"/>
       <path id="URWPalladioL-Roma-61" d="M 2074 544 
L 2042 0 
C 2458 0 2458 0 2541 0 
C 2573 19 2733 12 3014 0 
L 3014 192 
L 2765 204 
C 2611 211 2586 262 2586 576 
L 2586 1751 
C 2586 2688 2317 3027 1574 3027 
C 1299 3027 1043 2956 800 2809 
L 461 2604 
L 461 2187 
L 627 2142 
L 710 2341 
C 845 2642 909 2688 1203 2688 
C 1805 2688 2054 2450 2074 1866 
L 1440 1751 
C 570 1590 205 1289 205 730 
C 205 224 506 -64 1011 -64 
C 1126 -64 1235 -45 1280 -13 
L 2074 544 
z
M 2074 806 
C 1888 544 1485 300 1235 300 
C 979 300 755 537 755 812 
C 755 1049 883 1273 1075 1395 
C 1235 1491 1587 1580 2074 1651 
L 2074 806 
z
" transform="scale(0.015625)"/>
       <path id="URWPalladioL-Roma-74" d="M 627 2457 
L 627 614 
C 627 140 838 -64 1331 -64 
C 1478 -64 1632 -32 1670 12 
L 1978 352 
L 1894 460 
C 1734 371 1638 339 1517 339 
C 1267 339 1165 467 1165 780 
L 1165 2457 
L 1984 2457 
L 2042 2803 
L 1165 2764 
L 1165 3008 
C 1165 3277 1184 3507 1235 3917 
L 1158 3987 
C 1005 3891 813 3808 614 3744 
C 634 3552 640 3430 640 3238 
L 640 2790 
L 141 2566 
L 141 2432 
L 627 2457 
z
" transform="scale(0.015625)"/>
       <path id="URWPalladioL-Roma-69" d="M 1203 2982 
L 1146 3008 
C 819 2873 486 2784 147 2746 
L 147 2568 
L 384 2568 
C 640 2568 666 2523 666 2103 
L 666 669 
C 666 268 646 223 429 211 
L 134 192 
L 134 0 
C 774 0 774 0 934 0 
C 1094 19 1094 19 1734 0 
L 1734 192 
L 1440 211 
C 1222 224 1203 268 1203 671 
L 1203 2982 
z
M 909 4416 
C 717 4416 550 4249 550 4057 
C 550 3871 717 3705 902 3705 
C 1088 3705 1261 3871 1261 4057 
C 1261 4236 1088 4416 909 4416 
z
" transform="scale(0.015625)"/>
       <path id="URWPalladioL-Roma-6e" d="M 2624 0 
C 3014 0 3021 0 3130 0 
C 3219 19 3219 19 3661 0 
L 3661 192 
L 3398 211 
C 3181 223 3162 262 3162 670 
L 3162 1902 
C 3162 2649 2810 3014 2093 3014 
C 1856 3014 1722 2969 1587 2854 
L 1101 2432 
L 1101 2988 
L 1043 3008 
C 717 2873 384 2784 45 2746 
L 45 2568 
L 282 2568 
C 538 2568 563 2523 563 2103 
L 563 669 
C 563 268 544 223 326 211 
L 38 192 
L 38 0 
C 474 -7 646 0 832 0 
C 1018 19 1190 12 1626 0 
L 1626 192 
L 1338 211 
C 1120 223 1101 268 1101 670 
L 1101 2023 
C 1101 2311 1523 2624 1914 2624 
C 2342 2624 2624 2304 2624 1813 
L 2624 0 
z
" transform="scale(0.015625)"/>
      </defs>
      <use xlink:href="#URWPalladioL-Roma-50" transform="scale(0.996264)"/>
      <use xlink:href="#URWPalladioL-Roma-6f" transform="translate(60.173595 0) scale(0.996264)"/>
      <use xlink:href="#URWPalladioL-Roma-70" transform="translate(114.569175 0) scale(0.996264)"/>
      <use xlink:href="#URWPalladioL-Roma-75" transform="translate(174.443569 0) scale(0.996264)"/>
      <use xlink:href="#URWPalladioL-Roma-6c" transform="translate(234.517304 0) scale(0.996264)"/>
      <use xlink:href="#URWPalladioL-Roma-61" transform="translate(263.507665 0) scale(0.996264)"/>
      <use xlink:href="#URWPalladioL-Roma-74" transform="translate(313.320866 0) scale(0.996264)"/>
      <use xlink:href="#URWPalladioL-Roma-69" transform="translate(345.797954 0) scale(0.996264)"/>
      <use xlink:href="#URWPalladioL-Roma-6f" transform="translate(374.788315 0) scale(0.996264)"/>
      <use xlink:href="#URWPalladioL-Roma-6e" transform="translate(429.183895 0) scale(0.996264)"/>
     </g>
    </g>
   </g>
   <g id="line2d_13">
    <path d="M 99.064538 344.283524 
L 100.148941 342.561541 
L 101.341785 340.247187 
L 102.643068 337.235254 
L 104.052793 333.419961 
L 105.679397 328.337862 
L 107.414442 322.16275 
L 109.366368 314.358266 
L 111.535174 304.730309 
L 114.029302 292.585132 
L 116.95719 277.148536 
L 120.752601 255.827105 
L 132.247275 190.32975 
L 135.283603 174.746471 
L 137.886171 162.4991 
L 140.163418 152.778636 
L 142.223784 144.880104 
L 144.175709 138.247002 
L 145.910754 133.085036 
L 147.537359 128.898944 
L 149.055523 125.578373 
L 150.465247 123.011571 
L 151.766531 121.088838 
L 152.959375 119.705133 
L 154.043778 118.762009 
L 155.128181 118.117973 
L 156.104144 117.792725 
L 157.080107 117.706593 
L 158.05607 117.857161 
L 159.032032 118.241437 
L 160.007995 118.855867 
L 161.092398 119.803492 
L 162.285242 121.160531 
L 163.586526 123.005855 
L 164.99625 125.418821 
L 166.514414 128.476626 
L 168.141019 132.251169 
L 169.984504 137.107163 
L 172.04487 143.193499 
L 174.322117 150.629888 
L 177.033125 160.28794 
L 180.286334 172.740422 
L 185.491469 193.692653 
L 191.347246 217.030448 
L 194.708896 229.51732 
L 197.419904 238.785956 
L 199.805591 246.204546 
L 201.974397 252.260171 
L 203.926323 257.093358 
L 205.769808 261.083404 
L 207.504853 264.30291 
L 209.023018 266.678465 
L 210.432742 268.506344 
L 211.734026 269.865459 
L 213.035309 270.906528 
L 214.228153 271.5802 
L 215.312556 271.959627 
L 216.396959 272.117868 
L 217.481362 272.056325 
L 218.565766 271.777077 
L 219.758609 271.221746 
L 220.951452 270.410871 
L 222.252736 269.241281 
L 223.66246 267.648058 
L 225.180625 265.566571 
L 226.807229 262.934715 
L 228.542275 259.695567 
L 230.4942 255.557555 
L 232.663006 250.404511 
L 235.048693 244.146051 
L 237.868142 236.091809 
L 241.338232 225.45745 
L 247.194009 206.639341 
L 252.616025 189.499178 
L 255.977674 179.580731 
L 258.797122 171.920186 
L 261.29125 165.763326 
L 263.568496 160.724189 
L 265.628862 156.690742 
L 267.580788 153.361696 
L 269.315833 150.823413 
L 270.942438 148.815089 
L 272.460602 147.271603 
L 273.870326 146.128032 
L 275.28005 145.265015 
L 276.581334 144.717462 
L 277.882618 144.407936 
L 279.183902 144.334297 
L 280.485186 144.493373 
L 281.786469 144.88099 
L 283.087753 145.491996 
L 284.497477 146.39892 
L 286.015642 147.650523 
L 287.642246 149.293768 
L 289.377291 151.371856 
L 291.329217 154.082342 
L 293.389583 157.332392 
L 295.77527 161.534346 
L 298.486278 166.78669 
L 301.739487 173.597068 
L 306.619302 184.40162 
L 313.342601 199.234001 
L 316.812691 206.334792 
L 319.632139 211.619063 
L 322.126267 215.840445 
L 324.403513 219.267511 
L 326.463879 221.981565 
L 328.415805 224.190291 
L 330.25929 225.936569 
L 331.994335 227.268364 
L 333.62094 228.236254 
L 335.139104 228.891433 
L 336.657269 229.305724 
L 338.175433 229.479411 
L 339.693598 229.414256 
L 341.211762 229.113471 
L 342.729927 228.581668 
L 344.356531 227.762318 
L 345.983136 226.693607 
L 347.718181 225.290758 
L 349.561666 223.519133 
L 351.622032 221.220521 
L 353.899279 218.324887 
L 356.393406 214.778402 
L 359.212854 210.376744 
L 362.682945 204.53001 
L 367.99652 195.079235 
L 374.502939 183.600091 
L 378.081469 177.739837 
L 381.009358 173.348163 
L 383.611925 169.823694 
L 385.997612 166.952535 
L 388.166419 164.669894 
L 390.226785 162.809587 
L 392.17871 161.336847 
L 394.022196 160.212529 
L 395.865681 159.351905 
L 397.600726 158.784733 
L 399.335771 158.452869 
L 401.070816 158.354257 
L 402.805861 158.485012 
L 404.540906 158.839492 
L 406.384392 159.453032 
L 408.227877 160.300069 
L 410.179803 161.437313 
L 412.348609 162.97026 
L 414.625856 164.856872 
L 417.228423 167.317662 
L 420.156312 170.4089 
L 423.734842 174.533991 
L 429.156858 181.174971 
L 435.663277 189.069764 
L 439.350247 193.186573 
L 442.386576 196.251225 
L 445.097584 198.67767 
L 447.591711 200.613984 
L 449.868958 202.110417 
L 452.037764 203.279098 
L 454.09813 204.147675 
L 456.158496 204.774474 
L 458.110422 205.142219 
L 460.062348 205.289495 
L 462.014273 205.218069 
L 463.966199 204.931889 
L 466.026565 204.403552 
L 468.195371 203.606748 
L 470.472618 202.519488 
L 472.858305 201.125749 
L 475.460872 199.337637 
L 478.280321 197.127294 
L 481.53353 194.289849 
L 485.654262 190.382364 
L 499.859943 176.633847 
L 503.221593 173.835543 
L 506.257922 171.59613 
L 508.96893 169.865037 
L 511.571497 168.465845 
L 514.065625 167.382402 
L 516.451312 166.591611 
L 518.728558 166.065625 
L 521.005805 165.76449 
L 523.283052 165.686359 
L 525.560298 165.826378 
L 527.945985 166.198579 
L 530.440112 166.821445 
L 532.717359 167.5844 
L 532.717359 167.5844 
" clip-path="url(#pd8d2bc7e1b)" style="fill: none; stroke: #1f77b4; stroke-width: 1.5; stroke-linecap: square"/>
   </g>
   <g id="line2d_14">
    <path d="M 99.064538 36.965882 
L 100.148941 38.687865 
L 101.341785 41.002219 
L 102.643068 44.014152 
L 104.052793 47.829445 
L 105.679397 52.911545 
L 107.414442 59.086657 
L 109.366368 66.891141 
L 111.535174 76.519097 
L 114.029302 88.664274 
L 116.95719 104.10087 
L 120.752601 125.422301 
L 132.247275 190.919656 
L 135.283603 206.502935 
L 137.886171 218.750306 
L 140.163418 228.470771 
L 142.223784 236.369302 
L 144.175709 243.002404 
L 145.910754 248.164371 
L 147.537359 252.350462 
L 149.055523 255.671034 
L 150.465247 258.237835 
L 151.766531 260.160568 
L 152.959375 261.544274 
L 154.043778 262.487397 
L 155.128181 263.131433 
L 156.104144 263.456682 
L 157.080107 263.542814 
L 158.05607 263.392245 
L 159.032032 263.007969 
L 160.007995 262.39354 
L 161.092398 261.445914 
L 162.285242 260.088875 
L 163.586526 258.243552 
L 164.99625 255.830586 
L 166.514414 252.77278 
L 168.141019 248.998238 
L 169.984504 244.142244 
L 172.04487 238.055908 
L 174.322117 230.619519 
L 177.033125 220.961467 
L 180.286334 208.508985 
L 185.491469 187.556753 
L 191.347246 164.218959 
L 194.708896 151.732086 
L 197.419904 142.46345 
L 199.805591 135.04486 
L 201.974397 128.989235 
L 203.926323 124.156048 
L 205.769808 120.166002 
L 207.504853 116.946496 
L 209.023018 114.570941 
L 210.432742 112.743063 
L 211.734026 111.383948 
L 213.035309 110.342879 
L 214.228153 109.669206 
L 215.312556 109.289779 
L 216.396959 109.131538 
L 217.481362 109.193081 
L 218.565766 109.472329 
L 219.758609 110.027661 
L 220.951452 110.838535 
L 222.252736 112.008126 
L 223.66246 113.601349 
L 225.180625 115.682836 
L 226.807229 118.314691 
L 228.542275 121.553839 
L 230.4942 125.691851 
L 232.663006 130.844896 
L 235.048693 137.103355 
L 237.868142 145.157597 
L 241.338232 155.791957 
L 247.194009 174.610065 
L 252.616025 191.750229 
L 255.977674 201.668676 
L 258.797122 209.329221 
L 261.29125 215.48608 
L 263.568496 220.525218 
L 265.628862 224.558665 
L 267.580788 227.887711 
L 269.315833 230.425994 
L 270.942438 232.434318 
L 272.460602 233.977804 
L 273.870326 235.121374 
L 275.28005 235.984391 
L 276.581334 236.531944 
L 277.882618 236.841471 
L 279.183902 236.91511 
L 280.485186 236.756033 
L 281.786469 236.368416 
L 283.087753 235.75741 
L 284.497477 234.850486 
L 286.015642 233.598884 
L 287.642246 231.955639 
L 289.377291 229.87755 
L 291.329217 227.167064 
L 293.389583 223.917015 
L 295.77527 219.715061 
L 298.486278 214.462716 
L 301.739487 207.652339 
L 306.619302 196.847786 
L 313.342601 182.015405 
L 316.812691 174.914614 
L 319.632139 169.630343 
L 322.126267 165.408961 
L 324.403513 161.981896 
L 326.463879 159.267841 
L 328.415805 157.059115 
L 330.25929 155.312837 
L 331.994335 153.981043 
L 333.62094 153.013153 
L 335.139104 152.357973 
L 336.657269 151.943683 
L 338.175433 151.769996 
L 339.693598 151.835151 
L 341.211762 152.135935 
L 342.729927 152.667739 
L 344.356531 153.487088 
L 345.983136 154.555799 
L 347.718181 155.958648 
L 349.561666 157.730274 
L 351.622032 160.028885 
L 353.899279 162.92452 
L 356.393406 166.471004 
L 359.212854 170.872662 
L 362.682945 176.719397 
L 367.99652 186.170172 
L 374.502939 197.649316 
L 378.081469 203.50957 
L 381.009358 207.901244 
L 383.611925 211.425712 
L 385.997612 214.296872 
L 388.166419 216.579512 
L 390.226785 218.43982 
L 392.17871 219.91256 
L 394.022196 221.036877 
L 395.865681 221.897501 
L 397.600726 222.464674 
L 399.335771 222.796537 
L 401.070816 222.89515 
L 402.805861 222.764394 
L 404.540906 222.409914 
L 406.384392 221.796375 
L 408.227877 220.949337 
L 410.179803 219.812093 
L 412.348609 218.279147 
L 414.625856 216.392535 
L 417.228423 213.931745 
L 420.156312 210.840507 
L 423.734842 206.715416 
L 429.156858 200.074435 
L 435.663277 192.179643 
L 439.350247 188.062834 
L 442.386576 184.998181 
L 445.097584 182.571737 
L 447.591711 180.635423 
L 449.868958 179.13899 
L 452.037764 177.970309 
L 454.09813 177.101731 
L 456.158496 176.474933 
L 458.110422 176.107187 
L 460.062348 175.959911 
L 462.014273 176.031337 
L 463.966199 176.317517 
L 466.026565 176.845854 
L 468.195371 177.642659 
L 470.472618 178.729919 
L 472.858305 180.123657 
L 475.460872 181.91177 
L 478.280321 184.122112 
L 481.53353 186.959557 
L 485.654262 190.867043 
L 499.859943 204.61556 
L 503.221593 207.413863 
L 506.257922 209.653277 
L 508.96893 211.38437 
L 511.571497 212.783562 
L 514.065625 213.867005 
L 516.451312 214.657795 
L 518.728558 215.183782 
L 521.005805 215.484917 
L 523.283052 215.563047 
L 525.560298 215.423029 
L 527.945985 215.050827 
L 530.440112 214.427962 
L 532.717359 213.665007 
L 532.717359 213.665007 
" clip-path="url(#pd8d2bc7e1b)" style="fill: none; stroke: #ff7f0e; stroke-width: 1.5; stroke-linecap: square"/>
   </g>
   <g id="patch_3">
    <path d="M 77.381897 359.649407 
L 77.381897 21.6 
" style="fill: none; stroke: #000000; stroke-width: 0.8; stroke-linejoin: miter; stroke-linecap: square"/>
   </g>
   <g id="patch_4">
    <path d="M 554.4 359.649407 
L 554.4 21.6 
" style="fill: none; stroke: #000000; stroke-width: 0.8; stroke-linejoin: miter; stroke-linecap: square"/>
   </g>
   <g id="patch_5">
    <path d="M 77.381897 359.649407 
L 554.4 359.649407 
" style="fill: none; stroke: #000000; stroke-width: 0.8; stroke-linejoin: miter; stroke-linecap: square"/>
   </g>
   <g id="patch_6">
    <path d="M 77.381897 21.6 
L 554.4 21.6 
" style="fill: none; stroke: #000000; stroke-width: 0.8; stroke-linejoin: miter; stroke-linecap: square"/>
   </g>
   <g id="legend_1">
    <g id="patch_7">
     <path d="M 420.510221 97.350593 
L 540.4 97.350593 
Q 544.4 97.350593 544.4 93.350593 
L 544.4 35.6 
Q 544.4 31.6 540.4 31.6 
L 420.510221 31.6 
Q 416.510221 31.6 416.510221 35.6 
L 416.510221 93.350593 
Q 416.510221 97.350593 420.510221 97.350593 
L 420.510221 97.350593 
z
" style="fill: none; opacity: 0.8; stroke: #cccccc; stroke-linejoin: miter"/>
    </g>
    <g id="line2d_15">
     <path d="M 424.510221 46.856475 
L 444.510221 46.856475 
L 464.510221 46.856475 
" style="fill: none; stroke: #1f77b4; stroke-width: 1.5; stroke-linecap: square"/>
    </g>
    <g id="text_15">
     <!-- state ${0}$ -->
     <g transform="translate(480.510221 53.856475) scale(0.2 -0.2)">
      <defs>
       <path id="URWPalladioL-Roma-73" d="M 262 917 
C 262 474 243 282 192 25 
C 525 -84 774 -128 1069 -128 
C 1907 -128 2502 320 2502 949 
C 2502 1148 2445 1295 2323 1423 
C 2157 1584 1946 1661 1382 1770 
C 858 1872 685 2001 685 2296 
C 685 2617 909 2796 1299 2796 
C 1728 2796 2054 2572 2054 2270 
L 2054 2123 
L 2234 2123 
C 2240 2495 2246 2649 2266 2847 
C 1926 2963 1696 3008 1434 3008 
C 691 3008 237 2655 237 2078 
C 237 1770 378 1552 672 1417 
C 845 1340 1184 1237 1619 1141 
C 1907 1077 2029 942 2029 698 
C 2029 352 1709 108 1254 108 
C 787 108 454 333 454 654 
L 454 917 
L 262 917 
z
" transform="scale(0.015625)"/>
       <path id="URWPalladioL-Roma-65" d="M 2797 447 
L 2714 511 
C 2304 268 2157 211 1882 211 
C 1466 211 1120 396 941 710 
C 819 921 774 1100 762 1472 
L 1696 1472 
C 2138 1472 2413 1491 2854 1561 
C 2861 1651 2867 1708 2867 1786 
C 2867 2526 2394 3008 1677 3008 
C 1440 3008 1165 2924 902 2771 
C 378 2468 166 2069 166 1401 
C 166 998 262 652 435 409 
C 691 70 1120 -128 1600 -128 
C 1837 -128 2074 -77 2336 38 
C 2509 108 2643 192 2669 230 
L 2797 447 
z
M 2298 1708 
C 1965 1696 1811 1689 1581 1689 
C 1286 1689 1120 1696 774 1728 
C 774 2030 800 2172 883 2339 
C 1018 2623 1293 2796 1600 2796 
C 1811 2796 1978 2713 2093 2539 
C 2234 2326 2278 2140 2298 1708 
z
" transform="scale(0.015625)"/>
      </defs>
      <use xlink:href="#URWPalladioL-Roma-73" transform="scale(0.996264)"/>
      <use xlink:href="#URWPalladioL-Roma-74" transform="translate(42.241466 0) scale(0.996264)"/>
      <use xlink:href="#URWPalladioL-Roma-61" transform="translate(74.718554 0) scale(0.996264)"/>
      <use xlink:href="#URWPalladioL-Roma-74" transform="translate(124.531755 0) scale(0.996264)"/>
      <use xlink:href="#URWPalladioL-Roma-65" transform="translate(157.008843 0) scale(0.996264)"/>
      <use xlink:href="#URWPalladioL-Roma-30" transform="translate(229.635738 0) scale(0.996264)"/>
     </g>
    </g>
    <g id="line2d_16">
     <path d="M 424.510221 76.731771 
L 444.510221 76.731771 
L 464.510221 76.731771 
" style="fill: none; stroke: #ff7f0e; stroke-width: 1.5; stroke-linecap: square"/>
    </g>
    <g id="text_16">
     <!-- state ${1}$ -->
     <g transform="translate(480.510221 83.731771) scale(0.2 -0.2)">
      <use xlink:href="#URWPalladioL-Roma-73" transform="scale(0.996264)"/>
      <use xlink:href="#URWPalladioL-Roma-74" transform="translate(42.241466 0) scale(0.996264)"/>
      <use xlink:href="#URWPalladioL-Roma-61" transform="translate(74.718554 0) scale(0.996264)"/>
      <use xlink:href="#URWPalladioL-Roma-74" transform="translate(124.531755 0) scale(0.996264)"/>
      <use xlink:href="#URWPalladioL-Roma-65" transform="translate(157.008843 0) scale(0.996264)"/>
      <use xlink:href="#URWPalladioL-Roma-31" transform="translate(229.635738 0) scale(0.996264)"/>
     </g>
    </g>
   </g>
  </g>
 </g>
 <defs>
  <clipPath id="pd8d2bc7e1b">
   <rect x="77.381897" y="21.6" width="477.018103" height="338.049407"/>
  </clipPath>
 </defs>
</svg>
